STARTFONT 2.1
FONT -Marlin6x12-Fixed-Medium-R-SemiCondensed--12-110-75-75-C-60-ISO10646-1
SIZE 12 75 75
FONTBOUNDINGBOX 6 12 0 -2
COMMENT "Marlin 6x12 Fixed, for menu display"
COMMENT "This font is base on the X Windows' 6x12 '-Misc-Fixed-Medium-R-SemiCondensed--12-110-75-75-C-60-ISO10646-1', added Marlin symbols at position 1-9, some chars were tweak for display on LCD screen, such as ',;c69' etc."
STARTPROPERTIES 23
FONTNAME_REGISTRY ""
FOUNDRY "Marlin"
FAMILY_NAME "Fixed"
WEIGHT_NAME "Medium"
SLANT "R"
SETWIDTH_NAME "SemiCondensed"
ADD_STYLE_NAME ""
PIXEL_SIZE 12
POINT_SIZE 120
RESOLUTION_X 75
RESOLUTION_Y 75
SPACING "C"
AVERAGE_WIDTH 60
CHARSET_REGISTRY "ISO10646"
CHARSET_ENCODING "1"
COPYRIGHT "Public domain terminal emulator font.  Share and enjoy. original font -Misc-Fixed-Medium-R-SemiCondensed--12-110-75-75-C-60-ISO10646-1"
CAP_HEIGHT 7
X_HEIGHT 5
WEIGHT 10
QUAD_WIDTH 6
DEFAULT_CHAR 0
FONT_DESCENT 2
FONT_ASCENT 10
ENDPROPERTIES
CHARS 4539

STARTCHAR uni0001
ENCODING 1
SWIDTH 545 0
DWIDTH 6 0
BBX 5 8 0 0
BITMAP
40
F0
C8
88
88
98
78
10
ENDCHAR
STARTCHAR uni0002
ENCODING 2
SWIDTH 545 0
DWIDTH 6 0
BBX 5 8 0 0
BITMAP
C0
F8
88
88
88
88
88
F8
ENDCHAR
STARTCHAR uni0003
ENCODING 3
SWIDTH 545 0
DWIDTH 6 0
BBX 5 5 0 1
BITMAP
20
30
F8
30
20
ENDCHAR
STARTCHAR uni0004
ENCODING 4
SWIDTH 545 0
DWIDTH 6 0
BBX 5 8 0 0
BITMAP
20
70
F8
20
20
20
20
E0
ENDCHAR
STARTCHAR uni0005
ENCODING 5
SWIDTH 545 0
DWIDTH 6 0
BBX 5 9 0 -1
BITMAP
20
70
A8
A8
B8
88
88
70
20
ENDCHAR
STARTCHAR uni0006
ENCODING 6
SWIDTH 545 0
DWIDTH 6 0
BBX 5 9 0 -1
BITMAP
E0
80
C0
B0
A8
28
30
28
28
ENDCHAR
STARTCHAR uni0007
ENCODING 7
SWIDTH 545 0
DWIDTH 6 0
BBX 5 9 0 -1
BITMAP
F8
A8
88
88
88
88
88
A8
F8
ENDCHAR
STARTCHAR uni0008
ENCODING 8
SWIDTH 545 0
DWIDTH 6 0
BBX 5 10 0 -2
BITMAP
20
50
50
50
50
88
A8
A8
88
70
ENDCHAR
STARTCHAR uni0009
ENCODING 9
SWIDTH 545 0
DWIDTH 6 0
BBX 3 3 0 3
BITMAP
40
A0
40
ENDCHAR
STARTCHAR space
ENCODING 32
SWIDTH 480 0
DWIDTH 6 0
BBX 1 1 5 -2
BITMAP
00
ENDCHAR
STARTCHAR exclam
ENCODING 33
SWIDTH 480 0
DWIDTH 6 0
BBX 1 7 2 0
BITMAP
80
80
80
80
80
00
80
ENDCHAR
STARTCHAR quotedbl
ENCODING 34
SWIDTH 480 0
DWIDTH 6 0
BBX 3 3 1 5
BITMAP
A0
A0
A0
ENDCHAR
STARTCHAR numbersign
ENCODING 35
SWIDTH 480 0
DWIDTH 6 0
BBX 5 6 0 0
BITMAP
50
F8
50
50
F8
50
ENDCHAR
STARTCHAR dollar
ENCODING 36
SWIDTH 480 0
DWIDTH 6 0
BBX 5 9 0 -1
BITMAP
20
70
A8
A0
70
28
A8
70
20
ENDCHAR
STARTCHAR percent
ENCODING 37
SWIDTH 480 0
DWIDTH 6 0
BBX 5 7 0 0
BITMAP
C8
C8
10
20
40
98
98
ENDCHAR
STARTCHAR ampersand
ENCODING 38
SWIDTH 480 0
DWIDTH 6 0
BBX 5 7 0 0
BITMAP
40
A0
A0
40
A8
90
68
ENDCHAR
STARTCHAR quotesingle
ENCODING 39
SWIDTH 480 0
DWIDTH 6 0
BBX 1 3 2 5
BITMAP
80
80
80
ENDCHAR
STARTCHAR parenleft
ENCODING 40
SWIDTH 480 0
DWIDTH 6 0
BBX 3 9 1 -1
BITMAP
20
40
40
80
80
80
40
40
20
ENDCHAR
STARTCHAR parenright
ENCODING 41
SWIDTH 480 0
DWIDTH 6 0
BBX 3 9 1 -1
BITMAP
80
40
40
20
20
20
40
40
80
ENDCHAR
STARTCHAR asterisk
ENCODING 42
SWIDTH 480 0
DWIDTH 6 0
BBX 5 7 0 0
BITMAP
20
A8
70
20
70
A8
20
ENDCHAR
STARTCHAR plus
ENCODING 43
SWIDTH 480 0
DWIDTH 6 0
BBX 5 5 0 1
BITMAP
20
20
F8
20
20
ENDCHAR
STARTCHAR comma
ENCODING 44
SWIDTH 480 0
DWIDTH 6 0
BBX 2 3 1 -1
BITMAP
C0
40
80
ENDCHAR
STARTCHAR hyphen
ENCODING 45
SWIDTH 480 0
DWIDTH 6 0
BBX 5 1 0 3
BITMAP
F8
ENDCHAR
STARTCHAR period
ENCODING 46
SWIDTH 480 0
DWIDTH 6 0
BBX 2 2 1 0
BITMAP
C0
C0
ENDCHAR
STARTCHAR slash
ENCODING 47
SWIDTH 480 0
DWIDTH 6 0
BBX 5 7 0 0
BITMAP
08
10
10
20
40
40
80
ENDCHAR
STARTCHAR zero
ENCODING 48
SWIDTH 480 0
DWIDTH 6 0
BBX 5 7 0 0
BITMAP
70
88
98
A8
C8
88
70
ENDCHAR
STARTCHAR one
ENCODING 49
SWIDTH 480 0
DWIDTH 6 0
BBX 3 7 1 0
BITMAP
40
C0
40
40
40
40
E0
ENDCHAR
STARTCHAR two
ENCODING 50
SWIDTH 480 0
DWIDTH 6 0
BBX 5 7 0 0
BITMAP
70
88
08
10
20
40
F8
ENDCHAR
STARTCHAR three
ENCODING 51
SWIDTH 480 0
DWIDTH 6 0
BBX 5 7 0 0
BITMAP
F8
08
10
30
08
88
70
ENDCHAR
STARTCHAR four
ENCODING 52
SWIDTH 480 0
DWIDTH 6 0
BBX 5 7 0 0
BITMAP
10
30
50
90
F8
10
10
ENDCHAR
STARTCHAR five
ENCODING 53
SWIDTH 480 0
DWIDTH 6 0
BBX 5 7 0 0
BITMAP
F8
80
F0
08
08
88
70
ENDCHAR
STARTCHAR six
ENCODING 54
SWIDTH 480 0
DWIDTH 6 0
BBX 5 7 0 0
BITMAP
30
40
80
F0
88
88
70
ENDCHAR
STARTCHAR seven
ENCODING 55
SWIDTH 480 0
DWIDTH 6 0
BBX 5 7 0 0
BITMAP
F8
08
10
10
20
20
20
ENDCHAR
STARTCHAR eight
ENCODING 56
SWIDTH 480 0
DWIDTH 6 0
BBX 5 7 0 0
BITMAP
70
88
88
70
88
88
70
ENDCHAR
STARTCHAR nine
ENCODING 57
SWIDTH 480 0
DWIDTH 6 0
BBX 5 7 0 0
BITMAP
70
88
88
78
08
10
60
ENDCHAR
STARTCHAR colon
ENCODING 58
SWIDTH 480 0
DWIDTH 6 0
BBX 2 5 1 0
BITMAP
C0
C0
00
C0
C0
ENDCHAR
STARTCHAR semicolon
ENCODING 59
SWIDTH 480 0
DWIDTH 6 0
BBX 2 6 1 -1
BITMAP
C0
C0
00
C0
40
80
ENDCHAR
STARTCHAR less
ENCODING 60
SWIDTH 480 0
DWIDTH 6 0
BBX 3 5 1 1
BITMAP
20
40
80
40
20
ENDCHAR
STARTCHAR equal
ENCODING 61
SWIDTH 480 0
DWIDTH 6 0
BBX 5 3 0 2
BITMAP
F8
00
F8
ENDCHAR
STARTCHAR greater
ENCODING 62
SWIDTH 480 0
DWIDTH 6 0
BBX 3 5 1 1
BITMAP
80
40
20
40
80
ENDCHAR
STARTCHAR question
ENCODING 63
SWIDTH 480 0
DWIDTH 6 0
BBX 5 7 0 0
BITMAP
70
88
10
20
20
00
20
ENDCHAR
STARTCHAR at
ENCODING 64
SWIDTH 480 0
DWIDTH 6 0
BBX 5 7 0 0
BITMAP
70
88
B8
A8
B8
80
70
ENDCHAR
STARTCHAR A
ENCODING 65
SWIDTH 480 0
DWIDTH 6 0
BBX 5 7 0 0
BITMAP
70
88
88
F8
88
88
88
ENDCHAR
STARTCHAR B
ENCODING 66
SWIDTH 480 0
DWIDTH 6 0
BBX 5 7 0 0
BITMAP
F0
48
48
70
48
48
F0
ENDCHAR
STARTCHAR C
ENCODING 67
SWIDTH 480 0
DWIDTH 6 0
BBX 5 7 0 0
BITMAP
70
88
80
80
80
88
70
ENDCHAR
STARTCHAR D
ENCODING 68
SWIDTH 480 0
DWIDTH 6 0
BBX 5 7 0 0
BITMAP
F0
48
48
48
48
48
F0
ENDCHAR
STARTCHAR E
ENCODING 69
SWIDTH 480 0
DWIDTH 6 0
BBX 5 7 0 0
BITMAP
F8
80
80
F0
80
80
F8
ENDCHAR
STARTCHAR F
ENCODING 70
SWIDTH 480 0
DWIDTH 6 0
BBX 5 7 0 0
BITMAP
F8
80
80
F0
80
80
80
ENDCHAR
STARTCHAR G
ENCODING 71
SWIDTH 480 0
DWIDTH 6 0
BBX 5 7 0 0
BITMAP
70
88
80
80
98
88
70
ENDCHAR
STARTCHAR H
ENCODING 72
SWIDTH 480 0
DWIDTH 6 0
BBX 5 7 0 0
BITMAP
88
88
88
F8
88
88
88
ENDCHAR
STARTCHAR I
ENCODING 73
SWIDTH 480 0
DWIDTH 6 0
BBX 3 7 1 0
BITMAP
E0
40
40
40
40
40
E0
ENDCHAR
STARTCHAR J
ENCODING 74
SWIDTH 480 0
DWIDTH 6 0
BBX 5 7 0 0
BITMAP
38
10
10
10
10
90
60
ENDCHAR
STARTCHAR K
ENCODING 75
SWIDTH 480 0
DWIDTH 6 0
BBX 5 7 0 0
BITMAP
88
90
A0
C0
A0
90
88
ENDCHAR
STARTCHAR L
ENCODING 76
SWIDTH 480 0
DWIDTH 6 0
BBX 5 7 0 0
BITMAP
80
80
80
80
80
80
F8
ENDCHAR
STARTCHAR M
ENCODING 77
SWIDTH 480 0
DWIDTH 6 0
BBX 5 7 0 0
BITMAP
88
D8
A8
88
88
88
88
ENDCHAR
STARTCHAR N
ENCODING 78
SWIDTH 480 0
DWIDTH 6 0
BBX 5 7 0 0
BITMAP
88
88
C8
A8
98
88
88
ENDCHAR
STARTCHAR O
ENCODING 79
SWIDTH 480 0
DWIDTH 6 0
BBX 5 7 0 0
BITMAP
70
88
88
88
88
88
70
ENDCHAR
STARTCHAR P
ENCODING 80
SWIDTH 480 0
DWIDTH 6 0
BBX 5 7 0 0
BITMAP
F0
88
88
F0
80
80
80
ENDCHAR
STARTCHAR Q
ENCODING 81
SWIDTH 480 0
DWIDTH 6 0
BBX 5 7 0 0
BITMAP
70
88
88
88
A8
90
68
ENDCHAR
STARTCHAR R
ENCODING 82
SWIDTH 480 0
DWIDTH 6 0
BBX 5 7 0 0
BITMAP
F0
88
88
F0
A0
90
88
ENDCHAR
STARTCHAR S
ENCODING 83
SWIDTH 480 0
DWIDTH 6 0
BBX 5 7 0 0
BITMAP
70
88
80
70
08
88
70
ENDCHAR
STARTCHAR T
ENCODING 84
SWIDTH 480 0
DWIDTH 6 0
BBX 5 7 0 0
BITMAP
F8
20
20
20
20
20
20
ENDCHAR
STARTCHAR U
ENCODING 85
SWIDTH 480 0
DWIDTH 6 0
BBX 5 7 0 0
BITMAP
88
88
88
88
88
88
70
ENDCHAR
STARTCHAR V
ENCODING 86
SWIDTH 480 0
DWIDTH 6 0
BBX 5 7 0 0
BITMAP
88
88
88
88
50
50
20
ENDCHAR
STARTCHAR W
ENCODING 87
SWIDTH 480 0
DWIDTH 6 0
BBX 5 7 0 0
BITMAP
88
88
88
88
A8
A8
50
ENDCHAR
STARTCHAR X
ENCODING 88
SWIDTH 480 0
DWIDTH 6 0
BBX 5 7 0 0
BITMAP
88
88
50
20
50
88
88
ENDCHAR
STARTCHAR Y
ENCODING 89
SWIDTH 480 0
DWIDTH 6 0
BBX 5 7 0 0
BITMAP
88
88
50
20
20
20
20
ENDCHAR
STARTCHAR Z
ENCODING 90
SWIDTH 480 0
DWIDTH 6 0
BBX 5 7 0 0
BITMAP
F8
08
10
20
40
80
F8
ENDCHAR
STARTCHAR bracketleft
ENCODING 91
SWIDTH 480 0
DWIDTH 6 0
BBX 3 9 1 -1
BITMAP
E0
80
80
80
80
80
80
80
E0
ENDCHAR
STARTCHAR backslash
ENCODING 92
SWIDTH 480 0
DWIDTH 6 0
BBX 5 7 0 0
BITMAP
80
40
40
20
10
10
08
ENDCHAR
STARTCHAR bracketright
ENCODING 93
SWIDTH 480 0
DWIDTH 6 0
BBX 3 9 1 -1
BITMAP
E0
20
20
20
20
20
20
20
E0
ENDCHAR
STARTCHAR asciicircum
ENCODING 94
SWIDTH 480 0
DWIDTH 6 0
BBX 5 3 0 5
BITMAP
20
50
88
ENDCHAR

STARTCHAR underscore
ENCODING 95
SWIDTH 480 0
DWIDTH 6 0
BBX 5 1 0 -2
BITMAP
F8
ENDCHAR

STARTCHAR grave
ENCODING 96
SWIDTH 480 0
DWIDTH 6 0
BBX 3 3 1 5
BITMAP
80
40
20
ENDCHAR
STARTCHAR a
ENCODING 97
SWIDTH 480 0
DWIDTH 6 0
BBX 5 5 0 0
BITMAP
70
08
78
88
78
ENDCHAR
STARTCHAR b
ENCODING 98
SWIDTH 480 0
DWIDTH 6 0
BBX 5 7 0 0
BITMAP
80
80
F0
88
88
88
F0
ENDCHAR
STARTCHAR c
ENCODING 99
SWIDTH 480 0
DWIDTH 6 0
BBX 5 5 0 0
BITMAP
70
80
80
88
70
ENDCHAR
STARTCHAR d
ENCODING 100
SWIDTH 480 0
DWIDTH 6 0
BBX 5 7 0 0
BITMAP
08
08
78
88
88
88
78
ENDCHAR
STARTCHAR e
ENCODING 101
SWIDTH 480 0
DWIDTH 6 0
BBX 5 5 0 0
BITMAP
70
88
F0
80
70
ENDCHAR
STARTCHAR f
ENCODING 102
SWIDTH 480 0
DWIDTH 6 0
BBX 5 7 0 0
BITMAP
30
48
40
E0
40
40
40
ENDCHAR
STARTCHAR g
ENCODING 103
SWIDTH 480 0
DWIDTH 6 0
BBX 5 7 0 -2
BITMAP
70
88
88
88
78
08
70
ENDCHAR
STARTCHAR h
ENCODING 104
SWIDTH 480 0
DWIDTH 6 0
BBX 5 7 0 0
BITMAP
80
80
F0
88
88
88
88
ENDCHAR
STARTCHAR i
ENCODING 105
SWIDTH 480 0
DWIDTH 6 0
BBX 3 7 1 0
BITMAP
40
00
C0
40
40
40
E0
ENDCHAR
STARTCHAR j
ENCODING 106
SWIDTH 480 0
DWIDTH 6 0
BBX 4 9 1 -2
BITMAP
10
00
30
10
10
10
10
90
60
ENDCHAR
STARTCHAR k
ENCODING 107
SWIDTH 480 0
DWIDTH 6 0
BBX 5 7 0 0
BITMAP
80
80
88
90
E0
90
88
ENDCHAR
STARTCHAR l
ENCODING 108
SWIDTH 480 0
DWIDTH 6 0
BBX 3 7 1 0
BITMAP
C0
40
40
40
40
40
E0
ENDCHAR
STARTCHAR m
ENCODING 109
SWIDTH 480 0
DWIDTH 6 0
BBX 5 5 0 0
BITMAP
D0
A8
A8
A8
A8
ENDCHAR
STARTCHAR n
ENCODING 110
SWIDTH 480 0
DWIDTH 6 0
BBX 5 5 0 0
BITMAP
B0
C8
88
88
88
ENDCHAR
STARTCHAR o
ENCODING 111
SWIDTH 480 0
DWIDTH 6 0
BBX 5 5 0 0
BITMAP
70
88
88
88
70
ENDCHAR
STARTCHAR p
ENCODING 112
SWIDTH 480 0
DWIDTH 6 0
BBX 5 7 0 -2
BITMAP
F0
88
88
88
F0
80
80
ENDCHAR
STARTCHAR q
ENCODING 113
SWIDTH 480 0
DWIDTH 6 0
BBX 5 7 0 -2
BITMAP
78
88
88
88
78
08
08
ENDCHAR
STARTCHAR r
ENCODING 114
SWIDTH 480 0
DWIDTH 6 0
BBX 5 5 0 0
BITMAP
B0
C8
80
80
80
ENDCHAR
STARTCHAR s
ENCODING 115
SWIDTH 480 0
DWIDTH 6 0
BBX 5 5 0 0
BITMAP
78
80
70
08
F0
ENDCHAR
STARTCHAR t
ENCODING 116
SWIDTH 480 0
DWIDTH 6 0
BBX 5 7 0 0
BITMAP
20
20
F8
20
20
20
18
ENDCHAR
STARTCHAR u
ENCODING 117
SWIDTH 480 0
DWIDTH 6 0
BBX 5 5 0 0
BITMAP
88
88
88
98
68
ENDCHAR
STARTCHAR v
ENCODING 118
SWIDTH 480 0
DWIDTH 6 0
BBX 5 5 0 0
BITMAP
88
88
88
50
20
ENDCHAR
STARTCHAR w
ENCODING 119
SWIDTH 480 0
DWIDTH 6 0
BBX 5 5 0 0
BITMAP
88
88
A8
A8
50
ENDCHAR
STARTCHAR x
ENCODING 120
SWIDTH 480 0
DWIDTH 6 0
BBX 5 5 0 0
BITMAP
88
50
20
50
88
ENDCHAR
STARTCHAR y
ENCODING 121
SWIDTH 480 0
DWIDTH 6 0
BBX 5 7 0 -2
BITMAP
88
88
88
50
20
40
80
ENDCHAR
STARTCHAR z
ENCODING 122
SWIDTH 480 0
DWIDTH 6 0
BBX 5 5 0 0
BITMAP
F8
10
20
40
F8
ENDCHAR
STARTCHAR braceleft
ENCODING 123
SWIDTH 480 0
DWIDTH 6 0
BBX 3 9 1 -1
BITMAP
20
40
40
40
80
40
40
40
20
ENDCHAR
STARTCHAR bar
ENCODING 124
SWIDTH 480 0
DWIDTH 6 0
BBX 1 9 2 -1
BITMAP
80
80
80
80
80
80
80
80
80
ENDCHAR
STARTCHAR braceright
ENCODING 125
SWIDTH 480 0
DWIDTH 6 0
BBX 3 9 1 -1
BITMAP
80
40
40
40
20
40
40
40
80
ENDCHAR
STARTCHAR asciitilde
ENCODING 126
SWIDTH 480 0
DWIDTH 6 0
BBX 5 3 0 2
BITMAP
48
A8
90
ENDCHAR
STARTCHAR space
ENCODING 160
SWIDTH 480 0
DWIDTH 6 0
BBX 1 1 5 -2
BITMAP
00
ENDCHAR
STARTCHAR exclamdown
ENCODING 161
SWIDTH 480 0
DWIDTH 6 0
BBX 1 7 2 0
BITMAP
80
00
80
80
80
80
80
ENDCHAR
STARTCHAR cent
ENCODING 162
SWIDTH 480 0
DWIDTH 6 0
BBX 5 7 0 -1
BITMAP
20
70
A8
A0
A8
70
20
ENDCHAR
STARTCHAR sterling
ENCODING 163
SWIDTH 480 0
DWIDTH 6 0
BBX 5 7 0 0
BITMAP
30
48
40
E0
40
48
B0
ENDCHAR
STARTCHAR currency
ENCODING 164
SWIDTH 480 0
DWIDTH 6 0
BBX 5 5 0 0
BITMAP
A8
50
88
50
A8
ENDCHAR
STARTCHAR yen
ENCODING 165
SWIDTH 480 0
DWIDTH 6 0
BBX 5 7 0 0
BITMAP
88
50
F8
20
F8
20
20
ENDCHAR
STARTCHAR brokenbar
ENCODING 166
SWIDTH 480 0
DWIDTH 6 0
BBX 1 7 2 0
BITMAP
80
80
80
00
80
80
80
ENDCHAR
STARTCHAR section
ENCODING 167
SWIDTH 480 0
DWIDTH 6 0
BBX 4 8 1 0
BITMAP
70
80
60
90
90
60
10
E0
ENDCHAR
STARTCHAR dieresis
ENCODING 168
SWIDTH 480 0
DWIDTH 6 0
BBX 3 1 1 7
BITMAP
A0
ENDCHAR
STARTCHAR copyright
ENCODING 169
SWIDTH 480 0
DWIDTH 6 0
BBX 6 7 0 0
BITMAP
78
84
B4
A4
B4
84
78
ENDCHAR
STARTCHAR ordfeminine
ENCODING 170
SWIDTH 480 0
DWIDTH 6 0
BBX 3 5 1 4
BITMAP
60
A0
60
00
E0
ENDCHAR
STARTCHAR guillemotleft
ENCODING 171
SWIDTH 480 0
DWIDTH 6 0
BBX 5 5 0 0
BITMAP
28
50
A0
50
28
ENDCHAR
STARTCHAR logicalnot
ENCODING 172
SWIDTH 480 0
DWIDTH 6 0
BBX 5 3 0 1
BITMAP
F8
08
08
ENDCHAR
STARTCHAR hyphen
ENCODING 173
SWIDTH 480 0
DWIDTH 6 0
BBX 3 1 1 3
BITMAP
E0
ENDCHAR
STARTCHAR registered
ENCODING 174
SWIDTH 480 0
DWIDTH 6 0
BBX 6 7 0 0
BITMAP
78
84
B4
A4
A4
84
78
ENDCHAR
STARTCHAR macron
ENCODING 175
SWIDTH 480 0
DWIDTH 6 0
BBX 5 1 0 7
BITMAP
F8
ENDCHAR
STARTCHAR degree
ENCODING 176
SWIDTH 480 0
DWIDTH 6 0
BBX 4 4 1 5
BITMAP
60
90
90
60
ENDCHAR
STARTCHAR plusminus
ENCODING 177
SWIDTH 480 0
DWIDTH 6 0
BBX 5 7 0 0
BITMAP
20
20
F8
20
20
00
F8
ENDCHAR
STARTCHAR twosuperior
ENCODING 178
SWIDTH 480 0
DWIDTH 6 0
BBX 3 5 1 5
BITMAP
40
A0
20
40
E0
ENDCHAR
STARTCHAR threesuperior
ENCODING 179
SWIDTH 480 0
DWIDTH 6 0
BBX 3 5 1 5
BITMAP
C0
20
40
20
C0
ENDCHAR
STARTCHAR acute
ENCODING 180
SWIDTH 480 0
DWIDTH 6 0
BBX 3 3 1 5
BITMAP
20
40
80
ENDCHAR
STARTCHAR mu
ENCODING 181
SWIDTH 480 0
DWIDTH 6 0
BBX 5 7 0 -2
BITMAP
88
88
88
98
E8
80
80
ENDCHAR
STARTCHAR paragraph
ENCODING 182
SWIDTH 480 0
DWIDTH 6 0
BBX 5 8 0 0
BITMAP
78
E8
E8
E8
68
28
28
28
ENDCHAR
STARTCHAR periodcentered
ENCODING 183
SWIDTH 480 0
DWIDTH 6 0
BBX 2 2 2 3
BITMAP
C0
C0
ENDCHAR
STARTCHAR cedilla
ENCODING 184
SWIDTH 480 0
DWIDTH 6 0
BBX 3 2 1 -2
BITMAP
20
C0
ENDCHAR
STARTCHAR onesuperior
ENCODING 185
SWIDTH 480 0
DWIDTH 6 0
BBX 3 5 1 5
BITMAP
40
C0
40
40
E0
ENDCHAR
STARTCHAR ordmasculine
ENCODING 186
SWIDTH 480 0
DWIDTH 6 0
BBX 3 5 1 5
BITMAP
40
A0
40
00
E0
ENDCHAR
STARTCHAR guillemotright
ENCODING 187
SWIDTH 480 0
DWIDTH 6 0
BBX 5 5 0 0
BITMAP
A0
50
28
50
A0
ENDCHAR
STARTCHAR onequarter
ENCODING 188
SWIDTH 480 0
DWIDTH 6 0
BBX 5 10 0 0
BITMAP
40
C0
48
50
60
50
B0
50
78
10
ENDCHAR
STARTCHAR onehalf
ENCODING 189
SWIDTH 480 0
DWIDTH 6 0
BBX 5 10 0 0
BITMAP
40
C0
48
50
60
50
A8
08
10
38
ENDCHAR
STARTCHAR threequarters
ENCODING 190
SWIDTH 480 0
DWIDTH 6 0
BBX 5 10 0 0
BITMAP
C0
20
48
30
E0
50
B0
50
78
10
ENDCHAR
STARTCHAR questiondown
ENCODING 191
SWIDTH 480 0
DWIDTH 6 0
BBX 5 7 0 0
BITMAP
20
00
20
20
40
88
70
ENDCHAR
STARTCHAR Agrave
ENCODING 192
SWIDTH 480 0
DWIDTH 6 0
BBX 5 10 0 0
BITMAP
40
20
00
70
88
88
F8
88
88
88
ENDCHAR
STARTCHAR Aacute
ENCODING 193
SWIDTH 480 0
DWIDTH 6 0
BBX 5 10 0 0
BITMAP
10
20
00
70
88
88
F8
88
88
88
ENDCHAR
STARTCHAR Acircumflex
ENCODING 194
SWIDTH 480 0
DWIDTH 6 0
BBX 5 10 0 0
BITMAP
20
50
00
70
88
88
F8
88
88
88
ENDCHAR
STARTCHAR Atilde
ENCODING 195
SWIDTH 480 0
DWIDTH 6 0
BBX 5 10 0 0
BITMAP
68
B0
00
70
88
88
F8
88
88
88
ENDCHAR
STARTCHAR Adieresis
ENCODING 196
SWIDTH 480 0
DWIDTH 6 0
BBX 5 9 0 0
BITMAP
50
00
70
88
88
F8
88
88
88
ENDCHAR
STARTCHAR Aring
ENCODING 197
SWIDTH 480 0
DWIDTH 6 0
BBX 5 10 0 0
BITMAP
20
50
20
70
88
88
F8
88
88
88
ENDCHAR
STARTCHAR AE
ENCODING 198
SWIDTH 480 0
DWIDTH 6 0
BBX 5 7 0 0
BITMAP
78
A0
A0
F0
A0
A0
B8
ENDCHAR
STARTCHAR Ccedilla
ENCODING 199
SWIDTH 480 0
DWIDTH 6 0
BBX 5 9 0 -2
BITMAP
70
88
80
80
80
88
70
10
60
ENDCHAR
STARTCHAR Egrave
ENCODING 200
SWIDTH 480 0
DWIDTH 6 0
BBX 5 10 0 0
BITMAP
40
20
00
F8
80
80
F0
80
80
F8
ENDCHAR
STARTCHAR Eacute
ENCODING 201
SWIDTH 480 0
DWIDTH 6 0
BBX 5 10 0 0
BITMAP
10
20
00
F8
80
80
F0
80
80
F8
ENDCHAR
STARTCHAR Ecircumflex
ENCODING 202
SWIDTH 480 0
DWIDTH 6 0
BBX 5 10 0 0
BITMAP
20
50
00
F8
80
80
F0
80
80
F8
ENDCHAR
STARTCHAR Edieresis
ENCODING 203
SWIDTH 480 0
DWIDTH 6 0
BBX 5 9 0 0
BITMAP
50
00
F8
80
80
F0
80
80
F8
ENDCHAR
STARTCHAR Igrave
ENCODING 204
SWIDTH 480 0
DWIDTH 6 0
BBX 3 10 1 0
BITMAP
80
40
00
E0
40
40
40
40
40
E0
ENDCHAR
STARTCHAR Iacute
ENCODING 205
SWIDTH 480 0
DWIDTH 6 0
BBX 3 10 1 0
BITMAP
20
40
00
E0
40
40
40
40
40
E0
ENDCHAR
STARTCHAR Icircumflex
ENCODING 206
SWIDTH 480 0
DWIDTH 6 0
BBX 3 10 1 0
BITMAP
40
A0
00
E0
40
40
40
40
40
E0
ENDCHAR
STARTCHAR Idieresis
ENCODING 207
SWIDTH 480 0
DWIDTH 6 0
BBX 3 9 1 0
BITMAP
A0
00
E0
40
40
40
40
40
E0
ENDCHAR
STARTCHAR Eth
ENCODING 208
SWIDTH 480 0
DWIDTH 6 0
BBX 5 7 0 0
BITMAP
70
48
48
E8
48
48
70
ENDCHAR
STARTCHAR Ntilde
ENCODING 209
SWIDTH 480 0
DWIDTH 6 0
BBX 5 10 0 0
BITMAP
68
B0
00
88
88
C8
A8
98
88
88
ENDCHAR
STARTCHAR Ograve
ENCODING 210
SWIDTH 480 0
DWIDTH 6 0
BBX 5 10 0 0
BITMAP
40
20
00
70
88
88
88
88
88
70
ENDCHAR
STARTCHAR Oacute
ENCODING 211
SWIDTH 480 0
DWIDTH 6 0
BBX 5 10 0 0
BITMAP
10
20
00
70
88
88
88
88
88
70
ENDCHAR
STARTCHAR Ocircumflex
ENCODING 212
SWIDTH 480 0
DWIDTH 6 0
BBX 5 10 0 0
BITMAP
20
50
00
70
88
88
88
88
88
70
ENDCHAR
STARTCHAR Otilde
ENCODING 213
SWIDTH 480 0
DWIDTH 6 0
BBX 5 10 0 0
BITMAP
68
B0
00
70
88
88
88
88
88
70
ENDCHAR
STARTCHAR Odieresis
ENCODING 214
SWIDTH 480 0
DWIDTH 6 0
BBX 5 9 0 0
BITMAP
50
00
70
88
88
88
88
88
70
ENDCHAR
STARTCHAR multiply
ENCODING 215
SWIDTH 480 0
DWIDTH 6 0
BBX 5 5 0 1
BITMAP
88
50
20
50
88
ENDCHAR
STARTCHAR Oslash
ENCODING 216
SWIDTH 480 0
DWIDTH 6 0
BBX 5 9 0 -1
BITMAP
08
70
98
A8
A8
A8
C8
70
80
ENDCHAR
STARTCHAR Ugrave
ENCODING 217
SWIDTH 480 0
DWIDTH 6 0
BBX 5 10 0 0
BITMAP
40
20
00
88
88
88
88
88
88
70
ENDCHAR
STARTCHAR Uacute
ENCODING 218
SWIDTH 480 0
DWIDTH 6 0
BBX 5 10 0 0
BITMAP
10
20
00
88
88
88
88
88
88
70
ENDCHAR
STARTCHAR Ucircumflex
ENCODING 219
SWIDTH 480 0
DWIDTH 6 0
BBX 5 10 0 0
BITMAP
20
50
00
88
88
88
88
88
88
70
ENDCHAR
STARTCHAR Udieresis
ENCODING 220
SWIDTH 480 0
DWIDTH 6 0
BBX 5 9 0 0
BITMAP
50
00
88
88
88
88
88
88
70
ENDCHAR
STARTCHAR Yacute
ENCODING 221
SWIDTH 480 0
DWIDTH 6 0
BBX 5 10 0 0
BITMAP
10
20
00
88
88
50
20
20
20
20
ENDCHAR
STARTCHAR Thorn
ENCODING 222
SWIDTH 480 0
DWIDTH 6 0
BBX 4 7 1 0
BITMAP
80
E0
90
90
90
E0
80
ENDCHAR
STARTCHAR germandbls
ENCODING 223
SWIDTH 480 0
DWIDTH 6 0
BBX 5 7 0 0
BITMAP
70
88
90
A0
90
88
B0
ENDCHAR
STARTCHAR agrave
ENCODING 224
SWIDTH 480 0
DWIDTH 6 0
BBX 5 8 0 0
BITMAP
40
20
00
70
08
78
88
78
ENDCHAR
STARTCHAR aacute
ENCODING 225
SWIDTH 480 0
DWIDTH 6 0
BBX 5 8 0 0
BITMAP
10
20
00
70
08
78
88
78
ENDCHAR
STARTCHAR acircumflex
ENCODING 226
SWIDTH 480 0
DWIDTH 6 0
BBX 5 8 0 0
BITMAP
20
50
00
70
08
78
88
78
ENDCHAR
STARTCHAR atilde
ENCODING 227
SWIDTH 480 0
DWIDTH 6 0
BBX 5 8 0 0
BITMAP
68
B0
00
70
08
78
88
78
ENDCHAR
STARTCHAR adieresis
ENCODING 228
SWIDTH 480 0
DWIDTH 6 0
BBX 5 7 0 0
BITMAP
50
00
70
08
78
88
78
ENDCHAR
STARTCHAR aring
ENCODING 229
SWIDTH 480 0
DWIDTH 6 0
BBX 5 8 0 0
BITMAP
20
50
20
70
08
78
88
78
ENDCHAR
STARTCHAR ae
ENCODING 230
SWIDTH 480 0
DWIDTH 6 0
BBX 5 5 0 0
BITMAP
70
28
70
A0
78
ENDCHAR
STARTCHAR ccedilla
ENCODING 231
SWIDTH 480 0
DWIDTH 6 0
BBX 5 7 0 -2
BITMAP
70
88
80
88
70
10
60
ENDCHAR
STARTCHAR egrave
ENCODING 232
SWIDTH 480 0
DWIDTH 6 0
BBX 5 8 0 0
BITMAP
40
20
00
70
88
F0
80
70
ENDCHAR
STARTCHAR eacute
ENCODING 233
SWIDTH 480 0
DWIDTH 6 0
BBX 5 8 0 0
BITMAP
10
20
00
70
88
F0
80
70
ENDCHAR
STARTCHAR ecircumflex
ENCODING 234
SWIDTH 480 0
DWIDTH 6 0
BBX 5 8 0 0
BITMAP
20
50
00
70
88
F0
80
70
ENDCHAR
STARTCHAR edieresis
ENCODING 235
SWIDTH 480 0
DWIDTH 6 0
BBX 5 7 0 0
BITMAP
50
00
70
88
F0
80
70
ENDCHAR
STARTCHAR igrave
ENCODING 236
SWIDTH 480 0
DWIDTH 6 0
BBX 3 8 1 0
BITMAP
80
40
00
C0
40
40
40
E0
ENDCHAR
STARTCHAR iacute
ENCODING 237
SWIDTH 480 0
DWIDTH 6 0
BBX 3 8 1 0
BITMAP
20
40
00
C0
40
40
40
E0
ENDCHAR
STARTCHAR icircumflex
ENCODING 238
SWIDTH 480 0
DWIDTH 6 0
BBX 3 8 1 0
BITMAP
40
A0
00
C0
40
40
40
E0
ENDCHAR
STARTCHAR idieresis
ENCODING 239
SWIDTH 480 0
DWIDTH 6 0
BBX 3 7 1 0
BITMAP
A0
00
C0
40
40
40
E0
ENDCHAR
STARTCHAR eth
ENCODING 240
SWIDTH 480 0
DWIDTH 6 0
BBX 5 9 0 0
BITMAP
50
20
50
08
78
88
88
88
70
ENDCHAR
STARTCHAR ntilde
ENCODING 241
SWIDTH 480 0
DWIDTH 6 0
BBX 5 8 0 0
BITMAP
68
B0
00
B0
C8
88
88
88
ENDCHAR
STARTCHAR ograve
ENCODING 242
SWIDTH 480 0
DWIDTH 6 0
BBX 5 8 0 0
BITMAP
40
20
00
70
88
88
88
70
ENDCHAR
STARTCHAR oacute
ENCODING 243
SWIDTH 480 0
DWIDTH 6 0
BBX 5 8 0 0
BITMAP
10
20
00
70
88
88
88
70
ENDCHAR
STARTCHAR ocircumflex
ENCODING 244
SWIDTH 480 0
DWIDTH 6 0
BBX 5 8 0 0
BITMAP
20
50
00
70
88
88
88
70
ENDCHAR
STARTCHAR otilde
ENCODING 245
SWIDTH 480 0
DWIDTH 6 0
BBX 5 8 0 0
BITMAP
68
B0
00
70
88
88
88
70
ENDCHAR
STARTCHAR odieresis
ENCODING 246
SWIDTH 480 0
DWIDTH 6 0
BBX 5 7 0 0
BITMAP
50
00
70
88
88
88
70
ENDCHAR
STARTCHAR divide
ENCODING 247
SWIDTH 480 0
DWIDTH 6 0
BBX 5 5 0 1
BITMAP
20
00
F8
00
20
ENDCHAR
STARTCHAR oslash
ENCODING 248
SWIDTH 480 0
DWIDTH 6 0
BBX 5 5 0 0
BITMAP
78
98
A8
C8
F0
ENDCHAR
STARTCHAR ugrave
ENCODING 249
SWIDTH 480 0
DWIDTH 6 0
BBX 5 8 0 0
BITMAP
40
20
00
88
88
88
88
70
ENDCHAR
STARTCHAR uacute
ENCODING 250
SWIDTH 480 0
DWIDTH 6 0
BBX 5 8 0 0
BITMAP
10
20
00
88
88
88
88
70
ENDCHAR
STARTCHAR ucircumflex
ENCODING 251
SWIDTH 480 0
DWIDTH 6 0
BBX 5 8 0 0
BITMAP
20
50
00
88
88
88
88
70
ENDCHAR
STARTCHAR udieresis
ENCODING 252
SWIDTH 480 0
DWIDTH 6 0
BBX 5 7 0 0
BITMAP
50
00
88
88
88
88
70
ENDCHAR
STARTCHAR yacute
ENCODING 253
SWIDTH 480 0
DWIDTH 6 0
BBX 5 10 0 -2
BITMAP
10
20
00
88
88
88
50
20
40
80
ENDCHAR
STARTCHAR thorn
ENCODING 254
SWIDTH 480 0
DWIDTH 6 0
BBX 5 9 0 -2
BITMAP
80
80
F0
88
88
88
F0
80
80
ENDCHAR
STARTCHAR ydieresis
ENCODING 255
SWIDTH 480 0
DWIDTH 6 0
BBX 5 9 0 -2
BITMAP
50
00
88
88
88
50
20
40
80
ENDCHAR
STARTCHAR Amacron
ENCODING 256
SWIDTH 480 0
DWIDTH 6 0
BBX 5 9 0 0
BITMAP
70
00
70
88
88
F8
88
88
88
ENDCHAR
STARTCHAR amacron
ENCODING 257
SWIDTH 480 0
DWIDTH 6 0
BBX 5 7 0 0
BITMAP
70
00
70
08
78
88
78
ENDCHAR
STARTCHAR Abreve
ENCODING 258
SWIDTH 480 0
DWIDTH 6 0
BBX 5 10 0 0
BITMAP
88
70
00
70
88
88
F8
88
88
88
ENDCHAR
STARTCHAR abreve
ENCODING 259
SWIDTH 480 0
DWIDTH 6 0
BBX 5 8 0 0
BITMAP
88
70
00
70
08
78
88
78
ENDCHAR
STARTCHAR Aogonek
ENCODING 260
SWIDTH 480 0
DWIDTH 6 0
BBX 5 9 0 -2
BITMAP
70
88
88
F8
88
88
88
10
08
ENDCHAR
STARTCHAR aogonek
ENCODING 261
SWIDTH 480 0
DWIDTH 6 0
BBX 5 7 0 -2
BITMAP
70
08
78
88
78
20
30
ENDCHAR
STARTCHAR Cacute
ENCODING 262
SWIDTH 480 0
DWIDTH 6 0
BBX 5 10 0 0
BITMAP
10
20
00
70
88
80
80
80
88
70
ENDCHAR
STARTCHAR cacute
ENCODING 263
SWIDTH 480 0
DWIDTH 6 0
BBX 5 8 0 0
BITMAP
10
20
00
70
88
80
88
70
ENDCHAR
STARTCHAR Ccircumflex
ENCODING 264
SWIDTH 480 0
DWIDTH 6 0
BBX 5 10 0 0
BITMAP
20
50
00
70
88
80
80
80
88
70
ENDCHAR
STARTCHAR ccircumflex
ENCODING 265
SWIDTH 480 0
DWIDTH 6 0
BBX 5 8 0 0
BITMAP
20
50
00
70
88
80
88
70
ENDCHAR
STARTCHAR Cdotaccent
ENCODING 266
SWIDTH 480 0
DWIDTH 6 0
BBX 5 9 0 0
BITMAP
20
00
70
88
80
80
80
88
70
ENDCHAR
STARTCHAR cdotaccent
ENCODING 267
SWIDTH 480 0
DWIDTH 6 0
BBX 5 7 0 0
BITMAP
20
00
70
88
80
88
70
ENDCHAR
STARTCHAR Ccaron
ENCODING 268
SWIDTH 480 0
DWIDTH 6 0
BBX 5 10 0 0
BITMAP
50
20
00
70
88
80
80
80
88
70
ENDCHAR
STARTCHAR ccaron
ENCODING 269
SWIDTH 480 0
DWIDTH 6 0
BBX 5 8 0 0
BITMAP
50
20
00
70
88
80
88
70
ENDCHAR
STARTCHAR Dcaron
ENCODING 270
SWIDTH 480 0
DWIDTH 6 0
BBX 5 10 0 0
BITMAP
50
20
00
F0
48
48
48
48
48
F0
ENDCHAR
STARTCHAR dcaron
ENCODING 271
SWIDTH 480 0
DWIDTH 6 0
BBX 6 10 0 0
BITMAP
14
08
00
08
08
78
88
88
88
78
ENDCHAR
STARTCHAR Dcroat
ENCODING 272
SWIDTH 480 0
DWIDTH 6 0
BBX 5 7 0 0
BITMAP
F0
48
48
E8
48
48
F0
ENDCHAR
STARTCHAR dcroat
ENCODING 273
SWIDTH 480 0
DWIDTH 6 0
BBX 6 8 0 0
BITMAP
08
1C
08
78
88
88
88
78
ENDCHAR
STARTCHAR Emacron
ENCODING 274
SWIDTH 480 0
DWIDTH 6 0
BBX 5 9 0 0
BITMAP
70
00
F8
80
80
F0
80
80
F8
ENDCHAR
STARTCHAR emacron
ENCODING 275
SWIDTH 480 0
DWIDTH 6 0
BBX 5 7 0 0
BITMAP
70
00
70
88
F0
80
70
ENDCHAR
STARTCHAR Ebreve
ENCODING 276
SWIDTH 480 0
DWIDTH 6 0
BBX 5 10 0 0
BITMAP
88
70
00
F8
80
80
F0
80
80
F8
ENDCHAR
STARTCHAR ebreve
ENCODING 277
SWIDTH 480 0
DWIDTH 6 0
BBX 5 8 0 0
BITMAP
88
70
00
70
88
F0
80
70
ENDCHAR
STARTCHAR Edotaccent
ENCODING 278
SWIDTH 480 0
DWIDTH 6 0
BBX 5 9 0 0
BITMAP
20
00
F8
80
80
F0
80
80
F8
ENDCHAR
STARTCHAR edotaccent
ENCODING 279
SWIDTH 480 0
DWIDTH 6 0
BBX 5 7 0 0
BITMAP
20
00
70
88
F0
80
70
ENDCHAR
STARTCHAR Eogonek
ENCODING 280
SWIDTH 480 0
DWIDTH 6 0
BBX 5 9 0 -2
BITMAP
F8
80
80
F0
80
80
F8
20
30
ENDCHAR
STARTCHAR eogonek
ENCODING 281
SWIDTH 480 0
DWIDTH 6 0
BBX 5 7 0 -2
BITMAP
70
88
F0
80
70
20
30
ENDCHAR
STARTCHAR Ecaron
ENCODING 282
SWIDTH 480 0
DWIDTH 6 0
BBX 5 10 0 0
BITMAP
50
20
00
F8
80
80
F0
80
80
F8
ENDCHAR
STARTCHAR ecaron
ENCODING 283
SWIDTH 480 0
DWIDTH 6 0
BBX 5 8 0 0
BITMAP
50
20
00
70
88
F0
80
70
ENDCHAR
STARTCHAR Gcircumflex
ENCODING 284
SWIDTH 480 0
DWIDTH 6 0
BBX 5 10 0 0
BITMAP
20
50
00
70
88
80
80
98
88
70
ENDCHAR
STARTCHAR gcircumflex
ENCODING 285
SWIDTH 480 0
DWIDTH 6 0
BBX 5 10 0 -2
BITMAP
20
50
00
70
88
88
88
78
08
70
ENDCHAR
STARTCHAR Gbreve
ENCODING 286
SWIDTH 480 0
DWIDTH 6 0
BBX 5 10 0 0
BITMAP
88
70
00
70
88
80
80
98
88
70
ENDCHAR
STARTCHAR gbreve
ENCODING 287
SWIDTH 480 0
DWIDTH 6 0
BBX 5 10 0 -2
BITMAP
88
70
00
70
88
88
88
78
08
70
ENDCHAR
STARTCHAR Gdotaccent
ENCODING 288
SWIDTH 480 0
DWIDTH 6 0
BBX 5 9 0 0
BITMAP
20
00
70
88
80
80
98
88
70
ENDCHAR
STARTCHAR gdotaccent
ENCODING 289
SWIDTH 480 0
DWIDTH 6 0
BBX 5 9 0 -2
BITMAP
20
00
70
88
88
88
78
08
70
ENDCHAR
STARTCHAR Gcommaaccent
ENCODING 290
SWIDTH 480 0
DWIDTH 6 0
BBX 5 9 0 -2
BITMAP
70
88
80
80
98
88
70
10
60
ENDCHAR
STARTCHAR gcommaaccent
ENCODING 291
SWIDTH 480 0
DWIDTH 6 0
BBX 5 11 0 -2
BITMAP
20
40
60
00
70
88
88
88
78
08
70
ENDCHAR
STARTCHAR Hcircumflex
ENCODING 292
SWIDTH 480 0
DWIDTH 6 0
BBX 5 10 0 0
BITMAP
20
50
00
88
88
88
F8
88
88
88
ENDCHAR
STARTCHAR hcircumflex
ENCODING 293
SWIDTH 480 0
DWIDTH 6 0
BBX 5 10 0 0
BITMAP
20
50
00
80
80
F0
88
88
88
88
ENDCHAR
STARTCHAR Hbar
ENCODING 294
SWIDTH 480 0
DWIDTH 6 0
BBX 6 7 0 0
BITMAP
48
FC
48
78
48
48
48
ENDCHAR
STARTCHAR hbar
ENCODING 295
SWIDTH 480 0
DWIDTH 6 0
BBX 5 7 0 0
BITMAP
40
F0
40
70
48
48
48
ENDCHAR
STARTCHAR Itilde
ENCODING 296
SWIDTH 480 0
DWIDTH 6 0
BBX 4 10 1 0
BITMAP
50
A0
00
E0
40
40
40
40
40
E0
ENDCHAR
STARTCHAR itilde
ENCODING 297
SWIDTH 480 0
DWIDTH 6 0
BBX 4 8 0 0
BITMAP
50
A0
00
60
20
20
20
70
ENDCHAR
STARTCHAR Imacron
ENCODING 298
SWIDTH 480 0
DWIDTH 6 0
BBX 3 9 1 0
BITMAP
E0
00
E0
40
40
40
40
40
E0
ENDCHAR
STARTCHAR imacron
ENCODING 299
SWIDTH 480 0
DWIDTH 6 0
BBX 3 7 1 0
BITMAP
E0
00
C0
40
40
40
E0
ENDCHAR
STARTCHAR Ibreve
ENCODING 300
SWIDTH 480 0
DWIDTH 6 0
BBX 5 10 0 0
BITMAP
88
70
00
70
20
20
20
20
20
70
ENDCHAR
STARTCHAR ibreve
ENCODING 301
SWIDTH 480 0
DWIDTH 6 0
BBX 5 8 0 0
BITMAP
88
70
00
60
20
20
20
70
ENDCHAR
STARTCHAR Iogonek
ENCODING 302
SWIDTH 480 0
DWIDTH 6 0
BBX 3 9 1 -2
BITMAP
E0
40
40
40
40
40
E0
40
60
ENDCHAR
STARTCHAR iogonek
ENCODING 303
SWIDTH 480 0
DWIDTH 6 0
BBX 3 9 1 -2
BITMAP
40
00
C0
40
40
40
E0
40
60
ENDCHAR
STARTCHAR Idotaccent
ENCODING 304
SWIDTH 480 0
DWIDTH 6 0
BBX 3 9 1 0
BITMAP
40
00
E0
40
40
40
40
40
E0
ENDCHAR
STARTCHAR dotlessi
ENCODING 305
SWIDTH 480 0
DWIDTH 6 0
BBX 3 5 1 0
BITMAP
C0
40
40
40
E0
ENDCHAR
STARTCHAR IJ
ENCODING 306
SWIDTH 480 0
DWIDTH 6 0
BBX 5 7 0 0
BITMAP
98
88
88
88
88
A8
90
ENDCHAR
STARTCHAR ij
ENCODING 307
SWIDTH 480 0
DWIDTH 6 0
BBX 5 9 0 -2
BITMAP
88
00
98
88
88
88
88
88
30
ENDCHAR
STARTCHAR Jcircumflex
ENCODING 308
SWIDTH 480 0
DWIDTH 6 0
BBX 5 10 0 0
BITMAP
10
28
00
38
10
10
10
10
90
60
ENDCHAR
STARTCHAR jcircumflex
ENCODING 309
SWIDTH 480 0
DWIDTH 6 0
BBX 5 10 0 -2
BITMAP
10
28
00
30
10
10
10
10
90
60
ENDCHAR
STARTCHAR Kcommaaccent
ENCODING 310
SWIDTH 480 0
DWIDTH 6 0
BBX 5 9 0 -2
BITMAP
88
90
A0
C0
A0
90
88
10
60
ENDCHAR
STARTCHAR kcommaaccent
ENCODING 311
SWIDTH 480 0
DWIDTH 6 0
BBX 5 9 0 -2
BITMAP
80
80
88
90
E0
90
88
10
60
ENDCHAR
STARTCHAR kgreenlandic
ENCODING 312
SWIDTH 480 0
DWIDTH 6 0
BBX 4 5 1 0
BITMAP
90
A0
C0
A0
90
ENDCHAR
STARTCHAR Lacute
ENCODING 313
SWIDTH 480 0
DWIDTH 6 0
BBX 5 10 0 0
BITMAP
10
20
00
80
80
80
80
80
80
F8
ENDCHAR
STARTCHAR lacute
ENCODING 314
SWIDTH 480 0
DWIDTH 6 0
BBX 3 10 1 0
BITMAP
20
40
00
C0
40
40
40
40
40
E0
ENDCHAR
STARTCHAR Lcommaaccent
ENCODING 315
SWIDTH 480 0
DWIDTH 6 0
BBX 5 9 0 -2
BITMAP
80
80
80
80
80
80
F8
10
60
ENDCHAR
STARTCHAR lcommaaccent
ENCODING 316
SWIDTH 480 0
DWIDTH 6 0
BBX 3 9 1 -2
BITMAP
C0
40
40
40
40
40
E0
20
C0
ENDCHAR
STARTCHAR Lcaron
ENCODING 317
SWIDTH 480 0
DWIDTH 6 0
BBX 5 10 0 0
BITMAP
50
20
00
80
80
80
80
80
80
F8
ENDCHAR
STARTCHAR lcaron
ENCODING 318
SWIDTH 480 0
DWIDTH 6 0
BBX 3 10 1 0
BITMAP
A0
40
00
C0
40
40
40
40
40
E0
ENDCHAR
STARTCHAR Ldot
ENCODING 319
SWIDTH 480 0
DWIDTH 6 0
BBX 5 7 0 0
BITMAP
80
80
80
90
80
80
F8
ENDCHAR
STARTCHAR ldot
ENCODING 320
SWIDTH 480 0
DWIDTH 6 0
BBX 4 7 1 0
BITMAP
C0
40
40
50
40
40
E0
ENDCHAR
STARTCHAR Lslash
ENCODING 321
SWIDTH 480 0
DWIDTH 6 0
BBX 5 7 0 0
BITMAP
40
40
60
C0
40
40
78
ENDCHAR
STARTCHAR lslash
ENCODING 322
SWIDTH 480 0
DWIDTH 6 0
BBX 3 7 1 0
BITMAP
C0
40
60
C0
40
40
E0
ENDCHAR
STARTCHAR Nacute
ENCODING 323
SWIDTH 480 0
DWIDTH 6 0
BBX 5 10 0 0
BITMAP
10
20
00
88
88
C8
A8
98
88
88
ENDCHAR
STARTCHAR nacute
ENCODING 324
SWIDTH 480 0
DWIDTH 6 0
BBX 5 8 0 0
BITMAP
10
20
00
B0
C8
88
88
88
ENDCHAR
STARTCHAR Ncommaaccent
ENCODING 325
SWIDTH 480 0
DWIDTH 6 0
BBX 5 9 0 -2
BITMAP
88
88
C8
A8
98
88
88
20
40
ENDCHAR
STARTCHAR ncommaaccent
ENCODING 326
SWIDTH 480 0
DWIDTH 6 0
BBX 5 7 0 -2
BITMAP
B0
C8
88
88
88
20
40
ENDCHAR
STARTCHAR Ncaron
ENCODING 327
SWIDTH 480 0
DWIDTH 6 0
BBX 5 10 0 0
BITMAP
50
20
00
88
88
C8
A8
98
88
88
ENDCHAR
STARTCHAR ncaron
ENCODING 328
SWIDTH 480 0
DWIDTH 6 0
BBX 5 8 0 0
BITMAP
50
20
00
B0
C8
88
88
88
ENDCHAR
STARTCHAR napostrophe
ENCODING 329
SWIDTH 480 0
DWIDTH 6 0
BBX 5 8 0 0
BITMAP
C0
40
80
50
68
48
48
48
ENDCHAR
STARTCHAR Eng
ENCODING 330
SWIDTH 480 0
DWIDTH 6 0
BBX 5 9 0 -2
BITMAP
88
88
C8
A8
98
88
88
08
30
ENDCHAR
STARTCHAR eng
ENCODING 331
SWIDTH 480 0
DWIDTH 6 0
BBX 5 7 0 -2
BITMAP
B0
C8
88
88
88
08
30
ENDCHAR
STARTCHAR Omacron
ENCODING 332
SWIDTH 480 0
DWIDTH 6 0
BBX 5 9 0 0
BITMAP
70
00
70
88
88
88
88
88
70
ENDCHAR
STARTCHAR omacron
ENCODING 333
SWIDTH 480 0
DWIDTH 6 0
BBX 5 7 0 0
BITMAP
70
00
70
88
88
88
70
ENDCHAR
STARTCHAR Obreve
ENCODING 334
SWIDTH 480 0
DWIDTH 6 0
BBX 5 10 0 0
BITMAP
88
70
00
70
88
88
88
88
88
70
ENDCHAR
STARTCHAR obreve
ENCODING 335
SWIDTH 480 0
DWIDTH 6 0
BBX 5 8 0 0
BITMAP
88
70
00
70
88
88
88
70
ENDCHAR
STARTCHAR Ohungarumlaut
ENCODING 336
SWIDTH 480 0
DWIDTH 6 0
BBX 5 10 0 0
BITMAP
48
90
00
70
88
88
88
88
88
70
ENDCHAR
STARTCHAR ohungarumlaut
ENCODING 337
SWIDTH 480 0
DWIDTH 6 0
BBX 5 8 0 0
BITMAP
48
90
00
70
88
88
88
70
ENDCHAR
STARTCHAR OE
ENCODING 338
SWIDTH 480 0
DWIDTH 6 0
BBX 5 7 0 0
BITMAP
78
A0
A0
B0
A0
A0
78
ENDCHAR
STARTCHAR oe
ENCODING 339
SWIDTH 480 0
DWIDTH 6 0
BBX 5 5 0 0
BITMAP
70
A8
B0
A0
78
ENDCHAR
STARTCHAR Racute
ENCODING 340
SWIDTH 480 0
DWIDTH 6 0
BBX 5 10 0 0
BITMAP
10
20
00
F0
88
88
F0
A0
90
88
ENDCHAR
STARTCHAR racute
ENCODING 341
SWIDTH 480 0
DWIDTH 6 0
BBX 5 8 0 0
BITMAP
10
20
00
B0
C8
80
80
80
ENDCHAR
STARTCHAR Rcommaaccent
ENCODING 342
SWIDTH 480 0
DWIDTH 6 0
BBX 5 9 0 -2
BITMAP
F0
88
88
F0
A0
90
88
20
40
ENDCHAR
STARTCHAR rcommaaccent
ENCODING 343
SWIDTH 480 0
DWIDTH 6 0
BBX 5 7 0 -2
BITMAP
B0
C8
80
80
80
20
40
ENDCHAR
STARTCHAR Rcaron
ENCODING 344
SWIDTH 480 0
DWIDTH 6 0
BBX 5 10 0 0
BITMAP
50
20
00
F0
88
88
F0
A0
90
88
ENDCHAR
STARTCHAR rcaron
ENCODING 345
SWIDTH 480 0
DWIDTH 6 0
BBX 5 8 0 0
BITMAP
50
20
00
B0
C8
80
80
80
ENDCHAR
STARTCHAR Sacute
ENCODING 346
SWIDTH 480 0
DWIDTH 6 0
BBX 5 10 0 0
BITMAP
10
20
00
70
88
80
70
08
88
70
ENDCHAR
STARTCHAR sacute
ENCODING 347
SWIDTH 480 0
DWIDTH 6 0
BBX 5 8 0 0
BITMAP
10
20
00
78
80
70
08
F0
ENDCHAR
STARTCHAR Scircumflex
ENCODING 348
SWIDTH 480 0
DWIDTH 6 0
BBX 5 10 0 0
BITMAP
20
50
00
70
88
80
70
08
88
70
ENDCHAR
STARTCHAR scircumflex
ENCODING 349
SWIDTH 480 0
DWIDTH 6 0
BBX 5 8 0 0
BITMAP
20
50
00
78
80
70
08
F0
ENDCHAR
STARTCHAR Scedilla
ENCODING 350
SWIDTH 480 0
DWIDTH 6 0
BBX 5 9 0 -2
BITMAP
70
88
80
70
08
88
70
10
60
ENDCHAR
STARTCHAR scedilla
ENCODING 351
SWIDTH 480 0
DWIDTH 6 0
BBX 5 7 0 -2
BITMAP
78
80
70
08
F0
10
60
ENDCHAR
STARTCHAR Scaron
ENCODING 352
SWIDTH 480 0
DWIDTH 6 0
BBX 5 10 0 0
BITMAP
50
20
00
70
88
80
70
08
88
70
ENDCHAR
STARTCHAR scaron
ENCODING 353
SWIDTH 480 0
DWIDTH 6 0
BBX 5 8 0 0
BITMAP
50
20
00
78
80
70
08
F0
ENDCHAR
STARTCHAR Tcommaaccent
ENCODING 354
SWIDTH 480 0
DWIDTH 6 0
BBX 5 9 0 -2
BITMAP
F8
20
20
20
20
20
20
10
60
ENDCHAR
STARTCHAR tcommaaccent
ENCODING 355
SWIDTH 480 0
DWIDTH 6 0
BBX 5 9 0 -2
BITMAP
20
20
F8
20
20
20
18
08
30
ENDCHAR
STARTCHAR Tcaron
ENCODING 356
SWIDTH 480 0
DWIDTH 6 0
BBX 5 10 0 0
BITMAP
50
20
00
F8
20
20
20
20
20
20
ENDCHAR
STARTCHAR tcaron
ENCODING 357
SWIDTH 480 0
DWIDTH 6 0
BBX 5 10 0 0
BITMAP
50
20
00
20
20
F8
20
20
20
18
ENDCHAR
STARTCHAR Tbar
ENCODING 358
SWIDTH 480 0
DWIDTH 6 0
BBX 5 7 0 0
BITMAP
F8
20
F8
20
20
20
20
ENDCHAR
STARTCHAR tbar
ENCODING 359
SWIDTH 480 0
DWIDTH 6 0
BBX 5 7 0 0
BITMAP
20
F8
20
F8
20
20
18
ENDCHAR
STARTCHAR Utilde
ENCODING 360
SWIDTH 480 0
DWIDTH 6 0
BBX 5 10 0 0
BITMAP
68
B0
00
88
88
88
88
88
88
70
ENDCHAR
STARTCHAR utilde
ENCODING 361
SWIDTH 480 0
DWIDTH 6 0
BBX 5 8 0 0
BITMAP
68
B0
00
88
88
88
88
70
ENDCHAR
STARTCHAR Umacron
ENCODING 362
SWIDTH 480 0
DWIDTH 6 0
BBX 5 9 0 0
BITMAP
70
00
88
88
88
88
88
88
70
ENDCHAR
STARTCHAR umacron
ENCODING 363
SWIDTH 480 0
DWIDTH 6 0
BBX 5 7 0 0
BITMAP
70
00
88
88
88
88
70
ENDCHAR
STARTCHAR Ubreve
ENCODING 364
SWIDTH 480 0
DWIDTH 6 0
BBX 5 10 0 0
BITMAP
88
70
00
88
88
88
88
88
88
70
ENDCHAR
STARTCHAR ubreve
ENCODING 365
SWIDTH 480 0
DWIDTH 6 0
BBX 5 8 0 0
BITMAP
88
70
00
88
88
88
88
70
ENDCHAR
STARTCHAR Uring
ENCODING 366
SWIDTH 480 0
DWIDTH 6 0
BBX 5 10 0 0
BITMAP
20
50
20
88
88
88
88
88
88
70
ENDCHAR
STARTCHAR uring
ENCODING 367
SWIDTH 480 0
DWIDTH 6 0
BBX 5 8 0 0
BITMAP
20
50
20
88
88
88
88
70
ENDCHAR
STARTCHAR Uhungarumlaut
ENCODING 368
SWIDTH 480 0
DWIDTH 6 0
BBX 5 10 0 0
BITMAP
48
90
00
88
88
88
88
88
88
70
ENDCHAR
STARTCHAR uhungarumlaut
ENCODING 369
SWIDTH 480 0
DWIDTH 6 0
BBX 5 8 0 0
BITMAP
48
90
00
88
88
88
88
70
ENDCHAR
STARTCHAR Uogonek
ENCODING 370
SWIDTH 480 0
DWIDTH 6 0
BBX 5 9 0 -2
BITMAP
88
88
88
88
88
88
70
20
30
ENDCHAR
STARTCHAR uogonek
ENCODING 371
SWIDTH 480 0
DWIDTH 6 0
BBX 5 7 0 -2
BITMAP
88
88
88
88
70
20
30
ENDCHAR
STARTCHAR Wcircumflex
ENCODING 372
SWIDTH 480 0
DWIDTH 6 0
BBX 5 10 0 0
BITMAP
20
50
00
88
88
88
88
A8
A8
50
ENDCHAR
STARTCHAR wcircumflex
ENCODING 373
SWIDTH 480 0
DWIDTH 6 0
BBX 5 8 0 0
BITMAP
20
50
00
88
88
A8
A8
50
ENDCHAR
STARTCHAR Ycircumflex
ENCODING 374
SWIDTH 480 0
DWIDTH 6 0
BBX 5 10 0 0
BITMAP
20
50
00
88
88
50
20
20
20
20
ENDCHAR
STARTCHAR ycircumflex
ENCODING 375
SWIDTH 480 0
DWIDTH 6 0
BBX 5 10 0 -2
BITMAP
20
50
00
88
88
88
50
20
40
80
ENDCHAR
STARTCHAR Ydieresis
ENCODING 376
SWIDTH 480 0
DWIDTH 6 0
BBX 5 9 0 0
BITMAP
50
00
88
88
50
20
20
20
20
ENDCHAR
STARTCHAR Zacute
ENCODING 377
SWIDTH 480 0
DWIDTH 6 0
BBX 5 10 0 0
BITMAP
10
20
00
F8
08
10
20
40
80
F8
ENDCHAR
STARTCHAR zacute
ENCODING 378
SWIDTH 480 0
DWIDTH 6 0
BBX 5 8 0 0
BITMAP
10
20
00
F8
10
20
40
F8
ENDCHAR
STARTCHAR Zdotaccent
ENCODING 379
SWIDTH 480 0
DWIDTH 6 0
BBX 5 9 0 0
BITMAP
20
00
F8
08
10
20
40
80
F8
ENDCHAR
STARTCHAR zdotaccent
ENCODING 380
SWIDTH 480 0
DWIDTH 6 0
BBX 5 7 0 0
BITMAP
20
00
F8
10
20
40
F8
ENDCHAR
STARTCHAR Zcaron
ENCODING 381
SWIDTH 480 0
DWIDTH 6 0
BBX 5 10 0 0
BITMAP
50
20
00
F8
08
10
20
40
80
F8
ENDCHAR
STARTCHAR zcaron
ENCODING 382
SWIDTH 480 0
DWIDTH 6 0
BBX 5 8 0 0
BITMAP
50
20
00
F8
10
20
40
F8
ENDCHAR
STARTCHAR longs
ENCODING 383
SWIDTH 480 0
DWIDTH 6 0
BBX 4 7 0 0
BITMAP
30
40
40
C0
40
40
40
ENDCHAR
STARTCHAR uni0180
ENCODING 384
SWIDTH 480 0
DWIDTH 6 0
BBX 5 7 0 0
BITMAP
40
F0
40
70
48
48
70
ENDCHAR
STARTCHAR uni0181
ENCODING 385
SWIDTH 480 0
DWIDTH 6 0
BBX 5 7 0 0
BITMAP
70
A8
28
30
28
28
30
ENDCHAR
STARTCHAR uni0182
ENCODING 386
SWIDTH 480 0
DWIDTH 6 0
BBX 5 7 0 0
BITMAP
F0
40
40
70
48
48
F0
ENDCHAR
STARTCHAR uni0183
ENCODING 387
SWIDTH 480 0
DWIDTH 6 0
BBX 5 7 0 0
BITMAP
F0
80
F0
88
88
88
F0
ENDCHAR
STARTCHAR uni0184
ENCODING 388
SWIDTH 480 0
DWIDTH 6 0
BBX 5 7 0 0
BITMAP
40
C0
C0
70
48
48
70
ENDCHAR
STARTCHAR uni0185
ENCODING 389
SWIDTH 480 0
DWIDTH 6 0
BBX 5 7 0 0
BITMAP
40
C0
70
48
48
48
70
ENDCHAR
STARTCHAR uni0186
ENCODING 390
SWIDTH 480 0
DWIDTH 6 0
BBX 5 7 0 0
BITMAP
70
88
08
08
08
88
70
ENDCHAR
STARTCHAR uni0187
ENCODING 391
SWIDTH 480 0
DWIDTH 6 0
BBX 6 8 0 0
BITMAP
0C
70
88
80
80
80
88
70
ENDCHAR
STARTCHAR uni0188
ENCODING 392
SWIDTH 480 0
DWIDTH 6 0
BBX 5 6 0 0
BITMAP
18
60
90
80
90
60
ENDCHAR
STARTCHAR uni0189
ENCODING 393
SWIDTH 480 0
DWIDTH 6 0
BBX 5 7 0 0
BITMAP
F0
48
48
E8
48
48
F0
ENDCHAR
STARTCHAR uni018A
ENCODING 394
SWIDTH 480 0
DWIDTH 6 0
BBX 5 7 0 0
BITMAP
70
A8
28
28
28
28
30
ENDCHAR
STARTCHAR uni018B
ENCODING 395
SWIDTH 480 0
DWIDTH 6 0
BBX 5 7 0 0
BITMAP
78
08
08
78
88
88
78
ENDCHAR
STARTCHAR uni018C
ENCODING 396
SWIDTH 480 0
DWIDTH 6 0
BBX 5 7 0 0
BITMAP
78
08
78
88
88
88
78
ENDCHAR
STARTCHAR uni018D
ENCODING 397
SWIDTH 480 0
DWIDTH 6 0
BBX 5 7 0 -2
BITMAP
70
88
88
70
08
88
70
ENDCHAR
STARTCHAR uni018E
ENCODING 398
SWIDTH 480 0
DWIDTH 6 0
BBX 5 7 0 0
BITMAP
F8
08
08
78
08
08
F8
ENDCHAR
STARTCHAR uni018F
ENCODING 399
SWIDTH 480 0
DWIDTH 6 0
BBX 5 7 0 0
BITMAP
70
88
08
F8
88
88
70
ENDCHAR
STARTCHAR uni0190
ENCODING 400
SWIDTH 480 0
DWIDTH 6 0
BBX 5 7 0 0
BITMAP
70
88
80
70
80
88
70
ENDCHAR
STARTCHAR uni0191
ENCODING 401
SWIDTH 480 0
DWIDTH 6 0
BBX 5 8 0 -1
BITMAP
78
40
40
70
40
40
40
80
ENDCHAR
STARTCHAR florin
ENCODING 402
SWIDTH 480 0
DWIDTH 6 0
BBX 5 8 0 -1
BITMAP
10
28
20
70
20
20
A0
40
ENDCHAR
STARTCHAR uni0193
ENCODING 403
SWIDTH 480 0
DWIDTH 6 0
BBX 6 8 0 0
BITMAP
0C
70
88
80
80
98
88
70
ENDCHAR
STARTCHAR uni0194
ENCODING 404
SWIDTH 480 0
DWIDTH 6 0
BBX 5 7 0 0
BITMAP
88
88
50
50
20
50
20
ENDCHAR
STARTCHAR uni0195
ENCODING 405
SWIDTH 480 0
DWIDTH 6 0
BBX 5 7 0 0
BITMAP
80
80
C8
A8
A8
A8
90
ENDCHAR
STARTCHAR uni0196
ENCODING 406
SWIDTH 480 0
DWIDTH 6 0
BBX 3 7 1 0
BITMAP
C0
40
40
40
40
40
20
ENDCHAR
STARTCHAR uni0197
ENCODING 407
SWIDTH 480 0
DWIDTH 6 0
BBX 3 7 1 0
BITMAP
E0
40
40
E0
40
40
E0
ENDCHAR
STARTCHAR uni0198
ENCODING 408
SWIDTH 480 0
DWIDTH 6 0
BBX 5 7 0 0
BITMAP
98
A0
C0
C0
A0
90
88
ENDCHAR
STARTCHAR uni0199
ENCODING 409
SWIDTH 480 0
DWIDTH 6 0
BBX 5 8 0 0
BITMAP
40
A0
80
88
90
E0
90
88
ENDCHAR
STARTCHAR uni019A
ENCODING 410
SWIDTH 480 0
DWIDTH 6 0
BBX 3 7 1 0
BITMAP
C0
40
40
E0
40
40
E0
ENDCHAR
STARTCHAR uni019B
ENCODING 411
SWIDTH 480 0
DWIDTH 6 0
BBX 3 7 1 0
BITMAP
A0
40
C0
40
A0
A0
A0
ENDCHAR
STARTCHAR uni019C
ENCODING 412
SWIDTH 480 0
DWIDTH 6 0
BBX 5 7 0 0
BITMAP
A8
A8
A8
A8
A8
A8
58
ENDCHAR
STARTCHAR uni019D
ENCODING 413
SWIDTH 480 0
DWIDTH 6 0
BBX 5 8 0 -1
BITMAP
48
48
48
68
58
48
48
80
ENDCHAR
STARTCHAR uni019E
ENCODING 414
SWIDTH 480 0
DWIDTH 6 0
BBX 5 7 0 -2
BITMAP
B0
C8
88
88
88
08
08
ENDCHAR
STARTCHAR uni019F
ENCODING 415
SWIDTH 480 0
DWIDTH 6 0
BBX 5 7 0 0
BITMAP
70
88
88
F8
88
88
70
ENDCHAR
STARTCHAR Ohorn
ENCODING 416
SWIDTH 480 0
DWIDTH 6 0
BBX 5 8 0 0
BITMAP
08
68
90
90
90
90
90
60
ENDCHAR
STARTCHAR ohorn
ENCODING 417
SWIDTH 480 0
DWIDTH 6 0
BBX 5 7 0 0
BITMAP
08
08
70
88
88
88
70
ENDCHAR
STARTCHAR uni01A2
ENCODING 418
SWIDTH 480 0
DWIDTH 6 0
BBX 5 7 0 0
BITMAP
40
B0
A8
A8
A8
A8
48
ENDCHAR
STARTCHAR uni01A3
ENCODING 419
SWIDTH 480 0
DWIDTH 6 0
BBX 5 5 0 0
BITMAP
50
A8
A8
A8
48
ENDCHAR
STARTCHAR uni01A4
ENCODING 420
SWIDTH 480 0
DWIDTH 6 0
BBX 5 7 0 0
BITMAP
F0
48
48
70
40
40
40
ENDCHAR
STARTCHAR uni01A5
ENCODING 421
SWIDTH 480 0
DWIDTH 6 0
BBX 5 9 0 -2
BITMAP
40
80
F0
88
88
88
F0
80
80
ENDCHAR
STARTCHAR uni01A6
ENCODING 422
SWIDTH 480 0
DWIDTH 6 0
BBX 5 8 0 -1
BITMAP
80
F0
88
88
F0
A0
90
08
ENDCHAR
STARTCHAR uni01A7
ENCODING 423
SWIDTH 480 0
DWIDTH 6 0
BBX 5 7 0 0
BITMAP
70
88
08
70
80
88
70
ENDCHAR
STARTCHAR uni01A8
ENCODING 424
SWIDTH 480 0
DWIDTH 6 0
BBX 5 5 0 0
BITMAP
F0
08
70
80
78
ENDCHAR
STARTCHAR uni01A9
ENCODING 425
SWIDTH 480 0
DWIDTH 6 0
BBX 5 7 0 0
BITMAP
F8
40
20
10
20
40
F8
ENDCHAR
STARTCHAR uni01AA
ENCODING 426
SWIDTH 480 0
DWIDTH 6 0
BBX 5 8 0 -1
BITMAP
40
A0
70
20
20
20
28
10
ENDCHAR
STARTCHAR uni01AB
ENCODING 427
SWIDTH 480 0
DWIDTH 6 0
BBX 5 9 0 -2
BITMAP
20
20
F8
20
20
20
18
08
30
ENDCHAR
STARTCHAR uni01AC
ENCODING 428
SWIDTH 480 0
DWIDTH 6 0
BBX 5 7 0 0
BITMAP
78
A0
A0
20
20
20
20
ENDCHAR
STARTCHAR uni01AD
ENCODING 429
SWIDTH 480 0
DWIDTH 6 0
BBX 5 8 0 0
BITMAP
18
20
20
F8
20
20
20
18
ENDCHAR
STARTCHAR uni01AE
ENCODING 430
SWIDTH 480 0
DWIDTH 6 0
BBX 5 8 0 -1
BITMAP
F8
20
20
20
20
20
20
18
ENDCHAR
STARTCHAR Uhorn
ENCODING 431
SWIDTH 480 0
DWIDTH 6 0
BBX 5 8 0 0
BITMAP
08
98
90
90
90
90
90
60
ENDCHAR
STARTCHAR uhorn
ENCODING 432
SWIDTH 480 0
DWIDTH 6 0
BBX 5 6 0 0
BITMAP
08
98
90
90
B0
50
ENDCHAR
STARTCHAR uni01B1
ENCODING 433
SWIDTH 480 0
DWIDTH 6 0
BBX 5 7 0 0
BITMAP
50
88
88
88
88
88
70
ENDCHAR
STARTCHAR uni01B2
ENCODING 434
SWIDTH 480 0
DWIDTH 6 0
BBX 5 7 0 0
BITMAP
90
90
88
88
88
88
70
ENDCHAR
STARTCHAR uni01B3
ENCODING 435
SWIDTH 480 0
DWIDTH 6 0
BBX 5 7 0 0
BITMAP
88
48
50
20
20
20
20
ENDCHAR
STARTCHAR uni01B4
ENCODING 436
SWIDTH 480 0
DWIDTH 6 0
BBX 5 8 0 -2
BITMAP
10
A8
A0
A0
A0
60
40
80
ENDCHAR
STARTCHAR uni01B5
ENCODING 437
SWIDTH 480 0
DWIDTH 6 0
BBX 5 7 0 0
BITMAP
F8
08
10
F8
40
80
F8
ENDCHAR
STARTCHAR uni01B6
ENCODING 438
SWIDTH 480 0
DWIDTH 6 0
BBX 5 5 0 0
BITMAP
F8
10
F8
40
F8
ENDCHAR
STARTCHAR uni01B7
ENCODING 439
SWIDTH 480 0
DWIDTH 6 0
BBX 5 7 0 0
BITMAP
F8
10
20
70
08
88
70
ENDCHAR
STARTCHAR uni01B8
ENCODING 440
SWIDTH 480 0
DWIDTH 6 0
BBX 5 7 0 0
BITMAP
F8
40
20
70
80
88
70
ENDCHAR
STARTCHAR uni01B9
ENCODING 441
SWIDTH 480 0
DWIDTH 6 0
BBX 5 7 0 -2
BITMAP
F8
40
20
70
80
88
70
ENDCHAR
STARTCHAR uni01BA
ENCODING 442
SWIDTH 480 0
DWIDTH 6 0
BBX 5 7 0 -2
BITMAP
F8
10
30
08
70
88
70
ENDCHAR
STARTCHAR uni01BB
ENCODING 443
SWIDTH 480 0
DWIDTH 6 0
BBX 5 7 0 0
BITMAP
70
88
10
78
20
40
F8
ENDCHAR
STARTCHAR uni01BC
ENCODING 444
SWIDTH 480 0
DWIDTH 6 0
BBX 5 7 0 0
BITMAP
F8
88
E0
10
08
08
F0
ENDCHAR
STARTCHAR uni01BD
ENCODING 445
SWIDTH 480 0
DWIDTH 6 0
BBX 4 5 1 0
BITMAP
F0
80
E0
10
E0
ENDCHAR
STARTCHAR uni01BE
ENCODING 446
SWIDTH 480 0
DWIDTH 6 0
BBX 5 7 0 0
BITMAP
20
70
20
30
08
88
70
ENDCHAR
STARTCHAR uni01BF
ENCODING 447
SWIDTH 480 0
DWIDTH 6 0
BBX 5 7 0 -2
BITMAP
B0
C8
90
A0
C0
80
80
ENDCHAR
STARTCHAR uni01C0
ENCODING 448
SWIDTH 480 0
DWIDTH 6 0
BBX 1 7 2 0
BITMAP
80
80
80
80
80
80
80
ENDCHAR
STARTCHAR uni01C1
ENCODING 449
SWIDTH 480 0
DWIDTH 6 0
BBX 3 7 1 0
BITMAP
A0
A0
A0
A0
A0
A0
A0
ENDCHAR
STARTCHAR uni01C2
ENCODING 450
SWIDTH 480 0
DWIDTH 6 0
BBX 3 7 1 0
BITMAP
40
40
E0
40
E0
40
40
ENDCHAR
STARTCHAR uni01C3
ENCODING 451
SWIDTH 480 0
DWIDTH 6 0
BBX 3 7 1 0
BITMAP
E0
E0
E0
40
40
00
40
ENDCHAR
STARTCHAR uni01C4
ENCODING 452
SWIDTH 480 0
DWIDTH 6 0
BBX 5 10 0 0
BITMAP
28
10
00
D8
A8
A8
B0
B0
B0
D8
ENDCHAR
STARTCHAR uni01C5
ENCODING 453
SWIDTH 480 0
DWIDTH 6 0
BBX 5 9 0 0
BITMAP
28
10
C0
A0
B8
A8
B0
B0
D8
ENDCHAR
STARTCHAR uni01C6
ENCODING 454
SWIDTH 480 0
DWIDTH 6 0
BBX 5 10 0 0
BITMAP
28
10
00
20
20
78
A8
B0
B0
78
ENDCHAR
STARTCHAR uni01C7
ENCODING 455
SWIDTH 480 0
DWIDTH 6 0
BBX 5 7 0 0
BITMAP
88
88
88
88
88
A8
D0
ENDCHAR
STARTCHAR uni01C8
ENCODING 456
SWIDTH 480 0
DWIDTH 6 0
BBX 5 9 0 -2
BITMAP
88
80
98
88
88
88
E8
08
30
ENDCHAR
STARTCHAR uni01C9
ENCODING 457
SWIDTH 480 0
DWIDTH 6 0
BBX 5 9 0 -2
BITMAP
C8
40
58
48
48
48
E8
08
30
ENDCHAR
STARTCHAR uni01CA
ENCODING 458
SWIDTH 480 0
DWIDTH 6 0
BBX 5 7 0 0
BITMAP
E8
A8
A8
A8
A8
88
B0
ENDCHAR
STARTCHAR uni01CB
ENCODING 459
SWIDTH 480 0
DWIDTH 6 0
BBX 5 9 0 -2
BITMAP
E8
A0
A8
A8
A8
A8
88
28
10
ENDCHAR
STARTCHAR uni01CC
ENCODING 460
SWIDTH 480 0
DWIDTH 6 0
BBX 5 9 0 -2
BITMAP
08
00
58
A8
A8
A8
A8
08
30
ENDCHAR
STARTCHAR uni01CD
ENCODING 461
SWIDTH 480 0
DWIDTH 6 0
BBX 5 10 0 0
BITMAP
50
20
00
70
88
88
F8
88
88
88
ENDCHAR
STARTCHAR uni01CE
ENCODING 462
SWIDTH 480 0
DWIDTH 6 0
BBX 5 8 0 0
BITMAP
50
20
00
70
08
78
88
78
ENDCHAR
STARTCHAR uni01CF
ENCODING 463
SWIDTH 480 0
DWIDTH 6 0
BBX 3 10 1 0
BITMAP
A0
40
00
E0
40
40
40
40
40
E0
ENDCHAR
STARTCHAR uni01D0
ENCODING 464
SWIDTH 480 0
DWIDTH 6 0
BBX 3 8 1 0
BITMAP
A0
40
00
C0
40
40
40
E0
ENDCHAR
STARTCHAR uni01D1
ENCODING 465
SWIDTH 480 0
DWIDTH 6 0
BBX 5 10 0 0
BITMAP
50
20
00
70
88
88
88
88
88
70
ENDCHAR
STARTCHAR uni01D2
ENCODING 466
SWIDTH 480 0
DWIDTH 6 0
BBX 5 8 0 0
BITMAP
50
20
00
70
88
88
88
70
ENDCHAR
STARTCHAR uni01D3
ENCODING 467
SWIDTH 480 0
DWIDTH 6 0
BBX 5 10 0 0
BITMAP
50
20
00
88
88
88
88
88
88
70
ENDCHAR
STARTCHAR uni01D4
ENCODING 468
SWIDTH 480 0
DWIDTH 6 0
BBX 5 8 0 0
BITMAP
50
20
00
88
88
88
88
70
ENDCHAR
STARTCHAR uni01D5
ENCODING 469
SWIDTH 480 0
DWIDTH 6 0
BBX 5 10 0 0
BITMAP
70
00
50
00
88
88
88
88
88
70
ENDCHAR
STARTCHAR uni01D6
ENCODING 470
SWIDTH 480 0
DWIDTH 6 0
BBX 5 9 0 0
BITMAP
70
00
50
00
88
88
88
88
70
ENDCHAR
STARTCHAR uni01D7
ENCODING 471
SWIDTH 480 0
DWIDTH 6 0
BBX 5 10 0 0
BITMAP
10
20
50
00
88
88
88
88
88
70
ENDCHAR
STARTCHAR uni01D8
ENCODING 472
SWIDTH 480 0
DWIDTH 6 0
BBX 5 10 0 0
BITMAP
10
20
00
50
00
88
88
88
88
70
ENDCHAR
STARTCHAR uni01D9
ENCODING 473
SWIDTH 480 0
DWIDTH 6 0
BBX 5 10 0 0
BITMAP
50
20
50
00
88
88
88
88
88
70
ENDCHAR
STARTCHAR uni01DA
ENCODING 474
SWIDTH 480 0
DWIDTH 6 0
BBX 5 10 0 0
BITMAP
50
20
00
50
00
88
88
88
88
70
ENDCHAR
STARTCHAR uni01DB
ENCODING 475
SWIDTH 480 0
DWIDTH 6 0
BBX 5 10 0 0
BITMAP
40
20
50
00
88
88
88
88
88
70
ENDCHAR
STARTCHAR uni01DC
ENCODING 476
SWIDTH 480 0
DWIDTH 6 0
BBX 5 10 0 0
BITMAP
40
20
00
50
00
88
88
88
88
70
ENDCHAR
STARTCHAR uni01DD
ENCODING 477
SWIDTH 480 0
DWIDTH 6 0
BBX 5 5 0 0
BITMAP
70
08
78
88
70
ENDCHAR
STARTCHAR uni01DE
ENCODING 478
SWIDTH 480 0
DWIDTH 6 0
BBX 5 10 0 0
BITMAP
70
00
50
00
70
88
88
F8
88
88
ENDCHAR
STARTCHAR uni01DF
ENCODING 479
SWIDTH 480 0
DWIDTH 6 0
BBX 5 9 0 0
BITMAP
70
00
50
00
70
08
78
88
78
ENDCHAR
STARTCHAR uni01E0
ENCODING 480
SWIDTH 480 0
DWIDTH 6 0
BBX 5 10 0 0
BITMAP
70
00
20
00
70
88
88
F8
88
88
ENDCHAR
STARTCHAR uni01E1
ENCODING 481
SWIDTH 480 0
DWIDTH 6 0
BBX 5 9 0 0
BITMAP
70
00
20
00
70
08
78
88
78
ENDCHAR
STARTCHAR uni01E2
ENCODING 482
SWIDTH 480 0
DWIDTH 6 0
BBX 5 9 0 0
BITMAP
78
00
78
A0
A0
F0
A0
A0
B8
ENDCHAR
STARTCHAR uni01E3
ENCODING 483
SWIDTH 480 0
DWIDTH 6 0
BBX 5 7 0 0
BITMAP
70
00
70
28
70
A0
78
ENDCHAR
STARTCHAR uni01E4
ENCODING 484
SWIDTH 480 0
DWIDTH 6 0
BBX 5 7 0 0
BITMAP
70
88
80
98
98
88
70
ENDCHAR
STARTCHAR uni01E5
ENCODING 485
SWIDTH 480 0
DWIDTH 6 0
BBX 5 7 0 -2
BITMAP
70
88
88
88
78
F8
70
ENDCHAR
STARTCHAR Gcaron
ENCODING 486
SWIDTH 480 0
DWIDTH 6 0
BBX 5 10 0 0
BITMAP
50
20
00
70
88
80
80
98
88
70
ENDCHAR
STARTCHAR gcaron
ENCODING 487
SWIDTH 480 0
DWIDTH 6 0
BBX 5 10 0 -2
BITMAP
50
20
00
70
88
88
88
78
08
70
ENDCHAR
STARTCHAR uni01E8
ENCODING 488
SWIDTH 480 0
DWIDTH 6 0
BBX 5 10 0 0
BITMAP
50
20
00
88
90
A0
C0
A0
90
88
ENDCHAR
STARTCHAR uni01E9
ENCODING 489
SWIDTH 480 0
DWIDTH 6 0
BBX 5 9 0 0
BITMAP
50
20
80
80
88
90
E0
90
88
ENDCHAR
STARTCHAR uni01EA
ENCODING 490
SWIDTH 480 0
DWIDTH 6 0
BBX 5 9 0 -2
BITMAP
70
88
88
88
88
88
70
40
30
ENDCHAR
STARTCHAR uni01EB
ENCODING 491
SWIDTH 480 0
DWIDTH 6 0
BBX 5 7 0 -2
BITMAP
70
88
88
88
70
40
30
ENDCHAR
STARTCHAR uni01EC
ENCODING 492
SWIDTH 480 0
DWIDTH 6 0
BBX 5 11 0 -2
BITMAP
70
00
70
88
88
88
88
88
70
40
30
ENDCHAR
STARTCHAR uni01ED
ENCODING 493
SWIDTH 480 0
DWIDTH 6 0
BBX 5 9 0 -2
BITMAP
70
00
70
88
88
88
70
40
30
ENDCHAR
STARTCHAR uni01EE
ENCODING 494
SWIDTH 480 0
DWIDTH 6 0
BBX 5 10 0 0
BITMAP
50
20
00
F8
10
20
70
08
88
70
ENDCHAR
STARTCHAR uni01EF
ENCODING 495
SWIDTH 480 0
DWIDTH 6 0
BBX 5 10 0 -2
BITMAP
50
20
00
F8
10
20
70
08
88
70
ENDCHAR
STARTCHAR uni01F0
ENCODING 496
SWIDTH 480 0
DWIDTH 6 0
BBX 5 10 0 -2
BITMAP
28
10
00
30
10
10
10
10
90
60
ENDCHAR
STARTCHAR uni01F1
ENCODING 497
SWIDTH 480 0
DWIDTH 6 0
BBX 6 7 0 0
BITMAP
CC
A4
A4
A8
A8
A8
CC
ENDCHAR
STARTCHAR uni01F2
ENCODING 498
SWIDTH 480 0
DWIDTH 6 0
BBX 6 7 0 0
BITMAP
C0
A0
AC
A4
A8
A8
CC
ENDCHAR
STARTCHAR uni01F3
ENCODING 499
SWIDTH 480 0
DWIDTH 6 0
BBX 6 7 0 0
BITMAP
20
20
6C
A4
A4
A8
6C
ENDCHAR
STARTCHAR uni01F4
ENCODING 500
SWIDTH 480 0
DWIDTH 6 0
BBX 5 10 0 0
BITMAP
10
20
00
70
88
80
80
98
88
70
ENDCHAR
STARTCHAR uni01F5
ENCODING 501
SWIDTH 480 0
DWIDTH 6 0
BBX 5 10 0 -2
BITMAP
10
20
00
70
88
88
88
78
08
70
ENDCHAR
STARTCHAR uni01F6
ENCODING 502
SWIDTH 480 0
DWIDTH 6 0
BBX 5 7 0 0
BITMAP
A0
A0
E8
A8
A8
A8
90
ENDCHAR
STARTCHAR uni01F7
ENCODING 503
SWIDTH 480 0
DWIDTH 6 0
BBX 5 7 0 0
BITMAP
B0
C8
88
90
A0
C0
80
ENDCHAR
STARTCHAR uni01F8
ENCODING 504
SWIDTH 480 0
DWIDTH 6 0
BBX 5 10 0 0
BITMAP
40
20
00
88
88
C8
A8
98
88
88
ENDCHAR
STARTCHAR uni01F9
ENCODING 505
SWIDTH 480 0
DWIDTH 6 0
BBX 5 8 0 0
BITMAP
40
20
00
B0
C8
88
88
88
ENDCHAR
STARTCHAR Aringacute
ENCODING 506
SWIDTH 480 0
DWIDTH 6 0
BBX 5 10 0 0
BITMAP
10
20
20
50
20
70
88
F8
88
88
ENDCHAR
STARTCHAR aringacute
ENCODING 507
SWIDTH 480 0
DWIDTH 6 0
BBX 5 10 0 0
BITMAP
10
20
20
50
20
70
08
78
88
78
ENDCHAR
STARTCHAR AEacute
ENCODING 508
SWIDTH 480 0
DWIDTH 6 0
BBX 5 10 0 0
BITMAP
10
20
00
78
A0
A0
F0
A0
A0
B8
ENDCHAR
STARTCHAR aeacute
ENCODING 509
SWIDTH 480 0
DWIDTH 6 0
BBX 5 8 0 0
BITMAP
10
20
00
70
28
70
A0
78
ENDCHAR
STARTCHAR Oslashacute
ENCODING 510
SWIDTH 480 0
DWIDTH 6 0
BBX 5 11 0 -1
BITMAP
10
20
08
70
98
A8
A8
A8
C8
70
80
ENDCHAR
STARTCHAR oslashacute
ENCODING 511
SWIDTH 480 0
DWIDTH 6 0
BBX 5 8 0 0
BITMAP
10
20
00
78
98
A8
C8
F0
ENDCHAR
STARTCHAR uni0200
ENCODING 512
SWIDTH 480 0
DWIDTH 6 0
BBX 5 10 0 0
BITMAP
90
48
00
70
88
88
F8
88
88
88
ENDCHAR
STARTCHAR uni0201
ENCODING 513
SWIDTH 480 0
DWIDTH 6 0
BBX 5 8 0 0
BITMAP
90
48
00
70
08
78
88
78
ENDCHAR
STARTCHAR uni0202
ENCODING 514
SWIDTH 480 0
DWIDTH 6 0
BBX 5 10 0 0
BITMAP
70
88
00
70
88
88
F8
88
88
88
ENDCHAR
STARTCHAR uni0203
ENCODING 515
SWIDTH 480 0
DWIDTH 6 0
BBX 5 8 0 0
BITMAP
70
88
00
70
08
78
88
78
ENDCHAR
STARTCHAR uni0204
ENCODING 516
SWIDTH 480 0
DWIDTH 6 0
BBX 5 10 0 0
BITMAP
90
48
00
F8
80
80
F0
80
80
F8
ENDCHAR
STARTCHAR uni0205
ENCODING 517
SWIDTH 480 0
DWIDTH 6 0
BBX 5 8 0 0
BITMAP
90
48
00
70
88
F0
80
70
ENDCHAR
STARTCHAR uni0206
ENCODING 518
SWIDTH 480 0
DWIDTH 6 0
BBX 5 10 0 0
BITMAP
90
48
00
F8
80
80
F0
80
80
F8
ENDCHAR
STARTCHAR uni0207
ENCODING 519
SWIDTH 480 0
DWIDTH 6 0
BBX 5 8 0 0
BITMAP
70
88
00
70
88
F0
80
70
ENDCHAR
STARTCHAR uni0208
ENCODING 520
SWIDTH 480 0
DWIDTH 6 0
BBX 5 10 0 0
BITMAP
90
48
00
70
20
20
20
20
20
70
ENDCHAR
STARTCHAR uni0209
ENCODING 521
SWIDTH 480 0
DWIDTH 6 0
BBX 5 8 0 0
BITMAP
90
48
00
60
20
20
20
70
ENDCHAR
STARTCHAR uni020A
ENCODING 522
SWIDTH 480 0
DWIDTH 6 0
BBX 5 10 0 0
BITMAP
70
88
00
70
20
20
20
20
20
70
ENDCHAR
STARTCHAR uni020B
ENCODING 523
SWIDTH 480 0
DWIDTH 6 0
BBX 5 8 0 0
BITMAP
70
88
00
60
20
20
20
70
ENDCHAR
STARTCHAR uni020C
ENCODING 524
SWIDTH 480 0
DWIDTH 6 0
BBX 5 10 0 0
BITMAP
90
48
00
70
88
88
88
88
88
70
ENDCHAR
STARTCHAR uni020D
ENCODING 525
SWIDTH 480 0
DWIDTH 6 0
BBX 5 8 0 0
BITMAP
90
48
00
70
88
88
88
70
ENDCHAR
STARTCHAR uni020E
ENCODING 526
SWIDTH 480 0
DWIDTH 6 0
BBX 5 10 0 0
BITMAP
70
88
00
70
88
88
88
88
88
70
ENDCHAR
STARTCHAR uni020F
ENCODING 527
SWIDTH 480 0
DWIDTH 6 0
BBX 5 8 0 0
BITMAP
70
88
00
70
88
88
88
70
ENDCHAR
STARTCHAR uni0210
ENCODING 528
SWIDTH 480 0
DWIDTH 6 0
BBX 5 10 0 0
BITMAP
90
48
00
F0
88
88
F0
A0
90
88
ENDCHAR
STARTCHAR uni0211
ENCODING 529
SWIDTH 480 0
DWIDTH 6 0
BBX 5 8 0 0
BITMAP
90
48
00
B0
C8
80
80
80
ENDCHAR
STARTCHAR uni0212
ENCODING 530
SWIDTH 480 0
DWIDTH 6 0
BBX 5 10 0 0
BITMAP
70
88
00
F0
88
88
F0
A0
90
88
ENDCHAR
STARTCHAR uni0213
ENCODING 531
SWIDTH 480 0
DWIDTH 6 0
BBX 5 8 0 0
BITMAP
70
88
00
B0
C8
80
80
80
ENDCHAR
STARTCHAR uni0214
ENCODING 532
SWIDTH 480 0
DWIDTH 6 0
BBX 5 10 0 0
BITMAP
90
48
00
88
88
88
88
88
88
70
ENDCHAR
STARTCHAR uni0215
ENCODING 533
SWIDTH 480 0
DWIDTH 6 0
BBX 5 8 0 0
BITMAP
90
48
00
88
88
88
88
70
ENDCHAR
STARTCHAR uni0216
ENCODING 534
SWIDTH 480 0
DWIDTH 6 0
BBX 5 10 0 0
BITMAP
70
88
00
88
88
88
88
88
88
70
ENDCHAR
STARTCHAR uni0217
ENCODING 535
SWIDTH 480 0
DWIDTH 6 0
BBX 5 8 0 0
BITMAP
70
88
00
88
88
88
88
70
ENDCHAR
STARTCHAR Scommaaccent
ENCODING 536
SWIDTH 480 0
DWIDTH 6 0
BBX 5 9 0 -2
BITMAP
70
88
80
70
08
88
70
10
20
ENDCHAR
STARTCHAR scommaaccent
ENCODING 537
SWIDTH 480 0
DWIDTH 6 0
BBX 5 7 0 -2
BITMAP
78
80
70
08
F0
10
20
ENDCHAR
STARTCHAR Tcommaaccent
ENCODING 538
SWIDTH 480 0
DWIDTH 6 0
BBX 5 9 0 -2
BITMAP
F8
20
20
20
20
20
20
10
20
ENDCHAR
STARTCHAR tcommaaccent
ENCODING 539
SWIDTH 480 0
DWIDTH 6 0
BBX 5 9 0 -2
BITMAP
20
20
F8
20
20
20
18
10
20
ENDCHAR
STARTCHAR uni021C
ENCODING 540
SWIDTH 480 0
DWIDTH 6 0
BBX 5 7 0 0
BITMAP
70
88
10
28
08
08
F0
ENDCHAR
STARTCHAR uni021D
ENCODING 541
SWIDTH 480 0
DWIDTH 6 0
BBX 5 7 0 -2
BITMAP
70
88
10
28
08
08
F0
ENDCHAR
STARTCHAR uni021E
ENCODING 542
SWIDTH 480 0
DWIDTH 6 0
BBX 5 10 0 0
BITMAP
50
20
00
88
88
88
F8
88
88
88
ENDCHAR
STARTCHAR uni021F
ENCODING 543
SWIDTH 480 0
DWIDTH 6 0
BBX 5 9 0 0
BITMAP
50
20
80
80
F0
88
88
88
88
ENDCHAR
STARTCHAR uni0220
ENCODING 544
SWIDTH 480 0
DWIDTH 6 0
BBX 5 8 0 -1
BITMAP
B0
C8
88
88
88
88
88
08
ENDCHAR
STARTCHAR uni0221
ENCODING 545
SWIDTH 480 0
DWIDTH 6 0
BBX 6 8 0 -1
BITMAP
10
10
70
90
98
94
78
20
ENDCHAR
STARTCHAR uni0222
ENCODING 546
SWIDTH 480 0
DWIDTH 6 0
BBX 5 7 0 0
BITMAP
50
88
88
70
88
88
70
ENDCHAR
STARTCHAR uni0223
ENCODING 547
SWIDTH 480 0
DWIDTH 6 0
BBX 5 6 0 0
BITMAP
50
88
70
88
88
70
ENDCHAR
STARTCHAR uni0224
ENCODING 548
SWIDTH 480 0
DWIDTH 6 0
BBX 5 9 0 -2
BITMAP
F8
08
10
20
40
80
F8
08
30
ENDCHAR
STARTCHAR uni0225
ENCODING 549
SWIDTH 480 0
DWIDTH 6 0
BBX 5 7 0 -2
BITMAP
F8
10
20
40
F8
08
30
ENDCHAR
STARTCHAR uni0226
ENCODING 550
SWIDTH 480 0
DWIDTH 6 0
BBX 5 9 0 0
BITMAP
20
00
70
88
88
F8
88
88
88
ENDCHAR
STARTCHAR uni0227
ENCODING 551
SWIDTH 480 0
DWIDTH 6 0
BBX 5 7 0 0
BITMAP
20
00
70
08
78
88
78
ENDCHAR
STARTCHAR uni0228
ENCODING 552
SWIDTH 480 0
DWIDTH 6 0
BBX 5 9 0 -2
BITMAP
F8
80
80
F0
80
80
F8
08
30
ENDCHAR
STARTCHAR uni0229
ENCODING 553
SWIDTH 480 0
DWIDTH 6 0
BBX 5 7 0 -2
BITMAP
70
88
F0
80
70
08
30
ENDCHAR
STARTCHAR uni022A
ENCODING 554
SWIDTH 480 0
DWIDTH 6 0
BBX 5 10 0 0
BITMAP
70
00
50
00
70
88
88
88
88
70
ENDCHAR
STARTCHAR uni022B
ENCODING 555
SWIDTH 480 0
DWIDTH 6 0
BBX 5 9 0 0
BITMAP
70
00
50
00
70
88
88
88
70
ENDCHAR
STARTCHAR uni022C
ENCODING 556
SWIDTH 480 0
DWIDTH 6 0
BBX 5 10 0 0
BITMAP
70
68
B0
00
70
88
88
88
88
70
ENDCHAR
STARTCHAR uni022D
ENCODING 557
SWIDTH 480 0
DWIDTH 6 0
BBX 5 10 0 0
BITMAP
70
00
68
B0
00
70
88
88
88
70
ENDCHAR
STARTCHAR uni022E
ENCODING 558
SWIDTH 480 0
DWIDTH 6 0
BBX 5 9 0 0
BITMAP
20
00
70
88
88
88
88
88
70
ENDCHAR
STARTCHAR uni022F
ENCODING 559
SWIDTH 480 0
DWIDTH 6 0
BBX 5 7 0 0
BITMAP
20
00
70
88
88
88
70
ENDCHAR
STARTCHAR uni0230
ENCODING 560
SWIDTH 480 0
DWIDTH 6 0
BBX 5 10 0 0
BITMAP
70
00
20
00
70
88
88
88
88
70
ENDCHAR
STARTCHAR uni0231
ENCODING 561
SWIDTH 480 0
DWIDTH 6 0
BBX 5 9 0 0
BITMAP
70
00
20
00
70
88
88
88
70
ENDCHAR
STARTCHAR uni0232
ENCODING 562
SWIDTH 480 0
DWIDTH 6 0
BBX 5 9 0 0
BITMAP
70
00
88
88
50
20
20
20
20
ENDCHAR
STARTCHAR uni0233
ENCODING 563
SWIDTH 480 0
DWIDTH 6 0
BBX 5 9 0 -2
BITMAP
70
00
88
88
88
50
20
40
80
ENDCHAR
STARTCHAR uni0234
ENCODING 564
SWIDTH 480 0
DWIDTH 6 0
BBX 4 8 1 -1
BITMAP
40
40
40
40
60
50
60
80
ENDCHAR
STARTCHAR uni0235
ENCODING 565
SWIDTH 480 0
DWIDTH 6 0
BBX 6 6 0 -1
BITMAP
E0
90
98
94
98
20
ENDCHAR
STARTCHAR uni0236
ENCODING 566
SWIDTH 480 0
DWIDTH 6 0
BBX 4 7 1 0
BITMAP
40
40
F0
40
60
50
A0
ENDCHAR
STARTCHAR uni0237
ENCODING 567
SWIDTH 480 0
DWIDTH 6 0
BBX 4 9 0 -2
BITMAP
10
10
10
10
10
10
10
90
60
ENDCHAR
STARTCHAR uni0238
ENCODING 568
SWIDTH 480 0
DWIDTH 6 0
BBX 5 7 0 0
BITMAP
20
20
20
70
A8
A8
70
ENDCHAR
STARTCHAR uni0239
ENCODING 569
SWIDTH 480 0
DWIDTH 6 0
BBX 5 7 0 -2
BITMAP
70
A8
A8
70
20
20
20
ENDCHAR
STARTCHAR uni023A
ENCODING 570
SWIDTH 480 0
DWIDTH 6 0
BBX 6 7 0 0
BITMAP
74
88
98
F8
A8
C8
88
ENDCHAR
STARTCHAR uni023B
ENCODING 571
SWIDTH 480 0
DWIDTH 6 0
BBX 6 7 0 0
BITMAP
3C
48
90
90
A0
40
B8
ENDCHAR
STARTCHAR uni023C
ENCODING 572
SWIDTH 480 0
DWIDTH 6 0
BBX 5 5 0 0
BITMAP
78
98
A0
C8
F0
ENDCHAR
STARTCHAR uni023D
ENCODING 573
SWIDTH 480 0
DWIDTH 6 0
BBX 5 7 0 0
BITMAP
40
40
40
E0
40
40
78
ENDCHAR
STARTCHAR uni023E
ENCODING 574
SWIDTH 480 0
DWIDTH 6 0
BBX 6 7 0 0
BITMAP
FC
28
30
20
20
60
A0
ENDCHAR
STARTCHAR uni023F
ENCODING 575
SWIDTH 480 0
DWIDTH 6 0
BBX 5 7 0 -2
BITMAP
78
80
70
08
F0
20
10
ENDCHAR
STARTCHAR uni0240
ENCODING 576
SWIDTH 480 0
DWIDTH 6 0
BBX 5 7 0 -2
BITMAP
F8
10
20
40
80
40
38
ENDCHAR
STARTCHAR uni0241
ENCODING 577
SWIDTH 480 0
DWIDTH 6 0
BBX 5 7 0 0
BITMAP
70
88
08
30
20
20
20
ENDCHAR
STARTCHAR uni0242
ENCODING 578
SWIDTH 480 0
DWIDTH 6 0
BBX 4 5 1 0
BITMAP
E0
10
10
60
40
ENDCHAR
STARTCHAR uni0243
ENCODING 579
SWIDTH 480 0
DWIDTH 6 0
BBX 5 7 0 0
BITMAP
70
48
70
48
E8
48
70
ENDCHAR
STARTCHAR uni0244
ENCODING 580
SWIDTH 480 0
DWIDTH 6 0
BBX 6 7 0 0
BITMAP
48
48
48
FC
48
48
30
ENDCHAR
STARTCHAR uni0245
ENCODING 581
SWIDTH 480 0
DWIDTH 6 0
BBX 5 7 0 0
BITMAP
20
50
50
50
88
88
88
ENDCHAR
STARTCHAR uni0246
ENCODING 582
SWIDTH 480 0
DWIDTH 6 0
BBX 6 7 0 0
BITMAP
FC
88
90
F0
A0
C0
F8
ENDCHAR
STARTCHAR uni0247
ENCODING 583
SWIDTH 480 0
DWIDTH 6 0
BBX 5 6 0 0
BITMAP
10
70
A8
F0
C0
F0
ENDCHAR
STARTCHAR uni0248
ENCODING 584
SWIDTH 480 0
DWIDTH 6 0
BBX 5 9 0 -2
BITMAP
10
10
10
10
10
38
10
90
60
ENDCHAR
STARTCHAR uni0249
ENCODING 585
SWIDTH 480 0
DWIDTH 6 0
BBX 5 9 0 -2
BITMAP
10
00
10
10
10
38
10
90
60
ENDCHAR
STARTCHAR uni024A
ENCODING 586
SWIDTH 480 0
DWIDTH 6 0
BBX 6 9 0 -2
BITMAP
68
98
88
88
98
68
08
08
04
ENDCHAR
STARTCHAR uni024B
ENCODING 587
SWIDTH 480 0
DWIDTH 6 0
BBX 6 7 0 -2
BITMAP
68
98
88
98
68
08
04
ENDCHAR
STARTCHAR uni024C
ENCODING 588
SWIDTH 480 0
DWIDTH 6 0
BBX 5 7 0 0
BITMAP
70
48
48
F0
48
48
48
ENDCHAR
STARTCHAR uni024D
ENCODING 589
SWIDTH 480 0
DWIDTH 6 0
BBX 4 5 0 0
BITMAP
50
60
40
E0
40
ENDCHAR
STARTCHAR uni024E
ENCODING 590
SWIDTH 480 0
DWIDTH 6 0
BBX 5 7 0 0
BITMAP
88
F8
50
20
20
20
20
ENDCHAR
STARTCHAR uni024F
ENCODING 591
SWIDTH 480 0
DWIDTH 6 0
BBX 5 7 0 -2
BITMAP
88
88
F8
50
20
40
80
ENDCHAR
STARTCHAR uni0250
ENCODING 592
SWIDTH 480 0
DWIDTH 6 0
BBX 5 5 0 0
BITMAP
F0
88
F0
80
70
ENDCHAR
STARTCHAR uni0251
ENCODING 593
SWIDTH 480 0
DWIDTH 6 0
BBX 5 5 0 0
BITMAP
68
98
88
98
68
ENDCHAR
STARTCHAR uni0252
ENCODING 594
SWIDTH 480 0
DWIDTH 6 0
BBX 5 5 0 0
BITMAP
B0
C8
88
C8
B0
ENDCHAR
STARTCHAR uni0253
ENCODING 595
SWIDTH 480 0
DWIDTH 6 0
BBX 5 8 0 0
BITMAP
60
90
80
F0
88
88
88
F0
ENDCHAR
STARTCHAR uni0254
ENCODING 596
SWIDTH 480 0
DWIDTH 6 0
BBX 5 5 0 0
BITMAP
70
88
08
88
70
ENDCHAR
STARTCHAR uni0255
ENCODING 597
SWIDTH 480 0
DWIDTH 6 0
BBX 5 6 0 -1
BITMAP
78
80
90
A8
70
20
ENDCHAR
STARTCHAR uni0256
ENCODING 598
SWIDTH 480 0
DWIDTH 6 0
BBX 5 8 0 -1
BITMAP
10
10
70
90
90
90
70
08
ENDCHAR
STARTCHAR uni0257
ENCODING 599
SWIDTH 480 0
DWIDTH 6 0
BBX 5 8 0 0
BITMAP
08
10
10
70
90
90
90
70
ENDCHAR
STARTCHAR uni0258
ENCODING 600
SWIDTH 480 0
DWIDTH 6 0
BBX 5 5 0 0
BITMAP
70
88
78
08
70
ENDCHAR
STARTCHAR uni0259
ENCODING 601
SWIDTH 480 0
DWIDTH 6 0
BBX 5 5 0 0
BITMAP
70
08
78
88
70
ENDCHAR
STARTCHAR uni025A
ENCODING 602
SWIDTH 480 0
DWIDTH 6 0
BBX 6 5 0 0
BITMAP
60
18
74
90
60
ENDCHAR
STARTCHAR uni025B
ENCODING 603
SWIDTH 480 0
DWIDTH 6 0
BBX 5 5 0 0
BITMAP
70
88
60
88
70
ENDCHAR
STARTCHAR uni025C
ENCODING 604
SWIDTH 480 0
DWIDTH 6 0
BBX 5 5 0 0
BITMAP
70
88
30
88
70
ENDCHAR
STARTCHAR uni025D
ENCODING 605
SWIDTH 480 0
DWIDTH 6 0
BBX 6 5 0 0
BITMAP
68
94
20
90
60
ENDCHAR
STARTCHAR uni025E
ENCODING 606
SWIDTH 480 0
DWIDTH 6 0
BBX 5 5 0 0
BITMAP
70
88
B0
88
70
ENDCHAR
STARTCHAR uni025F
ENCODING 607
SWIDTH 480 0
DWIDTH 6 0
BBX 5 7 0 -2
BITMAP
10
10
10
38
10
90
60
ENDCHAR
STARTCHAR uni0260
ENCODING 608
SWIDTH 480 0
DWIDTH 6 0
BBX 5 9 0 -2
BITMAP
08
08
70
90
90
90
70
10
60
ENDCHAR
STARTCHAR uni0261
ENCODING 609
SWIDTH 480 0
DWIDTH 6 0
BBX 5 7 0 -2
BITMAP
70
88
88
88
78
08
70
ENDCHAR
STARTCHAR uni0262
ENCODING 610
SWIDTH 480 0
DWIDTH 6 0
BBX 5 5 0 0
BITMAP
78
80
98
88
70
ENDCHAR
STARTCHAR uni0263
ENCODING 611
SWIDTH 480 0
DWIDTH 6 0
BBX 5 7 0 -2
BITMAP
88
88
50
50
20
50
20
ENDCHAR
STARTCHAR uni0264
ENCODING 612
SWIDTH 480 0
DWIDTH 6 0
BBX 5 5 0 0
BITMAP
50
A8
20
50
20
ENDCHAR
STARTCHAR uni0265
ENCODING 613
SWIDTH 480 0
DWIDTH 6 0
BBX 5 7 0 -2
BITMAP
88
88
88
88
78
08
08
ENDCHAR
STARTCHAR uni0266
ENCODING 614
SWIDTH 480 0
DWIDTH 6 0
BBX 5 8 0 0
BITMAP
70
88
80
F0
88
88
88
88
ENDCHAR
STARTCHAR uni0267
ENCODING 615
SWIDTH 480 0
DWIDTH 6 0
BBX 5 10 0 -2
BITMAP
70
88
80
F0
88
88
88
88
08
30
ENDCHAR
STARTCHAR uni0268
ENCODING 616
SWIDTH 480 0
DWIDTH 6 0
BBX 3 7 1 0
BITMAP
40
00
C0
40
E0
40
E0
ENDCHAR
STARTCHAR uni0269
ENCODING 617
SWIDTH 480 0
DWIDTH 6 0
BBX 3 5 1 0
BITMAP
80
80
80
A0
40
ENDCHAR
STARTCHAR uni026A
ENCODING 618
SWIDTH 480 0
DWIDTH 6 0
BBX 3 5 1 0
BITMAP
E0
40
40
40
E0
ENDCHAR
STARTCHAR uni026B
ENCODING 619
SWIDTH 480 0
DWIDTH 6 0
BBX 5 7 0 0
BITMAP
60
20
68
B0
20
20
70
ENDCHAR
STARTCHAR uni026C
ENCODING 620
SWIDTH 480 0
DWIDTH 6 0
BBX 4 7 0 0
BITMAP
60
20
60
A0
70
20
70
ENDCHAR
STARTCHAR uni026D
ENCODING 621
SWIDTH 480 0
DWIDTH 6 0
BBX 4 9 1 -2
BITMAP
C0
40
40
40
40
40
40
50
20
ENDCHAR
STARTCHAR uni026E
ENCODING 622
SWIDTH 480 0
DWIDTH 6 0
BBX 5 9 0 -2
BITMAP
C0
40
78
48
50
70
E8
48
30
ENDCHAR
STARTCHAR uni026F
ENCODING 623
SWIDTH 480 0
DWIDTH 6 0
BBX 5 5 0 0
BITMAP
A8
A8
A8
A8
58
ENDCHAR
STARTCHAR uni0270
ENCODING 624
SWIDTH 480 0
DWIDTH 6 0
BBX 5 7 0 -2
BITMAP
A8
A8
A8
A8
58
08
08
ENDCHAR
STARTCHAR uni0271
ENCODING 625
SWIDTH 480 0
DWIDTH 6 0
BBX 5 7 0 -2
BITMAP
D0
A8
A8
A8
A8
08
30
ENDCHAR
STARTCHAR uni0272
ENCODING 626
SWIDTH 480 0
DWIDTH 6 0
BBX 5 7 0 -2
BITMAP
70
48
48
48
48
40
80
ENDCHAR
STARTCHAR uni0273
ENCODING 627
SWIDTH 480 0
DWIDTH 6 0
BBX 5 7 0 -2
BITMAP
E0
90
90
90
90
10
08
ENDCHAR
STARTCHAR uni0274
ENCODING 628
SWIDTH 480 0
DWIDTH 6 0
BBX 5 5 0 0
BITMAP
88
C8
A8
98
88
ENDCHAR
STARTCHAR uni0275
ENCODING 629
SWIDTH 480 0
DWIDTH 6 0
BBX 5 5 0 0
BITMAP
70
88
F8
88
70
ENDCHAR
STARTCHAR uni0276
ENCODING 630
SWIDTH 480 0
DWIDTH 6 0
BBX 5 5 0 0
BITMAP
78
A0
B0
A0
78
ENDCHAR
STARTCHAR uni0277
ENCODING 631
SWIDTH 480 0
DWIDTH 6 0
BBX 5 5 0 0
BITMAP
70
88
A8
A8
50
ENDCHAR
STARTCHAR uni0278
ENCODING 632
SWIDTH 480 0
DWIDTH 6 0
BBX 5 9 0 -2
BITMAP
20
20
70
A8
A8
A8
70
20
20
ENDCHAR
STARTCHAR uni0279
ENCODING 633
SWIDTH 480 0
DWIDTH 6 0
BBX 5 5 0 0
BITMAP
08
08
08
98
68
ENDCHAR
STARTCHAR uni027A
ENCODING 634
SWIDTH 480 0
DWIDTH 6 0
BBX 5 7 0 0
BITMAP
08
08
08
08
08
98
68
ENDCHAR
STARTCHAR uni027B
ENCODING 635
SWIDTH 480 0
DWIDTH 6 0
BBX 5 7 0 -2
BITMAP
10
10
10
90
70
10
08
ENDCHAR
STARTCHAR uni027C
ENCODING 636
SWIDTH 480 0
DWIDTH 6 0
BBX 5 7 0 -2
BITMAP
B0
C8
80
80
80
80
80
ENDCHAR
STARTCHAR uni027D
ENCODING 637
SWIDTH 480 0
DWIDTH 6 0
BBX 5 7 0 -2
BITMAP
B0
C8
80
80
80
A0
40
ENDCHAR
STARTCHAR uni027E
ENCODING 638
SWIDTH 480 0
DWIDTH 6 0
BBX 5 5 0 0
BITMAP
30
48
80
80
80
ENDCHAR
STARTCHAR uni027F
ENCODING 639
SWIDTH 480 0
DWIDTH 6 0
BBX 5 5 0 0
BITMAP
60
90
08
08
08
ENDCHAR
STARTCHAR uni0280
ENCODING 640
SWIDTH 480 0
DWIDTH 6 0
BBX 5 5 0 0
BITMAP
F0
88
F0
88
88
ENDCHAR
STARTCHAR uni0281
ENCODING 641
SWIDTH 480 0
DWIDTH 6 0
BBX 5 5 0 0
BITMAP
88
88
F0
88
F0
ENDCHAR
STARTCHAR uni0282
ENCODING 642
SWIDTH 480 0
DWIDTH 6 0
BBX 5 7 0 -2
BITMAP
78
80
70
08
F0
80
60
ENDCHAR
STARTCHAR uni0283
ENCODING 643
SWIDTH 480 0
DWIDTH 6 0
BBX 5 8 0 -1
BITMAP
10
28
20
20
20
20
A0
40
ENDCHAR
STARTCHAR uni0284
ENCODING 644
SWIDTH 480 0
DWIDTH 6 0
BBX 5 8 0 -1
BITMAP
10
28
20
20
70
20
A0
40
ENDCHAR
STARTCHAR uni0285
ENCODING 645
SWIDTH 480 0
DWIDTH 6 0
BBX 5 6 0 0
BITMAP
40
A0
20
20
28
10
ENDCHAR
STARTCHAR uni0286
ENCODING 646
SWIDTH 480 0
DWIDTH 6 0
BBX 5 8 0 -1
BITMAP
10
28
20
20
20
70
A0
40
ENDCHAR
STARTCHAR uni0287
ENCODING 647
SWIDTH 480 0
DWIDTH 6 0
BBX 5 7 0 -2
BITMAP
C0
20
20
20
F8
20
20
ENDCHAR
STARTCHAR uni0288
ENCODING 648
SWIDTH 480 0
DWIDTH 6 0
BBX 5 9 0 -2
BITMAP
20
20
F8
20
20
20
20
20
18
ENDCHAR
STARTCHAR uni0289
ENCODING 649
SWIDTH 480 0
DWIDTH 6 0
BBX 5 5 0 0
BITMAP
88
F8
88
98
68
ENDCHAR
STARTCHAR uni028A
ENCODING 650
SWIDTH 480 0
DWIDTH 6 0
BBX 5 5 0 0
BITMAP
D8
50
88
88
70
ENDCHAR
STARTCHAR uni028B
ENCODING 651
SWIDTH 480 0
DWIDTH 6 0
BBX 5 5 0 0
BITMAP
90
88
88
90
60
ENDCHAR
STARTCHAR uni028C
ENCODING 652
SWIDTH 480 0
DWIDTH 6 0
BBX 5 5 0 0
BITMAP
20
50
50
88
88
ENDCHAR
STARTCHAR uni028D
ENCODING 653
SWIDTH 480 0
DWIDTH 6 0
BBX 5 5 0 0
BITMAP
50
A8
A8
88
88
ENDCHAR
STARTCHAR uni028E
ENCODING 654
SWIDTH 480 0
DWIDTH 6 0
BBX 5 7 0 0
BITMAP
08
10
20
50
88
88
88
ENDCHAR
STARTCHAR uni028F
ENCODING 655
SWIDTH 480 0
DWIDTH 6 0
BBX 5 5 0 0
BITMAP
88
50
20
20
20
ENDCHAR
STARTCHAR uni0290
ENCODING 656
SWIDTH 480 0
DWIDTH 6 0
BBX 5 7 0 -2
BITMAP
F8
10
20
40
F8
20
18
ENDCHAR
STARTCHAR uni0291
ENCODING 657
SWIDTH 480 0
DWIDTH 6 0
BBX 5 7 0 -2
BITMAP
F8
10
20
50
F8
20
40
ENDCHAR
STARTCHAR uni0292
ENCODING 658
SWIDTH 480 0
DWIDTH 6 0
BBX 5 7 0 -2
BITMAP
F8
10
20
70
08
88
70
ENDCHAR
STARTCHAR uni0293
ENCODING 659
SWIDTH 480 0
DWIDTH 6 0
BBX 6 7 0 -2
BITMAP
F8
10
30
08
78
88
74
ENDCHAR
STARTCHAR uni0294
ENCODING 660
SWIDTH 480 0
DWIDTH 6 0
BBX 5 7 0 0
BITMAP
70
88
08
30
20
20
20
ENDCHAR
STARTCHAR uni0295
ENCODING 661
SWIDTH 480 0
DWIDTH 6 0
BBX 5 7 0 0
BITMAP
70
88
80
60
20
20
20
ENDCHAR
STARTCHAR uni0296
ENCODING 662
SWIDTH 480 0
DWIDTH 6 0
BBX 5 7 0 0
BITMAP
20
20
20
30
08
88
70
ENDCHAR
STARTCHAR uni0297
ENCODING 663
SWIDTH 480 0
DWIDTH 6 0
BBX 5 9 0 -2
BITMAP
70
88
80
80
80
80
80
88
70
ENDCHAR
STARTCHAR uni0298
ENCODING 664
SWIDTH 480 0
DWIDTH 6 0
BBX 5 5 0 0
BITMAP
70
88
A8
88
70
ENDCHAR
STARTCHAR uni0299
ENCODING 665
SWIDTH 480 0
DWIDTH 6 0
BBX 5 5 0 0
BITMAP
F0
88
F0
88
F0
ENDCHAR
STARTCHAR uni029A
ENCODING 666
SWIDTH 480 0
DWIDTH 6 0
BBX 5 5 0 0
BITMAP
70
88
68
88
70
ENDCHAR
STARTCHAR uni029B
ENCODING 667
SWIDTH 480 0
DWIDTH 6 0
BBX 5 7 0 0
BITMAP
08
10
78
80
98
88
70
ENDCHAR
STARTCHAR uni029C
ENCODING 668
SWIDTH 480 0
DWIDTH 6 0
BBX 5 5 0 0
BITMAP
88
88
F8
88
88
ENDCHAR
STARTCHAR uni029D
ENCODING 669
SWIDTH 480 0
DWIDTH 6 0
BBX 5 9 0 -2
BITMAP
10
00
30
10
10
10
78
90
60
ENDCHAR
STARTCHAR uni029E
ENCODING 670
SWIDTH 480 0
DWIDTH 6 0
BBX 5 7 0 -2
BITMAP
88
48
38
48
88
08
08
ENDCHAR
STARTCHAR uni029F
ENCODING 671
SWIDTH 480 0
DWIDTH 6 0
BBX 5 5 0 0
BITMAP
80
80
80
80
F8
ENDCHAR
STARTCHAR uni02A0
ENCODING 672
SWIDTH 480 0
DWIDTH 6 0
BBX 5 9 0 -2
BITMAP
08
10
70
90
90
90
70
10
10
ENDCHAR
STARTCHAR uni02A1
ENCODING 673
SWIDTH 480 0
DWIDTH 6 0
BBX 5 7 0 0
BITMAP
70
88
08
30
20
70
20
ENDCHAR
STARTCHAR uni02A2
ENCODING 674
SWIDTH 480 0
DWIDTH 6 0
BBX 5 7 0 0
BITMAP
70
88
80
60
20
70
20
ENDCHAR
STARTCHAR uni02A3
ENCODING 675
SWIDTH 480 0
DWIDTH 6 0
BBX 6 7 0 0
BITMAP
20
20
6C
A4
A8
A8
6C
ENDCHAR
STARTCHAR uni02A4
ENCODING 676
SWIDTH 480 0
DWIDTH 6 0
BBX 5 9 0 -2
BITMAP
20
20
78
A8
B0
B8
68
08
38
ENDCHAR
STARTCHAR uni02A5
ENCODING 677
SWIDTH 480 0
DWIDTH 6 0
BBX 5 8 0 -1
BITMAP
20
20
78
A8
B0
B0
78
10
ENDCHAR
STARTCHAR uni02A6
ENCODING 678
SWIDTH 480 0
DWIDTH 6 0
BBX 5 7 0 0
BITMAP
40
40
F8
50
48
48
30
ENDCHAR
STARTCHAR uni02A7
ENCODING 679
SWIDTH 480 0
DWIDTH 6 0
BBX 6 10 0 -2
BITMAP
08
54
50
F0
50
50
50
30
50
20
ENDCHAR
STARTCHAR uni02A8
ENCODING 680
SWIDTH 480 0
DWIDTH 6 0
BBX 5 8 0 -1
BITMAP
40
40
E8
50
50
50
28
10
ENDCHAR
STARTCHAR uni02A9
ENCODING 681
SWIDTH 480 0
DWIDTH 6 0
BBX 5 9 0 -2
BITMAP
60
90
80
F0
A8
A8
A8
08
30
ENDCHAR
STARTCHAR uni02AA
ENCODING 682
SWIDTH 480 0
DWIDTH 6 0
BBX 5 7 0 0
BITMAP
C0
40
58
60
50
48
F0
ENDCHAR
STARTCHAR uni02AB
ENCODING 683
SWIDTH 480 0
DWIDTH 6 0
BBX 5 7 0 0
BITMAP
C0
40
78
48
50
60
F8
ENDCHAR
STARTCHAR uni02AC
ENCODING 684
SWIDTH 480 0
DWIDTH 6 0
BBX 5 7 0 0
BITMAP
A8
A8
50
00
A8
A8
50
ENDCHAR
STARTCHAR uni02AD
ENCODING 685
SWIDTH 480 0
DWIDTH 6 0
BBX 5 5 0 1
BITMAP
F8
88
00
F8
88
ENDCHAR
STARTCHAR uni02AE
ENCODING 686
SWIDTH 480 0
DWIDTH 6 0
BBX 5 10 0 -2
BITMAP
88
48
48
48
48
48
48
38
08
08
ENDCHAR
STARTCHAR uni02AF
ENCODING 687
SWIDTH 480 0
DWIDTH 6 0
BBX 6 10 0 -2
BITMAP
88
48
48
48
48
48
48
38
08
04
ENDCHAR
STARTCHAR uni02B0
ENCODING 688
SWIDTH 480 0
DWIDTH 6 0
BBX 3 5 1 4
BITMAP
80
80
C0
A0
A0
ENDCHAR
STARTCHAR uni02B1
ENCODING 689
SWIDTH 480 0
DWIDTH 6 0
BBX 3 5 1 4
BITMAP
40
80
C0
A0
A0
ENDCHAR
STARTCHAR uni02B2
ENCODING 690
SWIDTH 480 0
DWIDTH 6 0
BBX 3 6 1 3
BITMAP
20
00
20
20
A0
40
ENDCHAR
STARTCHAR uni02B3
ENCODING 691
SWIDTH 480 0
DWIDTH 6 0
BBX 3 4 1 4
BITMAP
C0
A0
80
80
ENDCHAR
STARTCHAR uni02B4
ENCODING 692
SWIDTH 480 0
DWIDTH 6 0
BBX 3 4 1 4
BITMAP
20
20
A0
60
ENDCHAR
STARTCHAR uni02B5
ENCODING 693
SWIDTH 480 0
DWIDTH 6 0
BBX 4 5 1 3
BITMAP
20
20
A0
60
10
ENDCHAR
STARTCHAR uni02B6
ENCODING 694
SWIDTH 480 0
DWIDTH 6 0
BBX 3 5 1 4
BITMAP
A0
A0
C0
A0
C0
ENDCHAR
STARTCHAR uni02B7
ENCODING 695
SWIDTH 480 0
DWIDTH 6 0
BBX 5 4 0 4
BITMAP
A8
A8
50
50
ENDCHAR
STARTCHAR uni02B8
ENCODING 696
SWIDTH 480 0
DWIDTH 6 0
BBX 3 5 1 3
BITMAP
A0
A0
60
20
C0
ENDCHAR
STARTCHAR uni02B9
ENCODING 697
SWIDTH 480 0
DWIDTH 6 0
BBX 2 4 2 5
BITMAP
40
40
80
80
ENDCHAR
STARTCHAR uni02BA
ENCODING 698
SWIDTH 480 0
DWIDTH 6 0
BBX 5 4 0 5
BITMAP
48
48
90
90
ENDCHAR
STARTCHAR uni02BB
ENCODING 699
SWIDTH 480 0
DWIDTH 6 0
BBX 2 3 2 5
BITMAP
40
80
C0
ENDCHAR
STARTCHAR afii57929
ENCODING 700
SWIDTH 480 0
DWIDTH 6 0
BBX 2 3 2 5
BITMAP
C0
40
80
ENDCHAR
STARTCHAR afii64937
ENCODING 701
SWIDTH 480 0
DWIDTH 6 0
BBX 2 3 2 5
BITMAP
C0
80
40
ENDCHAR
STARTCHAR uni02BE
ENCODING 702
SWIDTH 480 0
DWIDTH 6 0
BBX 2 4 2 4
BITMAP
80
40
40
80
ENDCHAR
STARTCHAR uni02BF
ENCODING 703
SWIDTH 480 0
DWIDTH 6 0
BBX 2 4 1 4
BITMAP
40
80
80
40
ENDCHAR
STARTCHAR uni02C0
ENCODING 704
SWIDTH 480 0
DWIDTH 6 0
BBX 3 5 1 4
BITMAP
40
A0
20
40
40
ENDCHAR
STARTCHAR uni02C1
ENCODING 705
SWIDTH 480 0
DWIDTH 6 0
BBX 3 5 1 4
BITMAP
40
A0
80
40
40
ENDCHAR
STARTCHAR uni02C2
ENCODING 706
SWIDTH 480 0
DWIDTH 6 0
BBX 3 5 1 4
BITMAP
20
40
80
40
20
ENDCHAR
STARTCHAR uni02C3
ENCODING 707
SWIDTH 480 0
DWIDTH 6 0
BBX 3 5 1 4
BITMAP
80
40
20
40
80
ENDCHAR
STARTCHAR uni02C4
ENCODING 708
SWIDTH 480 0
DWIDTH 6 0
BBX 3 3 1 5
BITMAP
40
A0
A0
ENDCHAR
STARTCHAR uni02C5
ENCODING 709
SWIDTH 480 0
DWIDTH 6 0
BBX 3 3 1 5
BITMAP
A0
A0
40
ENDCHAR
STARTCHAR circumflex
ENCODING 710
SWIDTH 480 0
DWIDTH 6 0
BBX 3 2 1 6
BITMAP
40
A0
ENDCHAR
STARTCHAR caron
ENCODING 711
SWIDTH 480 0
DWIDTH 6 0
BBX 3 2 1 7
BITMAP
A0
40
ENDCHAR
STARTCHAR uni02C8
ENCODING 712
SWIDTH 480 0
DWIDTH 6 0
BBX 1 2 2 6
BITMAP
80
80
ENDCHAR
STARTCHAR macron
ENCODING 713
SWIDTH 480 0
DWIDTH 6 0
BBX 4 1 1 7
BITMAP
F0
ENDCHAR
STARTCHAR uni02CA
ENCODING 714
SWIDTH 480 0
DWIDTH 6 0
BBX 2 2 2 6
BITMAP
80
40
ENDCHAR
STARTCHAR uni02CB
ENCODING 715
SWIDTH 480 0
DWIDTH 6 0
BBX 2 2 2 6
BITMAP
40
80
ENDCHAR
STARTCHAR uni02CC
ENCODING 716
SWIDTH 480 0
DWIDTH 6 0
BBX 1 2 2 -1
BITMAP
80
80
ENDCHAR
STARTCHAR uni02CD
ENCODING 717
SWIDTH 480 0
DWIDTH 6 0
BBX 4 1 1 0
BITMAP
F0
ENDCHAR
STARTCHAR uni02CE
ENCODING 718
SWIDTH 480 0
DWIDTH 6 0
BBX 2 2 2 -1
BITMAP
80
40
ENDCHAR
STARTCHAR uni02CF
ENCODING 719
SWIDTH 480 0
DWIDTH 6 0
BBX 2 2 2 -1
BITMAP
40
80
ENDCHAR
STARTCHAR uni02D0
ENCODING 720
SWIDTH 480 0
DWIDTH 6 0
BBX 3 5 1 0
BITMAP
E0
40
00
40
E0
ENDCHAR
STARTCHAR uni02D1
ENCODING 721
SWIDTH 480 0
DWIDTH 6 0
BBX 3 2 1 3
BITMAP
E0
40
ENDCHAR
STARTCHAR uni02D2
ENCODING 722
SWIDTH 480 0
DWIDTH 6 0
BBX 3 4 2 0
BITMAP
C0
20
20
C0
ENDCHAR
STARTCHAR uni02D3
ENCODING 723
SWIDTH 480 0
DWIDTH 6 0
BBX 3 4 1 0
BITMAP
60
80
80
60
ENDCHAR
STARTCHAR uni02D4
ENCODING 724
SWIDTH 480 0
DWIDTH 6 0
BBX 5 3 0 3
BITMAP
20
20
F8
ENDCHAR
STARTCHAR uni02D5
ENCODING 725
SWIDTH 480 0
DWIDTH 6 0
BBX 5 3 0 1
BITMAP
F8
20
20
ENDCHAR
STARTCHAR uni02D6
ENCODING 726
SWIDTH 480 0
DWIDTH 6 0
BBX 5 5 0 1
BITMAP
20
20
F8
20
20
ENDCHAR
STARTCHAR uni02D7
ENCODING 727
SWIDTH 480 0
DWIDTH 6 0
BBX 5 3 0 1
BITMAP
88
F8
88
ENDCHAR
STARTCHAR breve
ENCODING 728
SWIDTH 480 0
DWIDTH 6 0
BBX 5 2 0 7
BITMAP
88
70
ENDCHAR
STARTCHAR dotaccent
ENCODING 729
SWIDTH 480 0
DWIDTH 6 0
BBX 1 1 2 7
BITMAP
80
ENDCHAR
STARTCHAR ring
ENCODING 730
SWIDTH 480 0
DWIDTH 6 0
BBX 3 3 1 6
BITMAP
40
A0
40
ENDCHAR
STARTCHAR ogonek
ENCODING 731
SWIDTH 480 0
DWIDTH 6 0
BBX 2 2 2 -2
BITMAP
80
C0
ENDCHAR
STARTCHAR tilde
ENCODING 732
SWIDTH 480 0
DWIDTH 6 0
BBX 5 2 0 6
BITMAP
68
B0
ENDCHAR
STARTCHAR hungarumlaut
ENCODING 733
SWIDTH 480 0
DWIDTH 6 0
BBX 5 2 0 7
BITMAP
48
90
ENDCHAR
STARTCHAR uni02DE
ENCODING 734
SWIDTH 480 0
DWIDTH 6 0
BBX 5 4 0 1
BITMAP
20
68
A8
10
ENDCHAR
STARTCHAR uni02DF
ENCODING 735
SWIDTH 480 0
DWIDTH 6 0
BBX 3 3 1 6
BITMAP
A0
40
A0
ENDCHAR
STARTCHAR uni02E0
ENCODING 736
SWIDTH 480 0
DWIDTH 6 0
BBX 3 5 1 3
BITMAP
A0
A0
40
A0
40
ENDCHAR
STARTCHAR uni02E1
ENCODING 737
SWIDTH 480 0
DWIDTH 6 0
BBX 3 5 1 4
BITMAP
C0
40
40
40
E0
ENDCHAR
STARTCHAR uni02E2
ENCODING 738
SWIDTH 480 0
DWIDTH 6 0
BBX 3 4 1 4
BITMAP
60
C0
20
C0
ENDCHAR
STARTCHAR uni02E3
ENCODING 739
SWIDTH 480 0
DWIDTH 6 0
BBX 3 3 1 5
BITMAP
A0
40
A0
ENDCHAR
STARTCHAR uni02E4
ENCODING 740
SWIDTH 480 0
DWIDTH 6 0
BBX 3 5 1 4
BITMAP
60
80
C0
40
40
ENDCHAR
STARTCHAR uni02E5
ENCODING 741
SWIDTH 480 0
DWIDTH 6 0
BBX 3 7 1 0
BITMAP
E0
20
20
20
20
20
20
ENDCHAR
STARTCHAR uni02E6
ENCODING 742
SWIDTH 480 0
DWIDTH 6 0
BBX 3 7 1 0
BITMAP
20
E0
20
20
20
20
20
ENDCHAR
STARTCHAR uni02E7
ENCODING 743
SWIDTH 480 0
DWIDTH 6 0
BBX 3 7 1 0
BITMAP
20
20
20
E0
20
20
20
ENDCHAR
STARTCHAR uni02E8
ENCODING 744
SWIDTH 480 0
DWIDTH 6 0
BBX 3 7 1 0
BITMAP
20
20
20
20
20
E0
20
ENDCHAR
STARTCHAR uni02E9
ENCODING 745
SWIDTH 480 0
DWIDTH 6 0
BBX 3 7 1 0
BITMAP
20
20
20
20
20
20
E0
ENDCHAR
STARTCHAR uni02EA
ENCODING 746
SWIDTH 480 0
DWIDTH 6 0
BBX 3 3 1 -2
BITMAP
E0
20
20
ENDCHAR
STARTCHAR uni02EB
ENCODING 747
SWIDTH 480 0
DWIDTH 6 0
BBX 3 5 1 -2
BITMAP
80
80
E0
80
80
ENDCHAR
STARTCHAR uni02EC
ENCODING 748
SWIDTH 480 0
DWIDTH 6 0
BBX 3 2 1 -2
BITMAP
A0
40
ENDCHAR
STARTCHAR uni02ED
ENCODING 749
SWIDTH 480 0
DWIDTH 6 0
BBX 3 3 1 3
BITMAP
E0
00
E0
ENDCHAR
STARTCHAR uni02EE
ENCODING 750
SWIDTH 480 0
DWIDTH 6 0
BBX 5 3 0 4
BITMAP
D8
48
90
ENDCHAR
STARTCHAR uni02EF
ENCODING 751
SWIDTH 480 0
DWIDTH 6 0
BBX 5 4 0 -2
BITMAP
88
50
50
20
ENDCHAR
STARTCHAR uni02F0
ENCODING 752
SWIDTH 480 0
DWIDTH 6 0
BBX 5 4 0 -2
BITMAP
20
50
50
88
ENDCHAR
STARTCHAR uni02F1
ENCODING 753
SWIDTH 480 0
DWIDTH 6 0
BBX 4 5 0 -2
BITMAP
10
60
80
60
10
ENDCHAR
STARTCHAR uni02F2
ENCODING 754
SWIDTH 480 0
DWIDTH 6 0
BBX 4 5 0 -2
BITMAP
80
60
10
60
80
ENDCHAR
STARTCHAR uni02F3
ENCODING 755
SWIDTH 480 0
DWIDTH 6 0
BBX 4 2 1 -2
BITMAP
60
90
ENDCHAR
STARTCHAR uni02F4
ENCODING 756
SWIDTH 480 0
DWIDTH 6 0
BBX 2 2 2 3
BITMAP
80
40
ENDCHAR
STARTCHAR uni02F5
ENCODING 757
SWIDTH 480 0
DWIDTH 6 0
BBX 4 2 1 3
BITMAP
A0
50
ENDCHAR
STARTCHAR uni02F6
ENCODING 758
SWIDTH 480 0
DWIDTH 6 0
BBX 4 2 1 3
BITMAP
50
A0
ENDCHAR
STARTCHAR uni02F7
ENCODING 759
SWIDTH 480 0
DWIDTH 6 0
BBX 5 2 0 -2
BITMAP
68
B0
ENDCHAR
STARTCHAR uni02F8
ENCODING 760
SWIDTH 480 0
DWIDTH 6 0
BBX 2 6 2 0
BITMAP
C0
C0
00
00
C0
C0
ENDCHAR
STARTCHAR uni02F9
ENCODING 761
SWIDTH 480 0
DWIDTH 6 0
BBX 2 3 2 3
BITMAP
C0
80
80
ENDCHAR
STARTCHAR uni02FA
ENCODING 762
SWIDTH 480 0
DWIDTH 6 0
BBX 2 3 2 4
BITMAP
C0
40
40
ENDCHAR
STARTCHAR uni02FB
ENCODING 763
SWIDTH 480 0
DWIDTH 6 0
BBX 2 3 2 0
BITMAP
80
80
C0
ENDCHAR
STARTCHAR uni02FC
ENCODING 764
SWIDTH 480 0
DWIDTH 6 0
BBX 2 3 2 0
BITMAP
40
40
C0
ENDCHAR
STARTCHAR uni02FD
ENCODING 765
SWIDTH 480 0
DWIDTH 6 0
BBX 5 2 0 0
BITMAP
88
F8
ENDCHAR
STARTCHAR uni02FE
ENCODING 766
SWIDTH 480 0
DWIDTH 6 0
BBX 4 2 0 0
BITMAP
80
F0
ENDCHAR
STARTCHAR uni02FF
ENCODING 767
SWIDTH 480 0
DWIDTH 6 0
BBX 5 3 0 -1
BITMAP
40
F8
40
ENDCHAR
STARTCHAR gravecomb
ENCODING 768
SWIDTH 480 0
DWIDTH 6 0
BBX 2 2 1 8
BITMAP
80
40
ENDCHAR
STARTCHAR acutecomb
ENCODING 769
SWIDTH 480 0
DWIDTH 6 0
BBX 2 2 2 8
BITMAP
40
80
ENDCHAR
STARTCHAR uni0302
ENCODING 770
SWIDTH 480 0
DWIDTH 6 0
BBX 3 2 1 8
BITMAP
40
A0
ENDCHAR
STARTCHAR tildecomb
ENCODING 771
SWIDTH 480 0
DWIDTH 6 0
BBX 5 2 0 8
BITMAP
68
B0
ENDCHAR
STARTCHAR uni0304
ENCODING 772
SWIDTH 480 0
DWIDTH 6 0
BBX 3 1 1 8
BITMAP
E0
ENDCHAR
STARTCHAR uni0305
ENCODING 773
SWIDTH 480 0
DWIDTH 6 0
BBX 5 1 0 8
BITMAP
F8
ENDCHAR
STARTCHAR uni0306
ENCODING 774
SWIDTH 480 0
DWIDTH 6 0
BBX 5 2 0 8
BITMAP
88
70
ENDCHAR
STARTCHAR uni0307
ENCODING 775
SWIDTH 480 0
DWIDTH 6 0
BBX 1 1 2 8
BITMAP
80
ENDCHAR
STARTCHAR uni0308
ENCODING 776
SWIDTH 480 0
DWIDTH 6 0
BBX 3 1 1 8
BITMAP
A0
ENDCHAR
STARTCHAR hookabovecomb
ENCODING 777
SWIDTH 480 0
DWIDTH 6 0
BBX 3 3 1 7
BITMAP
C0
20
40
ENDCHAR
STARTCHAR uni030A
ENCODING 778
SWIDTH 480 0
DWIDTH 6 0
BBX 3 3 1 7
BITMAP
40
A0
40
ENDCHAR
STARTCHAR uni030B
ENCODING 779
SWIDTH 480 0
DWIDTH 6 0
BBX 5 2 0 8
BITMAP
48
90
ENDCHAR
STARTCHAR uni030C
ENCODING 780
SWIDTH 480 0
DWIDTH 6 0
BBX 3 2 1 8
BITMAP
A0
40
ENDCHAR
STARTCHAR uni030D
ENCODING 781
SWIDTH 480 0
DWIDTH 6 0
BBX 1 2 2 8
BITMAP
80
80
ENDCHAR
STARTCHAR uni030E
ENCODING 782
SWIDTH 480 0
DWIDTH 6 0
BBX 3 2 1 8
BITMAP
A0
A0
ENDCHAR
STARTCHAR uni030F
ENCODING 783
SWIDTH 480 0
DWIDTH 6 0
BBX 5 2 0 8
BITMAP
90
48
ENDCHAR
STARTCHAR uni0310
ENCODING 784
SWIDTH 480 0
DWIDTH 6 0
BBX 5 3 0 7
BITMAP
20
88
70
ENDCHAR
STARTCHAR uni0311
ENCODING 785
SWIDTH 480 0
DWIDTH 6 0
BBX 5 2 0 8
BITMAP
70
88
ENDCHAR
STARTCHAR uni0312
ENCODING 786
SWIDTH 480 0
DWIDTH 6 0
BBX 3 3 1 7
BITMAP
20
40
C0
ENDCHAR
STARTCHAR uni0313
ENCODING 787
SWIDTH 480 0
DWIDTH 6 0
BBX 3 3 1 7
BITMAP
60
40
80
ENDCHAR
STARTCHAR uni0314
ENCODING 788
SWIDTH 480 0
DWIDTH 6 0
BBX 3 3 1 7
BITMAP
C0
40
20
ENDCHAR
STARTCHAR uni0315
ENCODING 789
SWIDTH 480 0
DWIDTH 6 0
BBX 3 3 3 7
BITMAP
60
40
80
ENDCHAR
STARTCHAR uni0316
ENCODING 790
SWIDTH 480 0
DWIDTH 6 0
BBX 2 2 2 -2
BITMAP
80
40
ENDCHAR
STARTCHAR uni0317
ENCODING 791
SWIDTH 480 0
DWIDTH 6 0
BBX 2 2 2 -2
BITMAP
40
80
ENDCHAR
STARTCHAR uni0318
ENCODING 792
SWIDTH 480 0
DWIDTH 6 0
BBX 2 3 2 -2
BITMAP
40
C0
40
ENDCHAR
STARTCHAR uni0319
ENCODING 793
SWIDTH 480 0
DWIDTH 6 0
BBX 2 3 2 -2
BITMAP
80
C0
80
ENDCHAR
STARTCHAR uni031A
ENCODING 794
SWIDTH 480 0
DWIDTH 6 0
BBX 3 3 3 7
BITMAP
E0
20
20
ENDCHAR
STARTCHAR uni031B
ENCODING 795
SWIDTH 480 0
DWIDTH 6 0
BBX 2 3 4 7
BITMAP
40
40
80
ENDCHAR
STARTCHAR uni031C
ENCODING 796
SWIDTH 480 0
DWIDTH 6 0
BBX 2 3 2 -2
BITMAP
40
80
40
ENDCHAR
STARTCHAR uni031D
ENCODING 797
SWIDTH 480 0
DWIDTH 6 0
BBX 3 2 1 -2
BITMAP
40
E0
ENDCHAR
STARTCHAR uni031E
ENCODING 798
SWIDTH 480 0
DWIDTH 6 0
BBX 3 2 1 -2
BITMAP
E0
40
ENDCHAR
STARTCHAR uni031F
ENCODING 799
SWIDTH 480 0
DWIDTH 6 0
BBX 3 3 1 -2
BITMAP
40
E0
40
ENDCHAR
STARTCHAR uni0320
ENCODING 800
SWIDTH 480 0
DWIDTH 6 0
BBX 3 1 1 -2
BITMAP
E0
ENDCHAR
STARTCHAR uni0321
ENCODING 801
SWIDTH 480 0
DWIDTH 6 0
BBX 3 3 2 -2
BITMAP
20
A0
40
ENDCHAR
STARTCHAR uni0322
ENCODING 802
SWIDTH 480 0
DWIDTH 6 0
BBX 2 3 4 -2
BITMAP
80
80
40
ENDCHAR
STARTCHAR dotbelowcomb
ENCODING 803
SWIDTH 480 0
DWIDTH 6 0
BBX 1 1 2 -2
BITMAP
80
ENDCHAR
STARTCHAR uni0324
ENCODING 804
SWIDTH 480 0
DWIDTH 6 0
BBX 3 1 1 -2
BITMAP
A0
ENDCHAR
STARTCHAR uni0325
ENCODING 805
SWIDTH 480 0
DWIDTH 6 0
BBX 3 3 1 -2
BITMAP
40
A0
40
ENDCHAR
STARTCHAR uni0326
ENCODING 806
SWIDTH 480 0
DWIDTH 6 0
BBX 2 2 2 -2
BITMAP
40
80
ENDCHAR
STARTCHAR uni0327
ENCODING 807
SWIDTH 480 0
DWIDTH 6 0
BBX 2 2 2 -2
BITMAP
40
80
ENDCHAR
STARTCHAR uni0328
ENCODING 808
SWIDTH 480 0
DWIDTH 6 0
BBX 2 2 2 -2
BITMAP
80
40
ENDCHAR
STARTCHAR uni0329
ENCODING 809
SWIDTH 480 0
DWIDTH 6 0
BBX 1 2 2 -2
BITMAP
80
80
ENDCHAR
STARTCHAR uni032A
ENCODING 810
SWIDTH 480 0
DWIDTH 6 0
BBX 4 2 1 -2
BITMAP
F0
90
ENDCHAR
STARTCHAR uni032B
ENCODING 811
SWIDTH 480 0
DWIDTH 6 0
BBX 5 2 0 -2
BITMAP
A8
50
ENDCHAR
STARTCHAR uni032C
ENCODING 812
SWIDTH 480 0
DWIDTH 6 0
BBX 4 2 1 -2
BITMAP
90
60
ENDCHAR
STARTCHAR uni032D
ENCODING 813
SWIDTH 480 0
DWIDTH 6 0
BBX 4 2 1 -2
BITMAP
60
90
ENDCHAR
STARTCHAR uni032E
ENCODING 814
SWIDTH 480 0
DWIDTH 6 0
BBX 5 2 0 -2
BITMAP
88
70
ENDCHAR
STARTCHAR uni032F
ENCODING 815
SWIDTH 480 0
DWIDTH 6 0
BBX 5 2 0 -2
BITMAP
70
88
ENDCHAR
STARTCHAR uni0330
ENCODING 816
SWIDTH 480 0
DWIDTH 6 0
BBX 4 2 1 -2
BITMAP
50
A0
ENDCHAR
STARTCHAR uni0331
ENCODING 817
SWIDTH 480 0
DWIDTH 6 0
BBX 5 1 0 -2
BITMAP
F8
ENDCHAR
STARTCHAR uni0332
ENCODING 818
SWIDTH 480 0
DWIDTH 6 0
BBX 6 1 0 -2
BITMAP
FC
ENDCHAR
STARTCHAR uni0333
ENCODING 819
SWIDTH 480 0
DWIDTH 6 0
BBX 6 3 0 -2
BITMAP
FC
00
FC
ENDCHAR
STARTCHAR uni0334
ENCODING 820
SWIDTH 480 0
DWIDTH 6 0
BBX 4 2 1 2
BITMAP
50
A0
ENDCHAR
STARTCHAR uni0335
ENCODING 821
SWIDTH 480 0
DWIDTH 6 0
BBX 3 1 1 3
BITMAP
E0
ENDCHAR
STARTCHAR uni0336
ENCODING 822
SWIDTH 480 0
DWIDTH 6 0
BBX 5 1 0 3
BITMAP
F8
ENDCHAR
STARTCHAR uni0337
ENCODING 823
SWIDTH 480 0
DWIDTH 6 0
BBX 3 3 1 2
BITMAP
20
40
80
ENDCHAR
STARTCHAR uni0338
ENCODING 824
SWIDTH 480 0
DWIDTH 6 0
BBX 5 9 0 0
BITMAP
08
08
10
10
20
40
40
80
80
ENDCHAR
STARTCHAR uni0339
ENCODING 825
SWIDTH 480 0
DWIDTH 6 0
BBX 2 3 2 -2
BITMAP
80
40
80
ENDCHAR
STARTCHAR uni033A
ENCODING 826
SWIDTH 480 0
DWIDTH 6 0
BBX 4 2 1 -2
BITMAP
90
F0
ENDCHAR
STARTCHAR uni033B
ENCODING 827
SWIDTH 480 0
DWIDTH 6 0
BBX 3 3 1 -2
BITMAP
E0
A0
E0
ENDCHAR
STARTCHAR uni033C
ENCODING 828
SWIDTH 480 0
DWIDTH 6 0
BBX 5 2 0 -2
BITMAP
50
A8
ENDCHAR
STARTCHAR uni033D
ENCODING 829
SWIDTH 480 0
DWIDTH 6 0
BBX 3 3 1 7
BITMAP
A0
40
A0
ENDCHAR
STARTCHAR uni033E
ENCODING 830
SWIDTH 480 0
DWIDTH 6 0
BBX 2 4 2 6
BITMAP
40
80
40
80
ENDCHAR
STARTCHAR uni033F
ENCODING 831
SWIDTH 480 0
DWIDTH 6 0
BBX 6 3 0 7
BITMAP
FC
00
FC
ENDCHAR
STARTCHAR uni0340
ENCODING 832
SWIDTH 480 0
DWIDTH 6 0
BBX 2 2 1 8
BITMAP
80
40
ENDCHAR
STARTCHAR uni0341
ENCODING 833
SWIDTH 480 0
DWIDTH 6 0
BBX 2 2 2 8
BITMAP
40
80
ENDCHAR
STARTCHAR uni0342
ENCODING 834
SWIDTH 480 0
DWIDTH 6 0
BBX 5 2 0 8
BITMAP
68
B0
ENDCHAR
STARTCHAR uni0343
ENCODING 835
SWIDTH 480 0
DWIDTH 6 0
BBX 2 3 2 7
BITMAP
C0
40
80
ENDCHAR
STARTCHAR uni0344
ENCODING 836
SWIDTH 480 0
DWIDTH 6 0
BBX 5 3 0 7
BITMAP
10
20
D8
ENDCHAR
STARTCHAR uni0345
ENCODING 837
SWIDTH 480 0
DWIDTH 6 0
BBX 1 1 2 -2
BITMAP
80
ENDCHAR
STARTCHAR uni0346
ENCODING 838
SWIDTH 480 0
DWIDTH 6 0
BBX 3 2 1 8
BITMAP
E0
A0
ENDCHAR
STARTCHAR uni0347
ENCODING 839
SWIDTH 480 0
DWIDTH 6 0
BBX 5 3 0 -2
BITMAP
F8
00
F8
ENDCHAR
STARTCHAR uni0348
ENCODING 840
SWIDTH 480 0
DWIDTH 6 0
BBX 3 2 1 -2
BITMAP
A0
A0
ENDCHAR
STARTCHAR uni0349
ENCODING 841
SWIDTH 480 0
DWIDTH 6 0
BBX 2 2 2 -2
BITMAP
C0
40
ENDCHAR
STARTCHAR uni034A
ENCODING 842
SWIDTH 480 0
DWIDTH 6 0
BBX 5 4 0 5
BITMAP
20
68
B0
20
ENDCHAR
STARTCHAR uni034B
ENCODING 843
SWIDTH 480 0
DWIDTH 6 0
BBX 5 6 0 4
BITMAP
10
00
68
B0
00
40
ENDCHAR
STARTCHAR uni034C
ENCODING 844
SWIDTH 480 0
DWIDTH 6 0
BBX 5 4 0 6
BITMAP
68
B0
68
B0
ENDCHAR
STARTCHAR uni034D
ENCODING 845
SWIDTH 480 0
DWIDTH 6 0
BBX 5 3 0 -2
BITMAP
50
F8
50
ENDCHAR
STARTCHAR uni034E
ENCODING 846
SWIDTH 480 0
DWIDTH 6 0
BBX 3 2 1 -2
BITMAP
40
E0
ENDCHAR
STARTCHAR uni034F
ENCODING 847
SWIDTH 480 0
DWIDTH 6 0
BBX 1 1 5 -2
BITMAP
00
ENDCHAR
STARTCHAR uni0350
ENCODING 848
SWIDTH 480 0
DWIDTH 6 0
BBX 5 3 0 7
BITMAP
E0
38
E0
ENDCHAR
STARTCHAR uni0351
ENCODING 849
SWIDTH 480 0
DWIDTH 6 0
BBX 2 3 1 7
BITMAP
40
80
40
ENDCHAR
STARTCHAR uni0352
ENCODING 850
SWIDTH 480 0
DWIDTH 6 0
BBX 5 3 0 7
BITMAP
70
88
20
ENDCHAR
STARTCHAR uni0353
ENCODING 851
SWIDTH 480 0
DWIDTH 6 0
BBX 3 3 1 -2
BITMAP
A0
40
A0
ENDCHAR
STARTCHAR uni0354
ENCODING 852
SWIDTH 480 0
DWIDTH 6 0
BBX 5 3 0 -2
BITMAP
38
E0
38
ENDCHAR
STARTCHAR uni0355
ENCODING 853
SWIDTH 480 0
DWIDTH 6 0
BBX 5 3 0 -2
BITMAP
E0
38
E0
ENDCHAR
STARTCHAR uni0356
ENCODING 854
SWIDTH 480 0
DWIDTH 6 0
BBX 6 4 0 -2
BITMAP
08
C8
34
D4
ENDCHAR
STARTCHAR uni0357
ENCODING 855
SWIDTH 480 0
DWIDTH 6 0
BBX 2 3 2 7
BITMAP
80
40
80
ENDCHAR
STARTCHAR uni0358
ENCODING 856
SWIDTH 480 0
DWIDTH 6 0
BBX 2 2 3 8
BITMAP
C0
C0
ENDCHAR
STARTCHAR uni0359
ENCODING 857
SWIDTH 480 0
DWIDTH 6 0
BBX 3 3 1 -2
BITMAP
E0
40
E0
ENDCHAR
STARTCHAR uni035A
ENCODING 858
SWIDTH 480 0
DWIDTH 6 0
BBX 5 3 0 -2
BITMAP
50
A8
50
ENDCHAR
STARTCHAR uni035B
ENCODING 859
SWIDTH 480 0
DWIDTH 6 0
BBX 3 3 1 7
BITMAP
80
E0
20
ENDCHAR
STARTCHAR uni035C
ENCODING 860
SWIDTH 480 0
DWIDTH 6 0
BBX 5 2 1 -2
BITMAP
88
70
ENDCHAR
STARTCHAR uni035D
ENCODING 861
SWIDTH 480 0
DWIDTH 6 0
BBX 5 2 1 8
BITMAP
70
88
ENDCHAR
STARTCHAR uni035E
ENCODING 862
SWIDTH 480 0
DWIDTH 6 0
BBX 5 1 1 9
BITMAP
F8
ENDCHAR
STARTCHAR uni035F
ENCODING 863
SWIDTH 480 0
DWIDTH 6 0
BBX 5 1 1 -2
BITMAP
F8
ENDCHAR
STARTCHAR uni0360
ENCODING 864
SWIDTH 480 0
DWIDTH 6 0
BBX 5 2 1 8
BITMAP
60
98
ENDCHAR
STARTCHAR uni0361
ENCODING 865
SWIDTH 480 0
DWIDTH 6 0
BBX 5 2 1 8
BITMAP
70
88
ENDCHAR
STARTCHAR uni0362
ENCODING 866
SWIDTH 480 0
DWIDTH 6 0
BBX 5 3 1 -2
BITMAP
10
F8
10
ENDCHAR
STARTCHAR uni0363
ENCODING 867
SWIDTH 480 0
DWIDTH 6 0
BBX 3 4 1 6
BITMAP
40
A0
A0
60
ENDCHAR
STARTCHAR uni0364
ENCODING 868
SWIDTH 480 0
DWIDTH 6 0
BBX 3 4 1 6
BITMAP
40
E0
80
60
ENDCHAR
STARTCHAR uni0365
ENCODING 869
SWIDTH 480 0
DWIDTH 6 0
BBX 1 4 2 6
BITMAP
80
00
80
80
ENDCHAR
STARTCHAR uni0366
ENCODING 870
SWIDTH 480 0
DWIDTH 6 0
BBX 4 4 1 6
BITMAP
60
90
90
60
ENDCHAR
STARTCHAR uni0367
ENCODING 871
SWIDTH 480 0
DWIDTH 6 0
BBX 3 3 1 7
BITMAP
A0
A0
60
ENDCHAR
STARTCHAR uni0368
ENCODING 872
SWIDTH 480 0
DWIDTH 6 0
BBX 3 3 1 7
BITMAP
60
80
60
ENDCHAR
STARTCHAR uni0369
ENCODING 873
SWIDTH 480 0
DWIDTH 6 0
BBX 3 4 1 6
BITMAP
20
60
A0
60
ENDCHAR
STARTCHAR uni036A
ENCODING 874
SWIDTH 480 0
DWIDTH 6 0
BBX 3 3 1 7
BITMAP
80
C0
A0
ENDCHAR
STARTCHAR uni036B
ENCODING 875
SWIDTH 480 0
DWIDTH 6 0
BBX 5 3 0 7
BITMAP
D0
A8
A8
ENDCHAR
STARTCHAR uni036C
ENCODING 876
SWIDTH 480 0
DWIDTH 6 0
BBX 3 4 1 6
BITMAP
A0
C0
80
80
ENDCHAR
STARTCHAR uni036D
ENCODING 877
SWIDTH 480 0
DWIDTH 6 0
BBX 3 4 1 6
BITMAP
40
E0
40
60
ENDCHAR
STARTCHAR uni036E
ENCODING 878
SWIDTH 480 0
DWIDTH 6 0
BBX 3 4 1 6
BITMAP
A0
A0
40
40
ENDCHAR
STARTCHAR uni036F
ENCODING 879
SWIDTH 480 0
DWIDTH 6 0
BBX 3 3 1 7
BITMAP
A0
40
A0
ENDCHAR
STARTCHAR uni0370
ENCODING 880
SWIDTH 480 0
DWIDTH 6 0
BBX 4 7 0 0
BITMAP
80
80
80
F0
80
80
80
ENDCHAR
STARTCHAR uni0371
ENCODING 881
SWIDTH 480 0
DWIDTH 6 0
BBX 5 6 0 0
BITMAP
60
A0
38
20
20
20
ENDCHAR
STARTCHAR uni0372
ENCODING 882
SWIDTH 480 0
DWIDTH 6 0
BBX 5 7 0 0
BITMAP
F8
A8
A8
20
20
20
70
ENDCHAR
STARTCHAR uni0373
ENCODING 883
SWIDTH 480 0
DWIDTH 6 0
BBX 5 7 0 0
BITMAP
F8
A8
20
20
20
20
20
ENDCHAR
STARTCHAR uni0374
ENCODING 884
SWIDTH 480 0
DWIDTH 6 0
BBX 2 2 2 7
BITMAP
40
80
ENDCHAR
STARTCHAR uni0375
ENCODING 885
SWIDTH 480 0
DWIDTH 6 0
BBX 2 2 2 -2
BITMAP
40
80
ENDCHAR
STARTCHAR uni0376
ENCODING 886
SWIDTH 480 0
DWIDTH 6 0
BBX 5 7 0 0
BITMAP
88
98
98
A8
C8
C8
88
ENDCHAR
STARTCHAR uni0377
ENCODING 887
SWIDTH 480 0
DWIDTH 6 0
BBX 5 6 0 -1
BITMAP
90
B0
D0
90
90
08
ENDCHAR
STARTCHAR uni037A
ENCODING 890
SWIDTH 480 0
DWIDTH 6 0
BBX 2 2 2 -2
BITMAP
80
C0
ENDCHAR
STARTCHAR uni037B
ENCODING 891
SWIDTH 480 0
DWIDTH 6 0
BBX 5 5 0 0
BITMAP
70
88
08
88
70
ENDCHAR
STARTCHAR uni037C
ENCODING 892
SWIDTH 480 0
DWIDTH 6 0
BBX 5 5 0 0
BITMAP
70
88
A0
88
70
ENDCHAR
STARTCHAR uni037D
ENCODING 893
SWIDTH 480 0
DWIDTH 6 0
BBX 5 5 0 0
BITMAP
70
88
28
88
70
ENDCHAR
STARTCHAR uni037E
ENCODING 894
SWIDTH 480 0
DWIDTH 6 0
BBX 3 7 1 -1
BITMAP
40
E0
40
00
60
40
80
ENDCHAR
STARTCHAR tonos
ENCODING 900
SWIDTH 480 0
DWIDTH 6 0
BBX 2 2 2 7
BITMAP
40
80
ENDCHAR
STARTCHAR dieresistonos
ENCODING 901
SWIDTH 480 0
DWIDTH 6 0
BBX 3 4 1 6
BITMAP
20
40
00
A0
ENDCHAR
STARTCHAR Alphatonos
ENCODING 902
SWIDTH 480 0
DWIDTH 6 0
BBX 5 10 0 0
BITMAP
40
80
00
70
88
88
F8
88
88
88
ENDCHAR
STARTCHAR anoteleia
ENCODING 903
SWIDTH 480 0
DWIDTH 6 0
BBX 2 2 2 3
BITMAP
C0
C0
ENDCHAR
STARTCHAR Epsilontonos
ENCODING 904
SWIDTH 480 0
DWIDTH 6 0
BBX 5 10 0 0
BITMAP
40
80
00
F8
80
80
F0
80
80
F8
ENDCHAR
STARTCHAR Etatonos
ENCODING 905
SWIDTH 480 0
DWIDTH 6 0
BBX 5 10 0 0
BITMAP
40
80
00
88
88
88
F8
88
88
88
ENDCHAR
STARTCHAR Iotatonos
ENCODING 906
SWIDTH 480 0
DWIDTH 6 0
BBX 4 10 0 0
BITMAP
40
80
00
70
20
20
20
20
20
70
ENDCHAR
STARTCHAR Omicrontonos
ENCODING 908
SWIDTH 480 0
DWIDTH 6 0
BBX 5 10 0 0
BITMAP
40
80
00
70
88
88
88
88
88
70
ENDCHAR
STARTCHAR Upsilontonos
ENCODING 910
SWIDTH 480 0
DWIDTH 6 0
BBX 5 10 0 0
BITMAP
40
80
00
88
88
50
20
20
20
20
ENDCHAR
STARTCHAR Omegatonos
ENCODING 911
SWIDTH 480 0
DWIDTH 6 0
BBX 5 10 0 0
BITMAP
40
80
00
70
88
88
88
88
50
D8
ENDCHAR
STARTCHAR iotadieresistonos
ENCODING 912
SWIDTH 480 0
DWIDTH 6 0
BBX 4 10 1 0
BITMAP
20
40
00
A0
00
40
40
40
50
20
ENDCHAR
STARTCHAR Alpha
ENCODING 913
SWIDTH 480 0
DWIDTH 6 0
BBX 5 7 0 0
BITMAP
70
88
88
F8
88
88
88
ENDCHAR
STARTCHAR Beta
ENCODING 914
SWIDTH 480 0
DWIDTH 6 0
BBX 5 7 0 0
BITMAP
F0
88
88
F0
88
88
F0
ENDCHAR
STARTCHAR Gamma
ENCODING 915
SWIDTH 480 0
DWIDTH 6 0
BBX 5 7 0 0
BITMAP
F8
80
80
80
80
80
80
ENDCHAR
STARTCHAR Delta
ENCODING 916
SWIDTH 480 0
DWIDTH 6 0
BBX 5 7 0 0
BITMAP
20
20
50
50
88
88
F8
ENDCHAR
STARTCHAR Epsilon
ENCODING 917
SWIDTH 480 0
DWIDTH 6 0
BBX 5 7 0 0
BITMAP
F8
80
80
F0
80
80
F8
ENDCHAR
STARTCHAR Zeta
ENCODING 918
SWIDTH 480 0
DWIDTH 6 0
BBX 5 7 0 0
BITMAP
F8
08
10
20
40
80
F8
ENDCHAR
STARTCHAR Eta
ENCODING 919
SWIDTH 480 0
DWIDTH 6 0
BBX 5 7 0 0
BITMAP
88
88
88
F8
88
88
88
ENDCHAR
STARTCHAR Theta
ENCODING 920
SWIDTH 480 0
DWIDTH 6 0
BBX 5 7 0 0
BITMAP
70
88
88
F8
88
88
70
ENDCHAR
STARTCHAR Iota
ENCODING 921
SWIDTH 480 0
DWIDTH 6 0
BBX 3 7 1 0
BITMAP
E0
40
40
40
40
40
E0
ENDCHAR
STARTCHAR Kappa
ENCODING 922
SWIDTH 480 0
DWIDTH 6 0
BBX 5 7 0 0
BITMAP
88
90
A0
C0
A0
90
88
ENDCHAR
STARTCHAR Lambda
ENCODING 923
SWIDTH 480 0
DWIDTH 6 0
BBX 5 7 0 0
BITMAP
20
20
50
50
88
88
88
ENDCHAR
STARTCHAR Mu
ENCODING 924
SWIDTH 480 0
DWIDTH 6 0
BBX 5 7 0 0
BITMAP
88
D8
A8
88
88
88
88
ENDCHAR
STARTCHAR Nu
ENCODING 925
SWIDTH 480 0
DWIDTH 6 0
BBX 5 7 0 0
BITMAP
88
88
C8
A8
98
88
88
ENDCHAR
STARTCHAR Xi
ENCODING 926
SWIDTH 480 0
DWIDTH 6 0
BBX 5 7 0 0
BITMAP
F8
00
00
70
00
00
F8
ENDCHAR
STARTCHAR Omicron
ENCODING 927
SWIDTH 480 0
DWIDTH 6 0
BBX 5 7 0 0
BITMAP
70
88
88
88
88
88
70
ENDCHAR
STARTCHAR Pi
ENCODING 928
SWIDTH 480 0
DWIDTH 6 0
BBX 5 7 0 0
BITMAP
F8
88
88
88
88
88
88
ENDCHAR
STARTCHAR Rho
ENCODING 929
SWIDTH 480 0
DWIDTH 6 0
BBX 5 7 0 0
BITMAP
F0
88
88
F0
80
80
80
ENDCHAR
STARTCHAR Sigma
ENCODING 931
SWIDTH 480 0
DWIDTH 6 0
BBX 5 7 0 0
BITMAP
F8
40
20
10
20
40
F8
ENDCHAR
STARTCHAR Tau
ENCODING 932
SWIDTH 480 0
DWIDTH 6 0
BBX 5 7 0 0
BITMAP
F8
20
20
20
20
20
20
ENDCHAR
STARTCHAR Upsilon
ENCODING 933
SWIDTH 480 0
DWIDTH 6 0
BBX 5 7 0 0
BITMAP
88
88
50
20
20
20
20
ENDCHAR
STARTCHAR Phi
ENCODING 934
SWIDTH 480 0
DWIDTH 6 0
BBX 5 7 0 0
BITMAP
20
70
A8
A8
A8
70
20
ENDCHAR
STARTCHAR Chi
ENCODING 935
SWIDTH 480 0
DWIDTH 6 0
BBX 5 7 0 0
BITMAP
88
88
50
20
50
88
88
ENDCHAR
STARTCHAR Psi
ENCODING 936
SWIDTH 480 0
DWIDTH 6 0
BBX 5 7 0 0
BITMAP
A8
A8
A8
A8
70
20
20
ENDCHAR
STARTCHAR Omega
ENCODING 937
SWIDTH 480 0
DWIDTH 6 0
BBX 5 7 0 0
BITMAP
70
88
88
88
88
50
D8
ENDCHAR
STARTCHAR Iotadieresis
ENCODING 938
SWIDTH 480 0
DWIDTH 6 0
BBX 3 9 1 0
BITMAP
A0
00
E0
40
40
40
40
40
E0
ENDCHAR
STARTCHAR Upsilondieresis
ENCODING 939
SWIDTH 480 0
DWIDTH 6 0
BBX 5 9 0 0
BITMAP
50
00
88
88
50
20
20
20
20
ENDCHAR
STARTCHAR alphatonos
ENCODING 940
SWIDTH 480 0
DWIDTH 6 0
BBX 5 8 0 0
BITMAP
10
20
00
68
90
90
90
68
ENDCHAR
STARTCHAR epsilontonos
ENCODING 941
SWIDTH 480 0
DWIDTH 6 0
BBX 5 8 0 0
BITMAP
10
20
00
70
88
60
88
70
ENDCHAR
STARTCHAR etatonos
ENCODING 942
SWIDTH 480 0
DWIDTH 6 0
BBX 5 10 0 -2
BITMAP
10
20
00
B0
C8
88
88
88
08
08
ENDCHAR
STARTCHAR iotatonos
ENCODING 943
SWIDTH 480 0
DWIDTH 6 0
BBX 3 8 1 0
BITMAP
40
80
00
80
80
80
A0
40
ENDCHAR
STARTCHAR upsilondieresistonos
ENCODING 944
SWIDTH 480 0
DWIDTH 6 0
BBX 5 10 0 0
BITMAP
10
20
00
50
00
90
88
88
88
70
ENDCHAR
STARTCHAR alpha
ENCODING 945
SWIDTH 480 0
DWIDTH 6 0
BBX 5 5 0 0
BITMAP
68
90
90
90
68
ENDCHAR
STARTCHAR beta
ENCODING 946
SWIDTH 480 0
DWIDTH 6 0
BBX 5 9 0 -2
BITMAP
60
90
90
B0
88
88
F0
80
80
ENDCHAR
STARTCHAR gamma
ENCODING 947
SWIDTH 480 0
DWIDTH 6 0
BBX 5 7 0 -2
BITMAP
88
88
50
50
20
20
20
ENDCHAR
STARTCHAR delta
ENCODING 948
SWIDTH 480 0
DWIDTH 6 0
BBX 5 7 0 0
BITMAP
70
80
70
88
88
88
70
ENDCHAR
STARTCHAR epsilon
ENCODING 949
SWIDTH 480 0
DWIDTH 6 0
BBX 5 5 0 0
BITMAP
70
88
60
88
70
ENDCHAR
STARTCHAR zeta
ENCODING 950
SWIDTH 480 0
DWIDTH 6 0
BBX 5 8 0 -1
BITMAP
F8
20
40
40
40
30
08
30
ENDCHAR
STARTCHAR eta
ENCODING 951
SWIDTH 480 0
DWIDTH 6 0
BBX 5 7 0 -2
BITMAP
B0
C8
88
88
88
08
08
ENDCHAR
STARTCHAR theta
ENCODING 952
SWIDTH 480 0
DWIDTH 6 0
BBX 4 7 1 0
BITMAP
60
90
90
F0
90
90
60
ENDCHAR
STARTCHAR iota
ENCODING 953
SWIDTH 480 0
DWIDTH 6 0
BBX 3 5 2 0
BITMAP
80
80
80
A0
40
ENDCHAR
STARTCHAR kappa
ENCODING 954
SWIDTH 480 0
DWIDTH 6 0
BBX 4 5 1 0
BITMAP
90
A0
C0
A0
90
ENDCHAR
STARTCHAR lambda
ENCODING 955
SWIDTH 480 0
DWIDTH 6 0
BBX 5 9 0 0
BITMAP
80
40
40
20
20
50
50
88
88
ENDCHAR
STARTCHAR mu
ENCODING 956
SWIDTH 480 0
DWIDTH 6 0
BBX 5 7 0 -2
BITMAP
88
88
88
98
E8
80
80
ENDCHAR
STARTCHAR nu
ENCODING 957
SWIDTH 480 0
DWIDTH 6 0
BBX 5 5 0 0
BITMAP
88
88
50
50
20
ENDCHAR
STARTCHAR xi
ENCODING 958
SWIDTH 480 0
DWIDTH 6 0
BBX 5 9 0 -2
BITMAP
F8
20
40
70
80
80
70
08
10
ENDCHAR
STARTCHAR omicron
ENCODING 959
SWIDTH 480 0
DWIDTH 6 0
BBX 5 5 0 0
BITMAP
70
88
88
88
70
ENDCHAR
STARTCHAR pi
ENCODING 960
SWIDTH 480 0
DWIDTH 6 0
BBX 6 5 0 0
BITMAP
F8
50
50
54
48
ENDCHAR
STARTCHAR rho
ENCODING 961
SWIDTH 480 0
DWIDTH 6 0
BBX 5 7 0 -2
BITMAP
70
88
88
C8
B0
80
80
ENDCHAR
STARTCHAR sigma1
ENCODING 962
SWIDTH 480 0
DWIDTH 6 0
BBX 5 7 0 -2
BITMAP
70
88
80
80
70
08
30
ENDCHAR
STARTCHAR sigma
ENCODING 963
SWIDTH 480 0
DWIDTH 6 0
BBX 5 5 0 0
BITMAP
78
90
88
88
70
ENDCHAR
STARTCHAR tau
ENCODING 964
SWIDTH 480 0
DWIDTH 6 0
BBX 5 5 0 0
BITMAP
F8
20
20
28
10
ENDCHAR
STARTCHAR upsilon
ENCODING 965
SWIDTH 480 0
DWIDTH 6 0
BBX 5 5 0 0
BITMAP
90
88
88
88
70
ENDCHAR
STARTCHAR phi
ENCODING 966
SWIDTH 480 0
DWIDTH 6 0
BBX 5 7 0 -2
BITMAP
10
A8
A8
A8
70
20
20
ENDCHAR
STARTCHAR chi
ENCODING 967
SWIDTH 480 0
DWIDTH 6 0
BBX 5 7 0 -2
BITMAP
88
88
50
20
50
88
88
ENDCHAR
STARTCHAR psi
ENCODING 968
SWIDTH 480 0
DWIDTH 6 0
BBX 5 7 0 -2
BITMAP
A8
A8
A8
A8
70
20
20
ENDCHAR
STARTCHAR omega
ENCODING 969
SWIDTH 480 0
DWIDTH 6 0
BBX 5 5 0 0
BITMAP
50
88
A8
A8
50
ENDCHAR
STARTCHAR iotadieresis
ENCODING 970
SWIDTH 480 0
DWIDTH 6 0
BBX 4 7 1 0
BITMAP
A0
00
40
40
40
50
20
ENDCHAR
STARTCHAR upsilondieresis
ENCODING 971
SWIDTH 480 0
DWIDTH 6 0
BBX 5 7 0 0
BITMAP
50
00
90
88
88
88
70
ENDCHAR
STARTCHAR omicrontonos
ENCODING 972
SWIDTH 480 0
DWIDTH 6 0
BBX 5 8 0 0
BITMAP
10
20
00
70
88
88
88
70
ENDCHAR
STARTCHAR upsilontonos
ENCODING 973
SWIDTH 480 0
DWIDTH 6 0
BBX 5 8 0 0
BITMAP
10
20
00
90
88
88
88
70
ENDCHAR
STARTCHAR omegatonos
ENCODING 974
SWIDTH 480 0
DWIDTH 6 0
BBX 5 8 0 0
BITMAP
10
20
00
50
88
A8
A8
50
ENDCHAR
STARTCHAR uni03CF
ENCODING 975
SWIDTH 480 0
DWIDTH 6 0
BBX 5 9 0 -2
BITMAP
88
90
A0
C0
A0
90
88
30
10
ENDCHAR
STARTCHAR uni03D0
ENCODING 976
SWIDTH 480 0
DWIDTH 6 0
BBX 5 7 0 0
BITMAP
60
90
90
B0
C8
88
70
ENDCHAR
STARTCHAR theta1
ENCODING 977
SWIDTH 480 0
DWIDTH 6 0
BBX 6 7 0 0
BITMAP
30
48
3C
08
C8
48
30
ENDCHAR
STARTCHAR Upsilon1
ENCODING 978
SWIDTH 480 0
DWIDTH 6 0
BBX 6 7 0 0
BITMAP
88
54
20
20
20
20
20
ENDCHAR
STARTCHAR uni03D3
ENCODING 979
SWIDTH 480 0
DWIDTH 6 0
BBX 6 10 0 0
BITMAP
40
80
00
88
54
20
20
20
20
20
ENDCHAR
STARTCHAR uni03D4
ENCODING 980
SWIDTH 480 0
DWIDTH 6 0
BBX 6 9 0 0
BITMAP
D8
00
88
54
20
20
20
20
20
ENDCHAR
STARTCHAR phi1
ENCODING 981
SWIDTH 480 0
DWIDTH 6 0
BBX 5 9 0 -2
BITMAP
20
20
70
A8
A8
A8
70
20
20
ENDCHAR
STARTCHAR omega1
ENCODING 982
SWIDTH 480 0
DWIDTH 6 0
BBX 5 5 0 0
BITMAP
F8
88
A8
A8
50
ENDCHAR
STARTCHAR uni03D7
ENCODING 983
SWIDTH 480 0
DWIDTH 6 0
BBX 5 7 0 -2
BITMAP
88
48
70
50
88
08
30
ENDCHAR
STARTCHAR uni03D8
ENCODING 984
SWIDTH 480 0
DWIDTH 6 0
BBX 5 9 0 -2
BITMAP
70
88
88
88
88
88
70
20
20
ENDCHAR
STARTCHAR uni03D9
ENCODING 985
SWIDTH 480 0
DWIDTH 6 0
BBX 5 7 0 -2
BITMAP
70
88
88
88
70
20
20
ENDCHAR
STARTCHAR uni03DA
ENCODING 986
SWIDTH 480 0
DWIDTH 6 0
BBX 5 7 0 0
BITMAP
70
88
88
80
80
70
10
ENDCHAR
STARTCHAR uni03DB
ENCODING 987
SWIDTH 480 0
DWIDTH 6 0
BBX 5 8 0 -2
BITMAP
08
70
80
80
80
70
08
30
ENDCHAR
STARTCHAR uni03DC
ENCODING 988
SWIDTH 480 0
DWIDTH 6 0
BBX 5 7 0 0
BITMAP
F8
80
80
E0
80
80
80
ENDCHAR
STARTCHAR uni03DD
ENCODING 989
SWIDTH 480 0
DWIDTH 6 0
BBX 4 7 1 -2
BITMAP
F0
80
80
E0
80
80
80
ENDCHAR
STARTCHAR uni03DE
ENCODING 990
SWIDTH 480 0
DWIDTH 6 0
BBX 5 7 0 0
BITMAP
40
40
80
F8
08
10
10
ENDCHAR
STARTCHAR uni03DF
ENCODING 991
SWIDTH 480 0
DWIDTH 6 0
BBX 6 8 0 -2
BITMAP
80
40
48
58
68
48
08
04
ENDCHAR
STARTCHAR uni03E0
ENCODING 992
SWIDTH 480 0
DWIDTH 6 0
BBX 5 7 0 0
BITMAP
E0
30
48
18
28
08
10
ENDCHAR
STARTCHAR uni03E1
ENCODING 993
SWIDTH 480 0
DWIDTH 6 0
BBX 5 9 0 -2
BITMAP
C0
20
10
30
48
18
28
08
08
ENDCHAR
STARTCHAR uni03E2
ENCODING 994
SWIDTH 480 0
DWIDTH 6 0
BBX 5 8 0 -1
BITMAP
A8
A8
A8
A8
A8
58
08
F0
ENDCHAR
STARTCHAR uni03E3
ENCODING 995
SWIDTH 480 0
DWIDTH 6 0
BBX 5 6 0 -1
BITMAP
A8
A8
A8
58
08
F0
ENDCHAR
STARTCHAR uni03E4
ENCODING 996
SWIDTH 480 0
DWIDTH 6 0
BBX 5 9 0 -2
BITMAP
48
88
88
88
88
98
68
08
08
ENDCHAR
STARTCHAR uni03E5
ENCODING 997
SWIDTH 480 0
DWIDTH 6 0
BBX 5 7 0 -2
BITMAP
48
88
88
88
78
08
08
ENDCHAR
STARTCHAR uni03E6
ENCODING 998
SWIDTH 480 0
DWIDTH 6 0
BBX 5 8 0 -1
BITMAP
80
80
B0
C8
88
88
08
70
ENDCHAR
STARTCHAR uni03E7
ENCODING 999
SWIDTH 480 0
DWIDTH 6 0
BBX 6 6 0 0
BITMAP
6C
90
68
08
C8
B0
ENDCHAR
STARTCHAR uni03E8
ENCODING 1000
SWIDTH 480 0
DWIDTH 6 0
BBX 5 8 0 -1
BITMAP
70
88
88
10
20
40
88
70
ENDCHAR
STARTCHAR uni03E9
ENCODING 1001
SWIDTH 480 0
DWIDTH 6 0
BBX 5 7 0 -1
BITMAP
70
88
88
10
60
80
78
ENDCHAR
STARTCHAR uni03EA
ENCODING 1002
SWIDTH 480 0
DWIDTH 6 0
BBX 5 7 0 0
BITMAP
88
50
20
50
50
88
F8
ENDCHAR
STARTCHAR uni03EB
ENCODING 1003
SWIDTH 480 0
DWIDTH 6 0
BBX 5 6 0 0
BITMAP
88
50
20
50
88
F8
ENDCHAR
STARTCHAR uni03EC
ENCODING 1004
SWIDTH 480 0
DWIDTH 6 0
BBX 5 7 0 0
BITMAP
38
40
80
E0
90
88
F0
ENDCHAR
STARTCHAR uni03ED
ENCODING 1005
SWIDTH 480 0
DWIDTH 6 0
BBX 4 6 0 0
BITMAP
30
40
80
E0
90
E0
ENDCHAR
STARTCHAR uni03EE
ENCODING 1006
SWIDTH 480 0
DWIDTH 6 0
BBX 5 7 0 0
BITMAP
20
20
F8
A8
20
20
30
ENDCHAR
STARTCHAR uni03EF
ENCODING 1007
SWIDTH 480 0
DWIDTH 6 0
BBX 5 9 0 -2
BITMAP
20
20
F8
A0
20
20
20
20
20
ENDCHAR
STARTCHAR uni03F0
ENCODING 1008
SWIDTH 480 0
DWIDTH 6 0
BBX 5 5 0 0
BITMAP
88
48
70
50
88
ENDCHAR
STARTCHAR uni03F1
ENCODING 1009
SWIDTH 480 0
DWIDTH 6 0
BBX 5 7 0 -2
BITMAP
70
88
88
88
F0
80
78
ENDCHAR
STARTCHAR uni03F2
ENCODING 1010
SWIDTH 480 0
DWIDTH 6 0
BBX 5 5 0 0
BITMAP
70
88
80
88
70
ENDCHAR
STARTCHAR uni03F3
ENCODING 1011
SWIDTH 480 0
DWIDTH 6 0
BBX 3 9 1 -2
BITMAP
20
00
60
20
20
20
20
A0
40
ENDCHAR
STARTCHAR uni03F4
ENCODING 1012
SWIDTH 480 0
DWIDTH 6 0
BBX 5 7 0 0
BITMAP
70
88
88
F8
88
88
70
ENDCHAR
STARTCHAR uni03F5
ENCODING 1013
SWIDTH 480 0
DWIDTH 6 0
BBX 4 5 1 0
BITMAP
70
80
E0
80
70
ENDCHAR
STARTCHAR uni03F6
ENCODING 1014
SWIDTH 480 0
DWIDTH 6 0
BBX 4 5 1 0
BITMAP
E0
10
70
10
E0
ENDCHAR
STARTCHAR uni03F7
ENCODING 1015
SWIDTH 480 0
DWIDTH 6 0
BBX 5 8 0 0
BITMAP
E0
40
70
48
48
70
40
E0
ENDCHAR
STARTCHAR uni03F8
ENCODING 1016
SWIDTH 480 0
DWIDTH 6 0
BBX 5 8 0 0
BITMAP
80
B0
C8
88
88
C8
B0
80
ENDCHAR
STARTCHAR uni03F9
ENCODING 1017
SWIDTH 480 0
DWIDTH 6 0
BBX 5 7 0 0
BITMAP
70
88
80
80
80
88
70
ENDCHAR
STARTCHAR uni03FA
ENCODING 1018
SWIDTH 480 0
DWIDTH 6 0
BBX 5 7 0 0
BITMAP
88
D8
A8
88
88
88
88
ENDCHAR
STARTCHAR uni03FB
ENCODING 1019
SWIDTH 480 0
DWIDTH 6 0
BBX 5 7 0 -2
BITMAP
88
D8
A8
88
88
80
80
ENDCHAR
STARTCHAR uni03FC
ENCODING 1020
SWIDTH 480 0
DWIDTH 6 0
BBX 5 7 0 -2
BITMAP
30
48
48
70
40
F0
40
ENDCHAR
STARTCHAR uni03FD
ENCODING 1021
SWIDTH 480 0
DWIDTH 6 0
BBX 5 7 0 0
BITMAP
70
88
08
08
08
88
70
ENDCHAR
STARTCHAR uni03FE
ENCODING 1022
SWIDTH 480 0
DWIDTH 6 0
BBX 5 7 0 0
BITMAP
70
88
80
A0
80
88
70
ENDCHAR
STARTCHAR uni03FF
ENCODING 1023
SWIDTH 480 0
DWIDTH 6 0
BBX 5 7 0 0
BITMAP
70
88
08
28
08
88
70
ENDCHAR
STARTCHAR uni0400
ENCODING 1024
SWIDTH 480 0
DWIDTH 6 0
BBX 5 10 0 0
BITMAP
40
20
00
F8
80
80
F0
80
80
F8
ENDCHAR
STARTCHAR afii10023
ENCODING 1025
SWIDTH 480 0
DWIDTH 6 0
BBX 5 9 0 0
BITMAP
50
00
F8
80
80
F0
80
80
F8
ENDCHAR
STARTCHAR afii10051
ENCODING 1026
SWIDTH 480 0
DWIDTH 6 0
BBX 5 9 0 -2
BITMAP
E0
40
40
70
48
48
48
08
30
ENDCHAR
STARTCHAR afii10052
ENCODING 1027
SWIDTH 480 0
DWIDTH 6 0
BBX 5 10 0 0
BITMAP
10
20
00
F8
80
80
80
80
80
80
ENDCHAR
STARTCHAR afii10053
ENCODING 1028
SWIDTH 480 0
DWIDTH 6 0
BBX 5 7 0 0
BITMAP
70
88
80
F0
80
88
70
ENDCHAR
STARTCHAR afii10054
ENCODING 1029
SWIDTH 480 0
DWIDTH 6 0
BBX 5 7 0 0
BITMAP
70
88
80
70
08
88
70
ENDCHAR
STARTCHAR afii10055
ENCODING 1030
SWIDTH 480 0
DWIDTH 6 0
BBX 3 7 1 0
BITMAP
E0
40
40
40
40
40
E0
ENDCHAR
STARTCHAR afii10056
ENCODING 1031
SWIDTH 480 0
DWIDTH 6 0
BBX 3 9 1 0
BITMAP
A0
00
E0
40
40
40
40
40
E0
ENDCHAR
STARTCHAR afii10057
ENCODING 1032
SWIDTH 480 0
DWIDTH 6 0
BBX 5 7 0 0
BITMAP
38
10
10
10
10
90
60
ENDCHAR
STARTCHAR afii10058
ENCODING 1033
SWIDTH 480 0
DWIDTH 6 0
BBX 5 7 0 0
BITMAP
60
A0
A0
B0
A8
A8
B0
ENDCHAR
STARTCHAR afii10059
ENCODING 1034
SWIDTH 480 0
DWIDTH 6 0
BBX 5 7 0 0
BITMAP
A0
A0
A0
F0
A8
A8
B0
ENDCHAR
STARTCHAR afii10060
ENCODING 1035
SWIDTH 480 0
DWIDTH 6 0
BBX 5 7 0 0
BITMAP
E0
40
40
70
48
48
48
ENDCHAR
STARTCHAR afii10061
ENCODING 1036
SWIDTH 480 0
DWIDTH 6 0
BBX 5 10 0 0
BITMAP
10
20
00
88
90
A0
C0
A0
90
88
ENDCHAR
STARTCHAR uni040D
ENCODING 1037
SWIDTH 480 0
DWIDTH 6 0
BBX 5 10 0 0
BITMAP
40
20
00
88
88
98
A8
C8
88
88
ENDCHAR
STARTCHAR afii10062
ENCODING 1038
SWIDTH 480 0
DWIDTH 6 0
BBX 5 10 0 0
BITMAP
88
70
00
88
88
88
88
78
08
70
ENDCHAR
STARTCHAR afii10145
ENCODING 1039
SWIDTH 480 0
DWIDTH 6 0
BBX 5 9 0 -2
BITMAP
88
88
88
88
88
88
F8
20
20
ENDCHAR
STARTCHAR afii10017
ENCODING 1040
SWIDTH 480 0
DWIDTH 6 0
BBX 5 7 0 0
BITMAP
70
88
88
F8
88
88
88
ENDCHAR
STARTCHAR afii10018
ENCODING 1041
SWIDTH 480 0
DWIDTH 6 0
BBX 5 7 0 0
BITMAP
F0
80
80
F0
88
88
F0
ENDCHAR
STARTCHAR afii10019
ENCODING 1042
SWIDTH 480 0
DWIDTH 6 0
BBX 5 7 0 0
BITMAP
F0
88
88
F0
88
88
F0
ENDCHAR
STARTCHAR afii10020
ENCODING 1043
SWIDTH 480 0
DWIDTH 6 0
BBX 5 7 0 0
BITMAP
F8
80
80
80
80
80
80
ENDCHAR
STARTCHAR afii10021
ENCODING 1044
SWIDTH 480 0
DWIDTH 6 0
BBX 5 8 0 -1
BITMAP
30
50
50
50
50
50
F8
88
ENDCHAR
STARTCHAR afii10022
ENCODING 1045
SWIDTH 480 0
DWIDTH 6 0
BBX 5 7 0 0
BITMAP
F8
80
80
F0
80
80
F8
ENDCHAR
STARTCHAR afii10024
ENCODING 1046
SWIDTH 480 0
DWIDTH 6 0
BBX 5 7 0 0
BITMAP
A8
A8
70
20
70
A8
A8
ENDCHAR
STARTCHAR afii10025
ENCODING 1047
SWIDTH 480 0
DWIDTH 6 0
BBX 5 7 0 0
BITMAP
70
88
08
70
08
88
70
ENDCHAR
STARTCHAR afii10026
ENCODING 1048
SWIDTH 480 0
DWIDTH 6 0
BBX 5 7 0 0
BITMAP
88
88
98
A8
C8
88
88
ENDCHAR
STARTCHAR afii10027
ENCODING 1049
SWIDTH 480 0
DWIDTH 6 0
BBX 5 10 0 0
BITMAP
88
70
00
88
88
98
A8
C8
88
88
ENDCHAR
STARTCHAR afii10028
ENCODING 1050
SWIDTH 480 0
DWIDTH 6 0
BBX 5 7 0 0
BITMAP
88
90
A0
C0
A0
90
88
ENDCHAR
STARTCHAR afii10029
ENCODING 1051
SWIDTH 480 0
DWIDTH 6 0
BBX 5 7 0 0
BITMAP
38
48
48
48
48
48
88
ENDCHAR
STARTCHAR afii10030
ENCODING 1052
SWIDTH 480 0
DWIDTH 6 0
BBX 5 7 0 0
BITMAP
88
D8
A8
88
88
88
88
ENDCHAR
STARTCHAR afii10031
ENCODING 1053
SWIDTH 480 0
DWIDTH 6 0
BBX 5 7 0 0
BITMAP
88
88
88
F8
88
88
88
ENDCHAR
STARTCHAR afii10032
ENCODING 1054
SWIDTH 480 0
DWIDTH 6 0
BBX 5 7 0 0
BITMAP
70
88
88
88
88
88
70
ENDCHAR
STARTCHAR afii10033
ENCODING 1055
SWIDTH 480 0
DWIDTH 6 0
BBX 5 7 0 0
BITMAP
F8
88
88
88
88
88
88
ENDCHAR
STARTCHAR afii10034
ENCODING 1056
SWIDTH 480 0
DWIDTH 6 0
BBX 5 7 0 0
BITMAP
F0
88
88
F0
80
80
80
ENDCHAR
STARTCHAR afii10035
ENCODING 1057
SWIDTH 480 0
DWIDTH 6 0
BBX 5 7 0 0
BITMAP
70
88
80
80
80
88
70
ENDCHAR
STARTCHAR afii10036
ENCODING 1058
SWIDTH 480 0
DWIDTH 6 0
BBX 5 7 0 0
BITMAP
F8
20
20
20
20
20
20
ENDCHAR
STARTCHAR afii10037
ENCODING 1059
SWIDTH 480 0
DWIDTH 6 0
BBX 5 7 0 0
BITMAP
88
88
88
88
78
08
70
ENDCHAR
STARTCHAR afii10038
ENCODING 1060
SWIDTH 480 0
DWIDTH 6 0
BBX 5 7 0 0
BITMAP
20
70
A8
A8
A8
70
20
ENDCHAR
STARTCHAR afii10039
ENCODING 1061
SWIDTH 480 0
DWIDTH 6 0
BBX 5 7 0 0
BITMAP
88
88
50
20
50
88
88
ENDCHAR
STARTCHAR afii10040
ENCODING 1062
SWIDTH 480 0
DWIDTH 6 0
BBX 5 9 0 -2
BITMAP
90
90
90
90
90
90
F8
08
08
ENDCHAR
STARTCHAR afii10041
ENCODING 1063
SWIDTH 480 0
DWIDTH 6 0
BBX 5 7 0 0
BITMAP
88
88
88
78
08
08
08
ENDCHAR
STARTCHAR afii10042
ENCODING 1064
SWIDTH 480 0
DWIDTH 6 0
BBX 5 7 0 0
BITMAP
A8
A8
A8
A8
A8
A8
F8
ENDCHAR
STARTCHAR afii10043
ENCODING 1065
SWIDTH 480 0
DWIDTH 6 0
BBX 5 9 0 -2
BITMAP
A8
A8
A8
A8
A8
A8
F8
08
08
ENDCHAR
STARTCHAR afii10044
ENCODING 1066
SWIDTH 480 0
DWIDTH 6 0
BBX 5 7 0 0
BITMAP
C0
40
40
70
48
48
70
ENDCHAR
STARTCHAR afii10045
ENCODING 1067
SWIDTH 480 0
DWIDTH 6 0
BBX 5 7 0 0
BITMAP
88
88
88
C8
A8
A8
C8
ENDCHAR
STARTCHAR afii10046
ENCODING 1068
SWIDTH 480 0
DWIDTH 6 0
BBX 4 7 1 0
BITMAP
80
80
80
E0
90
90
E0
ENDCHAR
STARTCHAR afii10047
ENCODING 1069
SWIDTH 480 0
DWIDTH 6 0
BBX 5 7 0 0
BITMAP
70
88
08
78
08
88
70
ENDCHAR
STARTCHAR afii10048
ENCODING 1070
SWIDTH 480 0
DWIDTH 6 0
BBX 5 7 0 0
BITMAP
90
A8
A8
E8
A8
A8
90
ENDCHAR
STARTCHAR afii10049
ENCODING 1071
SWIDTH 480 0
DWIDTH 6 0
BBX 5 7 0 0
BITMAP
78
88
88
78
28
48
88
ENDCHAR
STARTCHAR afii10065
ENCODING 1072
SWIDTH 480 0
DWIDTH 6 0
BBX 5 5 0 0
BITMAP
70
08
78
88
78
ENDCHAR
STARTCHAR afii10066
ENCODING 1073
SWIDTH 480 0
DWIDTH 6 0
BBX 5 7 0 0
BITMAP
70
80
F0
88
88
88
70
ENDCHAR
STARTCHAR afii10067
ENCODING 1074
SWIDTH 480 0
DWIDTH 6 0
BBX 5 5 0 0
BITMAP
F0
88
F0
88
F0
ENDCHAR
STARTCHAR afii10068
ENCODING 1075
SWIDTH 480 0
DWIDTH 6 0
BBX 5 5 0 0
BITMAP
F8
80
80
80
80
ENDCHAR
STARTCHAR afii10069
ENCODING 1076
SWIDTH 480 0
DWIDTH 6 0
BBX 5 6 0 -1
BITMAP
30
50
50
50
F8
88
ENDCHAR
STARTCHAR afii10070
ENCODING 1077
SWIDTH 480 0
DWIDTH 6 0
BBX 5 5 0 0
BITMAP
70
88
F0
80
70
ENDCHAR
STARTCHAR afii10072
ENCODING 1078
SWIDTH 480 0
DWIDTH 6 0
BBX 5 5 0 0
BITMAP
A8
70
20
70
A8
ENDCHAR
STARTCHAR afii10073
ENCODING 1079
SWIDTH 480 0
DWIDTH 6 0
BBX 5 5 0 0
BITMAP
70
88
30
88
70
ENDCHAR
STARTCHAR afii10074
ENCODING 1080
SWIDTH 480 0
DWIDTH 6 0
BBX 5 5 0 0
BITMAP
88
98
A8
C8
88
ENDCHAR
STARTCHAR afii10075
ENCODING 1081
SWIDTH 480 0
DWIDTH 6 0
BBX 5 8 0 0
BITMAP
88
70
00
88
98
A8
C8
88
ENDCHAR
STARTCHAR afii10076
ENCODING 1082
SWIDTH 480 0
DWIDTH 6 0
BBX 4 5 1 0
BITMAP
90
A0
C0
A0
90
ENDCHAR
STARTCHAR afii10077
ENCODING 1083
SWIDTH 480 0
DWIDTH 6 0
BBX 5 5 0 0
BITMAP
38
48
48
48
88
ENDCHAR
STARTCHAR afii10078
ENCODING 1084
SWIDTH 480 0
DWIDTH 6 0
BBX 5 5 0 0
BITMAP
88
D8
A8
88
88
ENDCHAR
STARTCHAR afii10079
ENCODING 1085
SWIDTH 480 0
DWIDTH 6 0
BBX 5 5 0 0
BITMAP
88
88
F8
88
88
ENDCHAR
STARTCHAR afii10080
ENCODING 1086
SWIDTH 480 0
DWIDTH 6 0
BBX 5 5 0 0
BITMAP
70
88
88
88
70
ENDCHAR
STARTCHAR afii10081
ENCODING 1087
SWIDTH 480 0
DWIDTH 6 0
BBX 5 5 0 0
BITMAP
F8
88
88
88
88
ENDCHAR
STARTCHAR afii10082
ENCODING 1088
SWIDTH 480 0
DWIDTH 6 0
BBX 5 7 0 -2
BITMAP
F0
88
88
88
F0
80
80
ENDCHAR
STARTCHAR afii10083
ENCODING 1089
SWIDTH 480 0
DWIDTH 6 0
BBX 5 5 0 0
BITMAP
70
88
80
88
70
ENDCHAR
STARTCHAR afii10084
ENCODING 1090
SWIDTH 480 0
DWIDTH 6 0
BBX 5 5 0 0
BITMAP
F8
20
20
20
20
ENDCHAR
STARTCHAR afii10085
ENCODING 1091
SWIDTH 480 0
DWIDTH 6 0
BBX 5 7 0 -2
BITMAP
88
88
88
88
78
08
70
ENDCHAR
STARTCHAR afii10086
ENCODING 1092
SWIDTH 480 0
DWIDTH 6 0
BBX 5 9 0 -2
BITMAP
20
20
70
A8
A8
A8
70
20
20
ENDCHAR
STARTCHAR afii10087
ENCODING 1093
SWIDTH 480 0
DWIDTH 6 0
BBX 5 5 0 0
BITMAP
88
50
20
50
88
ENDCHAR
STARTCHAR afii10088
ENCODING 1094
SWIDTH 480 0
DWIDTH 6 0
BBX 5 7 0 -2
BITMAP
90
90
90
90
F8
08
08
ENDCHAR
STARTCHAR afii10089
ENCODING 1095
SWIDTH 480 0
DWIDTH 6 0
BBX 5 5 0 0
BITMAP
88
88
78
08
08
ENDCHAR
STARTCHAR afii10090
ENCODING 1096
SWIDTH 480 0
DWIDTH 6 0
BBX 5 5 0 0
BITMAP
A8
A8
A8
A8
F8
ENDCHAR
STARTCHAR afii10091
ENCODING 1097
SWIDTH 480 0
DWIDTH 6 0
BBX 5 7 0 -2
BITMAP
A8
A8
A8
A8
F8
08
08
ENDCHAR
STARTCHAR afii10092
ENCODING 1098
SWIDTH 480 0
DWIDTH 6 0
BBX 5 5 0 0
BITMAP
C0
40
70
48
70
ENDCHAR
STARTCHAR afii10093
ENCODING 1099
SWIDTH 480 0
DWIDTH 6 0
BBX 5 5 0 0
BITMAP
88
88
C8
A8
C8
ENDCHAR
STARTCHAR afii10094
ENCODING 1100
SWIDTH 480 0
DWIDTH 6 0
BBX 4 5 1 0
BITMAP
80
80
E0
90
E0
ENDCHAR
STARTCHAR afii10095
ENCODING 1101
SWIDTH 480 0
DWIDTH 6 0
BBX 4 5 1 0
BITMAP
E0
10
70
10
E0
ENDCHAR
STARTCHAR afii10096
ENCODING 1102
SWIDTH 480 0
DWIDTH 6 0
BBX 5 5 0 0
BITMAP
90
A8
E8
A8
90
ENDCHAR
STARTCHAR afii10097
ENCODING 1103
SWIDTH 480 0
DWIDTH 6 0
BBX 4 5 1 0
BITMAP
70
90
70
50
90
ENDCHAR
STARTCHAR uni0450
ENCODING 1104
SWIDTH 480 0
DWIDTH 6 0
BBX 5 8 0 0
BITMAP
40
20
00
70
88
F0
80
70
ENDCHAR
STARTCHAR afii10071
ENCODING 1105
SWIDTH 480 0
DWIDTH 6 0
BBX 5 7 0 0
BITMAP
50
00
70
88
F0
80
70
ENDCHAR
STARTCHAR afii10099
ENCODING 1106
SWIDTH 480 0
DWIDTH 6 0
BBX 5 9 0 -2
BITMAP
40
E0
40
70
48
48
48
08
10
ENDCHAR
STARTCHAR afii10100
ENCODING 1107
SWIDTH 480 0
DWIDTH 6 0
BBX 5 8 0 0
BITMAP
10
20
00
F8
80
80
80
80
ENDCHAR
STARTCHAR afii10101
ENCODING 1108
SWIDTH 480 0
DWIDTH 6 0
BBX 4 5 1 0
BITMAP
70
80
E0
80
70
ENDCHAR
STARTCHAR afii10102
ENCODING 1109
SWIDTH 480 0
DWIDTH 6 0
BBX 5 5 0 0
BITMAP
78
80
70
08
F0
ENDCHAR
STARTCHAR afii10103
ENCODING 1110
SWIDTH 480 0
DWIDTH 6 0
BBX 3 6 1 0
BITMAP
40
00
C0
40
40
E0
ENDCHAR
STARTCHAR afii10104
ENCODING 1111
SWIDTH 480 0
DWIDTH 6 0
BBX 3 6 1 0
BITMAP
A0
00
C0
40
40
E0
ENDCHAR
STARTCHAR afii10105
ENCODING 1112
SWIDTH 480 0
DWIDTH 6 0
BBX 4 8 1 -2
BITMAP
10
00
30
10
10
10
90
60
ENDCHAR
STARTCHAR afii10106
ENCODING 1113
SWIDTH 480 0
DWIDTH 6 0
BBX 5 5 0 0
BITMAP
60
A0
B0
A8
B0
ENDCHAR
STARTCHAR afii10107
ENCODING 1114
SWIDTH 480 0
DWIDTH 6 0
BBX 5 5 0 0
BITMAP
A0
A0
F0
A8
B0
ENDCHAR
STARTCHAR afii10108
ENCODING 1115
SWIDTH 480 0
DWIDTH 6 0
BBX 5 7 0 0
BITMAP
40
E0
40
70
48
48
48
ENDCHAR
STARTCHAR afii10109
ENCODING 1116
SWIDTH 480 0
DWIDTH 6 0
BBX 4 8 1 0
BITMAP
20
40
00
90
A0
C0
A0
90
ENDCHAR
STARTCHAR uni045D
ENCODING 1117
SWIDTH 480 0
DWIDTH 6 0
BBX 5 8 0 0
BITMAP
40
20
00
88
98
A8
C8
88
ENDCHAR
STARTCHAR afii10110
ENCODING 1118
SWIDTH 480 0
DWIDTH 6 0
BBX 5 10 0 -2
BITMAP
88
70
00
88
88
88
88
78
08
70
ENDCHAR
STARTCHAR afii10193
ENCODING 1119
SWIDTH 480 0
DWIDTH 6 0
BBX 5 7 0 -2
BITMAP
88
88
88
88
F8
20
20
ENDCHAR
STARTCHAR uni0460
ENCODING 1120
SWIDTH 480 0
DWIDTH 6 0
BBX 5 7 0 0
BITMAP
50
88
88
A8
A8
A8
50
ENDCHAR
STARTCHAR uni0461
ENCODING 1121
SWIDTH 480 0
DWIDTH 6 0
BBX 5 5 0 0
BITMAP
50
88
A8
A8
50
ENDCHAR
STARTCHAR afii10146
ENCODING 1122
SWIDTH 480 0
DWIDTH 6 0
BBX 5 7 0 0
BITMAP
40
F0
40
70
48
48
70
ENDCHAR
STARTCHAR afii10194
ENCODING 1123
SWIDTH 480 0
DWIDTH 6 0
BBX 5 7 0 0
BITMAP
40
40
F0
40
70
48
70
ENDCHAR
STARTCHAR uni0464
ENCODING 1124
SWIDTH 480 0
DWIDTH 6 0
BBX 5 7 0 0
BITMAP
98
A0
A0
F8
A0
A0
98
ENDCHAR
STARTCHAR uni0465
ENCODING 1125
SWIDTH 480 0
DWIDTH 6 0
BBX 5 5 0 0
BITMAP
98
A0
F8
A0
98
ENDCHAR
STARTCHAR uni0466
ENCODING 1126
SWIDTH 480 0
DWIDTH 6 0
BBX 5 7 0 0
BITMAP
20
50
50
88
F8
A8
A8
ENDCHAR
STARTCHAR uni0467
ENCODING 1127
SWIDTH 480 0
DWIDTH 6 0
BBX 5 6 0 0
BITMAP
20
50
50
88
F8
A8
ENDCHAR
STARTCHAR uni0468
ENCODING 1128
SWIDTH 480 0
DWIDTH 6 0
BBX 5 7 0 0
BITMAP
90
90
B8
F8
B8
B8
B8
ENDCHAR
STARTCHAR uni0469
ENCODING 1129
SWIDTH 480 0
DWIDTH 6 0
BBX 5 5 0 0
BITMAP
90
90
F8
B8
B8
ENDCHAR
STARTCHAR uni046A
ENCODING 1130
SWIDTH 480 0
DWIDTH 6 0
BBX 5 8 0 0
BITMAP
F8
88
50
50
70
A8
A8
A8
ENDCHAR
STARTCHAR uni046B
ENCODING 1131
SWIDTH 480 0
DWIDTH 6 0
BBX 5 6 0 0
BITMAP
F8
88
50
70
A8
A8
ENDCHAR
STARTCHAR uni046C
ENCODING 1132
SWIDTH 480 0
DWIDTH 6 0
BBX 6 8 0 0
BITMAP
FC
C4
A8
90
F8
B8
B8
A8
ENDCHAR
STARTCHAR uni046D
ENCODING 1133
SWIDTH 480 0
DWIDTH 6 0
BBX 6 6 0 0
BITMAP
FC
A8
90
F8
B8
A8
ENDCHAR
STARTCHAR uni046E
ENCODING 1134
SWIDTH 480 0
DWIDTH 6 0
BBX 5 12 0 -2
BITMAP
50
20
00
70
88
08
30
08
08
70
80
70
ENDCHAR
STARTCHAR uni046F
ENCODING 1135
SWIDTH 480 0
DWIDTH 6 0
BBX 5 10 0 -2
BITMAP
50
20
00
70
88
30
08
70
80
70
ENDCHAR
STARTCHAR uni0470
ENCODING 1136
SWIDTH 480 0
DWIDTH 6 0
BBX 5 7 0 0
BITMAP
A8
A8
A8
70
20
20
20
ENDCHAR
STARTCHAR uni0471
ENCODING 1137
SWIDTH 480 0
DWIDTH 6 0
BBX 5 5 0 0
BITMAP
A8
A8
70
20
20
ENDCHAR
STARTCHAR afii10147
ENCODING 1138
SWIDTH 480 0
DWIDTH 6 0
BBX 5 7 0 0
BITMAP
70
88
88
F8
88
88
70
ENDCHAR
STARTCHAR afii10195
ENCODING 1139
SWIDTH 480 0
DWIDTH 6 0
BBX 5 5 0 0
BITMAP
70
88
F8
88
70
ENDCHAR
STARTCHAR afii10148
ENCODING 1140
SWIDTH 480 0
DWIDTH 6 0
BBX 5 7 0 0
BITMAP
88
90
90
50
50
50
20
ENDCHAR
STARTCHAR afii10196
ENCODING 1141
SWIDTH 480 0
DWIDTH 6 0
BBX 5 5 0 0
BITMAP
88
90
50
50
20
ENDCHAR
STARTCHAR uni0476
ENCODING 1142
SWIDTH 480 0
DWIDTH 6 0
BBX 5 10 0 0
BITMAP
90
48
00
88
90
90
50
50
50
20
ENDCHAR
STARTCHAR uni0477
ENCODING 1143
SWIDTH 480 0
DWIDTH 6 0
BBX 5 8 0 0
BITMAP
90
48
00
88
90
50
50
20
ENDCHAR
STARTCHAR uni0478
ENCODING 1144
SWIDTH 480 0
DWIDTH 6 0
BBX 5 9 0 -2
BITMAP
40
A0
A0
B8
B8
B8
58
08
10
ENDCHAR
STARTCHAR uni0479
ENCODING 1145
SWIDTH 480 0
DWIDTH 6 0
BBX 5 7 0 -2
BITMAP
58
B8
B8
B8
58
08
10
ENDCHAR
STARTCHAR uni047A
ENCODING 1146
SWIDTH 480 0
DWIDTH 6 0
BBX 5 10 0 -1
BITMAP
20
70
A8
88
88
88
88
A8
70
20
ENDCHAR
STARTCHAR uni047B
ENCODING 1147
SWIDTH 480 0
DWIDTH 6 0
BBX 5 8 0 -1
BITMAP
20
70
A8
88
88
A8
70
20
ENDCHAR
STARTCHAR uni047C
ENCODING 1148
SWIDTH 480 0
DWIDTH 6 0
BBX 5 9 0 0
BITMAP
70
00
20
20
88
88
88
A8
50
ENDCHAR
STARTCHAR uni047D
ENCODING 1149
SWIDTH 480 0
DWIDTH 6 0
BBX 5 7 0 0
BITMAP
70
00
20
A8
88
A8
50
ENDCHAR
STARTCHAR uni047E
ENCODING 1150
SWIDTH 480 0
DWIDTH 6 0
BBX 5 10 0 0
BITMAP
F8
A8
00
50
88
88
A8
A8
A8
50
ENDCHAR
STARTCHAR uni047F
ENCODING 1151
SWIDTH 480 0
DWIDTH 6 0
BBX 5 8 0 0
BITMAP
F8
A8
00
50
88
A8
A8
50
ENDCHAR
STARTCHAR uni0480
ENCODING 1152
SWIDTH 480 0
DWIDTH 6 0
BBX 5 10 0 -2
BITMAP
70
88
88
80
80
80
80
70
10
10
ENDCHAR
STARTCHAR uni0481
ENCODING 1153
SWIDTH 480 0
DWIDTH 6 0
BBX 5 7 0 -1
BITMAP
70
88
80
80
70
10
10
ENDCHAR
STARTCHAR uni0482
ENCODING 1154
SWIDTH 480 0
DWIDTH 6 0
BBX 5 6 0 1
BITMAP
28
10
B0
48
40
A0
ENDCHAR
STARTCHAR uni0483
ENCODING 1155
SWIDTH 480 0
DWIDTH 6 0
BBX 6 3 0 7
BITMAP
04
FC
80
ENDCHAR
STARTCHAR uni0484
ENCODING 1156
SWIDTH 480 0
DWIDTH 6 0
BBX 6 2 0 8
BITMAP
70
8C
ENDCHAR
STARTCHAR uni0485
ENCODING 1157
SWIDTH 480 0
DWIDTH 6 0
BBX 5 2 0 8
BITMAP
70
C8
ENDCHAR
STARTCHAR uni0486
ENCODING 1158
SWIDTH 480 0
DWIDTH 6 0
BBX 5 2 0 8
BITMAP
70
98
ENDCHAR
STARTCHAR uni0487
ENCODING 1159
SWIDTH 480 0
DWIDTH 6 0
BBX 6 2 0 8
BITMAP
60
9C
ENDCHAR
STARTCHAR uni0488
ENCODING 1160
SWIDTH 480 0
DWIDTH 6 0
BBX 6 12 0 -2
BITMAP
40
A0
08
14
00
00
00
00
40
A0
08
14
ENDCHAR
STARTCHAR uni0489
ENCODING 1161
SWIDTH 480 0
DWIDTH 6 0
BBX 6 12 0 -2
BITMAP
40
84
C8
0C
00
00
00
00
40
84
C8
0C
ENDCHAR
STARTCHAR uni048A
ENCODING 1162
SWIDTH 480 0
DWIDTH 6 0
BBX 5 12 0 -2
BITMAP
88
70
00
88
98
98
A8
C8
C8
88
10
10
ENDCHAR
STARTCHAR uni048B
ENCODING 1163
SWIDTH 480 0
DWIDTH 6 0
BBX 5 11 0 -2
BITMAP
88
70
00
88
88
98
A8
C8
88
10
10
ENDCHAR
STARTCHAR uni048C
ENCODING 1164
SWIDTH 480 0
DWIDTH 6 0
BBX 5 8 0 0
BITMAP
40
40
E0
40
70
48
48
70
ENDCHAR
STARTCHAR uni048D
ENCODING 1165
SWIDTH 480 0
DWIDTH 6 0
BBX 5 7 0 0
BITMAP
40
E0
40
70
48
48
70
ENDCHAR
STARTCHAR uni048E
ENCODING 1166
SWIDTH 480 0
DWIDTH 6 0
BBX 5 8 0 0
BITMAP
F0
88
88
A8
F0
88
80
80
ENDCHAR
STARTCHAR uni048F
ENCODING 1167
SWIDTH 480 0
DWIDTH 6 0
BBX 5 8 0 -2
BITMAP
F0
88
88
A8
F0
88
80
80
ENDCHAR
STARTCHAR afii10050
ENCODING 1168
SWIDTH 480 0
DWIDTH 6 0
BBX 5 9 0 0
BITMAP
08
08
F8
80
80
80
80
80
80
ENDCHAR
STARTCHAR afii10098
ENCODING 1169
SWIDTH 480 0
DWIDTH 6 0
BBX 5 7 0 0
BITMAP
08
08
F8
80
80
80
80
ENDCHAR
STARTCHAR uni0492
ENCODING 1170
SWIDTH 480 0
DWIDTH 6 0
BBX 5 7 0 0
BITMAP
78
40
40
F0
40
40
40
ENDCHAR
STARTCHAR uni0493
ENCODING 1171
SWIDTH 480 0
DWIDTH 6 0
BBX 5 5 0 0
BITMAP
78
40
F0
40
40
ENDCHAR
STARTCHAR uni0494
ENCODING 1172
SWIDTH 480 0
DWIDTH 6 0
BBX 5 9 0 -1
BITMAP
F8
80
80
F0
88
88
88
88
10
ENDCHAR
STARTCHAR uni0495
ENCODING 1173
SWIDTH 480 0
DWIDTH 6 0
BBX 5 7 0 -1
BITMAP
F8
80
F0
88
88
88
10
ENDCHAR
STARTCHAR uni0496
ENCODING 1174
SWIDTH 480 0
DWIDTH 6 0
BBX 6 9 0 -2
BITMAP
A8
A8
A8
70
A8
A8
AC
04
04
ENDCHAR
STARTCHAR uni0497
ENCODING 1175
SWIDTH 480 0
DWIDTH 6 0
BBX 6 7 0 -2
BITMAP
A8
70
20
70
AC
04
04
ENDCHAR
STARTCHAR uni0498
ENCODING 1176
SWIDTH 480 0
DWIDTH 6 0
BBX 5 10 0 -2
BITMAP
70
88
08
10
08
08
88
70
20
40
ENDCHAR
STARTCHAR uni0499
ENCODING 1177
SWIDTH 480 0
DWIDTH 6 0
BBX 5 8 0 -2
BITMAP
70
88
10
08
88
70
20
40
ENDCHAR
STARTCHAR uni049A
ENCODING 1178
SWIDTH 480 0
DWIDTH 6 0
BBX 6 9 0 -2
BITMAP
88
90
A0
C0
A0
90
88
04
04
ENDCHAR
STARTCHAR uni049B
ENCODING 1179
SWIDTH 480 0
DWIDTH 6 0
BBX 5 7 0 -2
BITMAP
90
A0
C0
A0
90
08
08
ENDCHAR
STARTCHAR uni049C
ENCODING 1180
SWIDTH 480 0
DWIDTH 6 0
BBX 5 7 0 0
BITMAP
A8
B0
A0
C0
A0
B0
A8
ENDCHAR
STARTCHAR uni049D
ENCODING 1181
SWIDTH 480 0
DWIDTH 6 0
BBX 5 5 0 0
BITMAP
A8
B0
E0
B0
A8
ENDCHAR
STARTCHAR uni049E
ENCODING 1182
SWIDTH 480 0
DWIDTH 6 0
BBX 5 7 0 0
BITMAP
48
E8
50
60
50
48
48
ENDCHAR
STARTCHAR uni049F
ENCODING 1183
SWIDTH 480 0
DWIDTH 6 0
BBX 5 8 0 0
BITMAP
40
40
E0
48
50
60
50
48
ENDCHAR
STARTCHAR uni04A0
ENCODING 1184
SWIDTH 480 0
DWIDTH 6 0
BBX 5 8 0 0
BITMAP
C8
48
50
60
60
50
48
48
ENDCHAR
STARTCHAR uni04A1
ENCODING 1185
SWIDTH 480 0
DWIDTH 6 0
BBX 5 5 0 0
BITMAP
C8
50
60
50
48
ENDCHAR
STARTCHAR uni04A2
ENCODING 1186
SWIDTH 480 0
DWIDTH 6 0
BBX 5 10 0 -2
BITMAP
90
90
90
F0
90
90
90
98
08
08
ENDCHAR
STARTCHAR uni04A3
ENCODING 1187
SWIDTH 480 0
DWIDTH 6 0
BBX 5 7 0 -2
BITMAP
90
90
F0
90
98
08
08
ENDCHAR
STARTCHAR uni04A4
ENCODING 1188
SWIDTH 480 0
DWIDTH 6 0
BBX 5 8 0 0
BITMAP
B8
A0
A0
E0
A0
A0
A0
A0
ENDCHAR
STARTCHAR uni04A5
ENCODING 1189
SWIDTH 480 0
DWIDTH 6 0
BBX 5 5 0 0
BITMAP
B8
A0
E0
A0
A0
ENDCHAR
STARTCHAR uni04A6
ENCODING 1190
SWIDTH 480 0
DWIDTH 6 0
BBX 5 10 0 -2
BITMAP
E0
A0
A0
B0
A8
A8
A8
A8
08
10
ENDCHAR
STARTCHAR uni04A7
ENCODING 1191
SWIDTH 480 0
DWIDTH 6 0
BBX 5 7 0 -2
BITMAP
E0
A0
B0
A8
A8
08
10
ENDCHAR
STARTCHAR uni04A8
ENCODING 1192
SWIDTH 480 0
DWIDTH 6 0
BBX 5 9 0 -1
BITMAP
78
80
90
A8
A8
A8
70
20
18
ENDCHAR
STARTCHAR uni04A9
ENCODING 1193
SWIDTH 480 0
DWIDTH 6 0
BBX 5 7 0 -1
BITMAP
70
80
90
A8
70
20
18
ENDCHAR
STARTCHAR uni04AA
ENCODING 1194
SWIDTH 480 0
DWIDTH 6 0
BBX 5 10 0 -2
BITMAP
70
88
80
80
80
80
88
70
20
10
ENDCHAR
STARTCHAR uni04AB
ENCODING 1195
SWIDTH 480 0
DWIDTH 6 0
BBX 5 7 0 -2
BITMAP
70
88
80
88
70
20
10
ENDCHAR
STARTCHAR uni04AC
ENCODING 1196
SWIDTH 480 0
DWIDTH 6 0
BBX 5 10 0 -2
BITMAP
F8
20
20
20
20
20
20
30
10
10
ENDCHAR
STARTCHAR uni04AD
ENCODING 1197
SWIDTH 480 0
DWIDTH 6 0
BBX 5 7 0 -2
BITMAP
F8
A8
20
20
30
10
10
ENDCHAR
STARTCHAR uni04AE
ENCODING 1198
SWIDTH 480 0
DWIDTH 6 0
BBX 5 7 0 0
BITMAP
88
88
50
20
20
20
20
ENDCHAR
STARTCHAR uni04AF
ENCODING 1199
SWIDTH 480 0
DWIDTH 6 0
BBX 5 7 0 -2
BITMAP
88
88
50
20
20
20
20
ENDCHAR
STARTCHAR uni04B0
ENCODING 1200
SWIDTH 480 0
DWIDTH 6 0
BBX 5 7 0 0
BITMAP
88
88
50
F8
20
20
20
ENDCHAR
STARTCHAR uni04B1
ENCODING 1201
SWIDTH 480 0
DWIDTH 6 0
BBX 5 7 0 -2
BITMAP
88
88
50
F8
20
20
20
ENDCHAR
STARTCHAR uni04B2
ENCODING 1202
SWIDTH 480 0
DWIDTH 6 0
BBX 6 9 0 -2
BITMAP
88
88
50
20
50
88
88
04
04
ENDCHAR
STARTCHAR uni04B3
ENCODING 1203
SWIDTH 480 0
DWIDTH 6 0
BBX 6 7 0 -2
BITMAP
88
50
20
50
88
04
04
ENDCHAR
STARTCHAR uni04B4
ENCODING 1204
SWIDTH 480 0
DWIDTH 6 0
BBX 5 10 0 -2
BITMAP
E8
48
48
48
48
48
48
78
08
08
ENDCHAR
STARTCHAR uni04B5
ENCODING 1205
SWIDTH 480 0
DWIDTH 6 0
BBX 5 8 0 -2
BITMAP
E8
48
48
48
48
78
08
08
ENDCHAR
STARTCHAR uni04B6
ENCODING 1206
SWIDTH 480 0
DWIDTH 6 0
BBX 5 10 0 -2
BITMAP
90
90
90
90
90
70
10
18
08
08
ENDCHAR
STARTCHAR uni04B7
ENCODING 1207
SWIDTH 480 0
DWIDTH 6 0
BBX 5 8 0 -2
BITMAP
90
90
90
70
10
18
08
08
ENDCHAR
STARTCHAR uni04B8
ENCODING 1208
SWIDTH 480 0
DWIDTH 6 0
BBX 5 8 0 0
BITMAP
88
88
A8
A8
78
28
28
08
ENDCHAR
STARTCHAR uni04B9
ENCODING 1209
SWIDTH 480 0
DWIDTH 6 0
BBX 5 6 0 0
BITMAP
88
88
A8
78
28
08
ENDCHAR
STARTCHAR uni04BA
ENCODING 1210
SWIDTH 480 0
DWIDTH 6 0
BBX 5 7 0 0
BITMAP
80
80
F0
88
88
88
88
ENDCHAR
STARTCHAR uni04BB
ENCODING 1211
SWIDTH 480 0
DWIDTH 6 0
BBX 4 7 1 0
BITMAP
80
80
80
E0
90
90
90
ENDCHAR
STARTCHAR uni04BC
ENCODING 1212
SWIDTH 480 0
DWIDTH 6 0
BBX 5 8 0 0
BITMAP
30
48
48
48
F8
40
48
30
ENDCHAR
STARTCHAR uni04BD
ENCODING 1213
SWIDTH 480 0
DWIDTH 6 0
BBX 5 6 0 0
BITMAP
30
48
F8
40
48
30
ENDCHAR
STARTCHAR uni04BE
ENCODING 1214
SWIDTH 480 0
DWIDTH 6 0
BBX 5 10 0 -2
BITMAP
30
48
48
48
F8
40
48
30
20
10
ENDCHAR
STARTCHAR uni04BF
ENCODING 1215
SWIDTH 480 0
DWIDTH 6 0
BBX 5 8 0 -2
BITMAP
30
48
F8
40
48
30
20
10
ENDCHAR
STARTCHAR uni04C0
ENCODING 1216
SWIDTH 480 0
DWIDTH 6 0
BBX 3 8 1 0
BITMAP
E0
40
40
40
40
40
40
E0
ENDCHAR
STARTCHAR uni04C1
ENCODING 1217
SWIDTH 480 0
DWIDTH 6 0
BBX 5 10 0 0
BITMAP
88
70
00
A8
A8
A8
70
A8
A8
A8
ENDCHAR
STARTCHAR uni04C2
ENCODING 1218
SWIDTH 480 0
DWIDTH 6 0
BBX 5 8 0 0
BITMAP
88
70
00
A8
70
20
70
A8
ENDCHAR
STARTCHAR uni04C3
ENCODING 1219
SWIDTH 480 0
DWIDTH 6 0
BBX 5 9 0 -2
BITMAP
88
90
A0
C0
A0
90
88
08
30
ENDCHAR
STARTCHAR uni04C4
ENCODING 1220
SWIDTH 480 0
DWIDTH 6 0
BBX 4 7 0 -2
BITMAP
90
A0
C0
A0
90
10
60
ENDCHAR
STARTCHAR uni04C5
ENCODING 1221
SWIDTH 480 0
DWIDTH 6 0
BBX 5 10 0 -2
BITMAP
38
48
48
48
48
48
88
88
10
10
ENDCHAR
STARTCHAR uni04C6
ENCODING 1222
SWIDTH 480 0
DWIDTH 6 0
BBX 5 7 0 -2
BITMAP
38
48
48
48
88
10
10
ENDCHAR
STARTCHAR uni04C7
ENCODING 1223
SWIDTH 480 0
DWIDTH 6 0
BBX 5 10 0 -2
BITMAP
88
88
88
F8
88
88
88
88
08
30
ENDCHAR
STARTCHAR uni04C8
ENCODING 1224
SWIDTH 480 0
DWIDTH 6 0
BBX 5 7 0 -2
BITMAP
88
88
F8
88
88
08
30
ENDCHAR
STARTCHAR uni04C9
ENCODING 1225
SWIDTH 480 0
DWIDTH 6 0
BBX 5 10 0 -2
BITMAP
88
88
88
F8
88
88
88
88
10
10
ENDCHAR
STARTCHAR uni04CA
ENCODING 1226
SWIDTH 480 0
DWIDTH 6 0
BBX 5 7 0 -2
BITMAP
88
88
F8
88
88
10
10
ENDCHAR
STARTCHAR uni04CB
ENCODING 1227
SWIDTH 480 0
DWIDTH 6 0
BBX 5 10 0 -2
BITMAP
88
88
88
88
88
78
08
18
10
10
ENDCHAR
STARTCHAR uni04CC
ENCODING 1228
SWIDTH 480 0
DWIDTH 6 0
BBX 5 8 0 -2
BITMAP
88
88
88
78
08
18
10
10
ENDCHAR
STARTCHAR uni04CD
ENCODING 1229
SWIDTH 480 0
DWIDTH 6 0
BBX 5 10 0 -2
BITMAP
88
D8
D8
A8
A8
88
88
88
10
10
ENDCHAR
STARTCHAR uni04CE
ENCODING 1230
SWIDTH 480 0
DWIDTH 6 0
BBX 5 7 0 -2
BITMAP
88
D8
A8
88
88
10
10
ENDCHAR
STARTCHAR uni04CF
ENCODING 1231
SWIDTH 480 0
DWIDTH 6 0
BBX 1 8 1 0
BITMAP
80
80
80
80
80
80
80
80
ENDCHAR
STARTCHAR uni04D0
ENCODING 1232
SWIDTH 480 0
DWIDTH 6 0
BBX 5 9 0 0
BITMAP
88
70
00
70
88
88
F8
88
88
ENDCHAR
STARTCHAR uni04D1
ENCODING 1233
SWIDTH 480 0
DWIDTH 6 0
BBX 5 8 0 0
BITMAP
88
70
00
70
08
78
88
78
ENDCHAR
STARTCHAR uni04D2
ENCODING 1234
SWIDTH 480 0
DWIDTH 6 0
BBX 5 9 0 0
BITMAP
50
00
70
88
88
F8
88
88
88
ENDCHAR
STARTCHAR uni04D3
ENCODING 1235
SWIDTH 480 0
DWIDTH 6 0
BBX 5 7 0 0
BITMAP
50
00
70
08
78
88
78
ENDCHAR
STARTCHAR uni04D4
ENCODING 1236
SWIDTH 480 0
DWIDTH 6 0
BBX 5 7 0 0
BITMAP
78
A0
A0
F0
A0
A0
B8
ENDCHAR
STARTCHAR uni04D5
ENCODING 1237
SWIDTH 480 0
DWIDTH 6 0
BBX 5 5 0 0
BITMAP
70
28
70
A8
70
ENDCHAR
STARTCHAR uni04D6
ENCODING 1238
SWIDTH 480 0
DWIDTH 6 0
BBX 5 9 0 0
BITMAP
88
70
00
F8
80
F0
80
80
F8
ENDCHAR
STARTCHAR uni04D7
ENCODING 1239
SWIDTH 480 0
DWIDTH 6 0
BBX 5 8 0 0
BITMAP
88
70
00
70
88
F0
80
70
ENDCHAR
STARTCHAR uni04D8
ENCODING 1240
SWIDTH 480 0
DWIDTH 6 0
BBX 5 7 0 0
BITMAP
70
88
08
F8
88
88
70
ENDCHAR
STARTCHAR afii10846
ENCODING 1241
SWIDTH 480 0
DWIDTH 6 0
BBX 5 5 0 0
BITMAP
70
08
F8
88
70
ENDCHAR
STARTCHAR uni04DA
ENCODING 1242
SWIDTH 480 0
DWIDTH 6 0
BBX 5 9 0 0
BITMAP
50
00
70
88
08
F8
88
88
70
ENDCHAR
STARTCHAR uni04DB
ENCODING 1243
SWIDTH 480 0
DWIDTH 6 0
BBX 5 7 0 0
BITMAP
50
00
70
08
F8
88
70
ENDCHAR
STARTCHAR uni04DC
ENCODING 1244
SWIDTH 480 0
DWIDTH 6 0
BBX 5 9 0 0
BITMAP
50
00
A8
A8
A8
70
A8
A8
A8
ENDCHAR
STARTCHAR uni04DD
ENCODING 1245
SWIDTH 480 0
DWIDTH 6 0
BBX 5 7 0 0
BITMAP
50
00
A8
70
20
70
A8
ENDCHAR
STARTCHAR uni04DE
ENCODING 1246
SWIDTH 480 0
DWIDTH 6 0
BBX 5 9 0 0
BITMAP
50
00
70
88
08
30
08
88
70
ENDCHAR
STARTCHAR uni04DF
ENCODING 1247
SWIDTH 480 0
DWIDTH 6 0
BBX 5 7 0 0
BITMAP
50
00
70
88
30
88
70
ENDCHAR
STARTCHAR uni04E0
ENCODING 1248
SWIDTH 480 0
DWIDTH 6 0
BBX 5 7 0 0
BITMAP
F8
10
20
70
08
88
70
ENDCHAR
STARTCHAR uni04E1
ENCODING 1249
SWIDTH 480 0
DWIDTH 6 0
BBX 5 7 0 -2
BITMAP
F8
10
20
70
08
88
70
ENDCHAR
STARTCHAR uni04E2
ENCODING 1250
SWIDTH 480 0
DWIDTH 6 0
BBX 5 9 0 0
BITMAP
F8
00
88
88
98
A8
C8
88
88
ENDCHAR
STARTCHAR uni04E3
ENCODING 1251
SWIDTH 480 0
DWIDTH 6 0
BBX 5 7 0 0
BITMAP
F8
00
88
98
A8
C8
88
ENDCHAR
STARTCHAR uni04E4
ENCODING 1252
SWIDTH 480 0
DWIDTH 6 0
BBX 5 9 0 0
BITMAP
50
00
88
88
98
A8
C8
88
88
ENDCHAR
STARTCHAR uni04E5
ENCODING 1253
SWIDTH 480 0
DWIDTH 6 0
BBX 5 7 0 0
BITMAP
50
00
88
98
A8
C8
88
ENDCHAR
STARTCHAR uni04E6
ENCODING 1254
SWIDTH 480 0
DWIDTH 6 0
BBX 5 9 0 0
BITMAP
50
00
70
88
88
88
88
88
70
ENDCHAR
STARTCHAR uni04E7
ENCODING 1255
SWIDTH 480 0
DWIDTH 6 0
BBX 5 7 0 0
BITMAP
50
00
70
88
88
88
70
ENDCHAR
STARTCHAR uni04E8
ENCODING 1256
SWIDTH 480 0
DWIDTH 6 0
BBX 5 7 0 0
BITMAP
70
88
88
F8
88
88
70
ENDCHAR
STARTCHAR uni04E9
ENCODING 1257
SWIDTH 480 0
DWIDTH 6 0
BBX 5 5 0 0
BITMAP
70
88
F8
88
70
ENDCHAR
STARTCHAR uni04EA
ENCODING 1258
SWIDTH 480 0
DWIDTH 6 0
BBX 5 9 0 0
BITMAP
50
00
70
88
88
F8
88
88
70
ENDCHAR
STARTCHAR uni04EB
ENCODING 1259
SWIDTH 480 0
DWIDTH 6 0
BBX 5 7 0 0
BITMAP
50
00
70
88
F8
88
70
ENDCHAR
STARTCHAR uni04EC
ENCODING 1260
SWIDTH 480 0
DWIDTH 6 0
BBX 5 9 0 0
BITMAP
50
00
E0
10
08
78
08
10
E0
ENDCHAR
STARTCHAR uni04ED
ENCODING 1261
SWIDTH 480 0
DWIDTH 6 0
BBX 4 7 1 0
BITMAP
A0
00
E0
10
70
10
E0
ENDCHAR
STARTCHAR uni04EE
ENCODING 1262
SWIDTH 480 0
DWIDTH 6 0
BBX 5 9 0 0
BITMAP
F8
00
88
88
98
68
08
88
70
ENDCHAR
STARTCHAR uni04EF
ENCODING 1263
SWIDTH 480 0
DWIDTH 6 0
BBX 5 9 0 -2
BITMAP
F8
00
88
88
88
78
08
88
70
ENDCHAR
STARTCHAR uni04F0
ENCODING 1264
SWIDTH 480 0
DWIDTH 6 0
BBX 5 9 0 0
BITMAP
50
00
88
88
98
68
08
88
70
ENDCHAR
STARTCHAR uni04F1
ENCODING 1265
SWIDTH 480 0
DWIDTH 6 0
BBX 5 9 0 -2
BITMAP
50
00
88
88
88
78
08
88
70
ENDCHAR
STARTCHAR uni04F2
ENCODING 1266
SWIDTH 480 0
DWIDTH 6 0
BBX 5 10 0 0
BITMAP
48
90
00
88
88
98
68
08
88
70
ENDCHAR
STARTCHAR uni04F3
ENCODING 1267
SWIDTH 480 0
DWIDTH 6 0
BBX 5 10 0 -2
BITMAP
48
90
00
88
88
88
78
08
88
70
ENDCHAR
STARTCHAR uni04F4
ENCODING 1268
SWIDTH 480 0
DWIDTH 6 0
BBX 5 9 0 0
BITMAP
50
00
88
88
88
78
08
08
08
ENDCHAR
STARTCHAR uni04F5
ENCODING 1269
SWIDTH 480 0
DWIDTH 6 0
BBX 5 7 0 0
BITMAP
50
00
88
88
78
08
08
ENDCHAR
STARTCHAR uni04F6
ENCODING 1270
SWIDTH 480 0
DWIDTH 6 0
BBX 5 8 0 -1
BITMAP
F8
80
80
80
80
80
C0
40
ENDCHAR
STARTCHAR uni04F7
ENCODING 1271
SWIDTH 480 0
DWIDTH 6 0
BBX 4 6 1 -1
BITMAP
F0
80
80
80
C0
40
ENDCHAR
STARTCHAR uni04F8
ENCODING 1272
SWIDTH 480 0
DWIDTH 6 0
BBX 5 9 0 0
BITMAP
50
00
88
88
88
C8
A8
A8
C8
ENDCHAR
STARTCHAR uni04F9
ENCODING 1273
SWIDTH 480 0
DWIDTH 6 0
BBX 5 7 0 0
BITMAP
50
00
88
88
C8
A8
C8
ENDCHAR
STARTCHAR uni04FA
ENCODING 1274
SWIDTH 480 0
DWIDTH 6 0
BBX 5 9 0 -2
BITMAP
78
40
40
E0
40
40
60
20
40
ENDCHAR
STARTCHAR uni04FB
ENCODING 1275
SWIDTH 480 0
DWIDTH 6 0
BBX 5 7 0 -2
BITMAP
78
40
E0
40
60
20
40
ENDCHAR
STARTCHAR uni04FC
ENCODING 1276
SWIDTH 480 0
DWIDTH 6 0
BBX 5 9 0 -2
BITMAP
88
88
50
20
50
88
88
08
10
ENDCHAR
STARTCHAR uni04FD
ENCODING 1277
SWIDTH 480 0
DWIDTH 6 0
BBX 5 7 0 -2
BITMAP
88
50
20
50
88
08
10
ENDCHAR
STARTCHAR uni04FE
ENCODING 1278
SWIDTH 480 0
DWIDTH 6 0
BBX 5 7 0 0
BITMAP
88
88
50
F8
50
88
88
ENDCHAR
STARTCHAR uni04FF
ENCODING 1279
SWIDTH 480 0
DWIDTH 6 0
BBX 5 5 0 0
BITMAP
88
50
F8
50
88
ENDCHAR
STARTCHAR uni0500
ENCODING 1280
SWIDTH 480 0
DWIDTH 6 0
BBX 5 7 0 0
BITMAP
08
08
78
88
88
88
78
ENDCHAR
STARTCHAR uni0501
ENCODING 1281
SWIDTH 480 0
DWIDTH 6 0
BBX 4 7 1 0
BITMAP
10
10
70
90
90
90
70
ENDCHAR
STARTCHAR uni0502
ENCODING 1282
SWIDTH 480 0
DWIDTH 6 0
BBX 5 7 0 0
BITMAP
20
20
60
A8
A8
A8
70
ENDCHAR
STARTCHAR uni0503
ENCODING 1283
SWIDTH 480 0
DWIDTH 6 0
BBX 5 7 0 0
BITMAP
20
20
20
60
A8
A8
70
ENDCHAR
STARTCHAR uni0504
ENCODING 1284
SWIDTH 480 0
DWIDTH 6 0
BBX 5 7 0 0
BITMAP
C0
20
20
C0
28
28
10
ENDCHAR
STARTCHAR uni0505
ENCODING 1285
SWIDTH 480 0
DWIDTH 6 0
BBX 5 6 0 0
BITMAP
C0
20
20
48
28
10
ENDCHAR
STARTCHAR uni0506
ENCODING 1286
SWIDTH 480 0
DWIDTH 6 0
BBX 4 9 0 -2
BITMAP
C0
20
20
C0
20
20
30
10
10
ENDCHAR
STARTCHAR uni0507
ENCODING 1287
SWIDTH 480 0
DWIDTH 6 0
BBX 4 8 0 -2
BITMAP
C0
20
20
40
20
30
10
10
ENDCHAR
STARTCHAR uni0508
ENCODING 1288
SWIDTH 480 0
DWIDTH 6 0
BBX 5 7 0 0
BITMAP
F8
A0
A0
A8
A8
A8
90
ENDCHAR
STARTCHAR uni0509
ENCODING 1289
SWIDTH 480 0
DWIDTH 6 0
BBX 5 5 0 0
BITMAP
F8
A0
A0
A8
90
ENDCHAR
STARTCHAR uni050A
ENCODING 1290
SWIDTH 480 0
DWIDTH 6 0
BBX 5 7 0 0
BITMAP
A0
A0
A0
E8
A8
A8
90
ENDCHAR
STARTCHAR uni050B
ENCODING 1291
SWIDTH 480 0
DWIDTH 6 0
BBX 5 5 0 0
BITMAP
A0
A0
E8
A8
90
ENDCHAR
STARTCHAR uni050C
ENCODING 1292
SWIDTH 480 0
DWIDTH 6 0
BBX 5 7 0 0
BITMAP
70
88
80
98
88
88
70
ENDCHAR
STARTCHAR uni050D
ENCODING 1293
SWIDTH 480 0
DWIDTH 6 0
BBX 5 5 0 0
BITMAP
78
80
98
88
70
ENDCHAR
STARTCHAR uni050E
ENCODING 1294
SWIDTH 480 0
DWIDTH 6 0
BBX 5 7 0 0
BITMAP
F8
20
20
28
28
28
10
ENDCHAR
STARTCHAR uni050F
ENCODING 1295
SWIDTH 480 0
DWIDTH 6 0
BBX 5 5 0 0
BITMAP
F8
20
20
28
10
ENDCHAR
STARTCHAR uni0510
ENCODING 1296
SWIDTH 480 0
DWIDTH 6 0
BBX 5 7 0 0
BITMAP
78
88
80
60
80
88
70
ENDCHAR
STARTCHAR uni0511
ENCODING 1297
SWIDTH 480 0
DWIDTH 6 0
BBX 5 5 0 0
BITMAP
78
88
60
88
70
ENDCHAR
STARTCHAR uni0512
ENCODING 1298
SWIDTH 480 0
DWIDTH 6 0
BBX 6 7 0 0
BITMAP
FC
48
48
48
48
A8
10
ENDCHAR
STARTCHAR uni0513
ENCODING 1299
SWIDTH 480 0
DWIDTH 6 0
BBX 6 6 0 -1
BITMAP
FC
48
48
48
88
10
ENDCHAR
STARTCHAR uni0514
ENCODING 1300
SWIDTH 480 0
DWIDTH 6 0
BBX 6 7 0 0
BITMAP
D4
54
54
48
54
54
94
ENDCHAR
STARTCHAR uni0515
ENCODING 1301
SWIDTH 480 0
DWIDTH 6 0
BBX 6 5 0 0
BITMAP
D4
54
48
54
94
ENDCHAR
STARTCHAR uni0516
ENCODING 1302
SWIDTH 480 0
DWIDTH 6 0
BBX 5 7 0 0
BITMAP
C8
A8
B0
D0
88
88
88
ENDCHAR
STARTCHAR uni0517
ENCODING 1303
SWIDTH 480 0
DWIDTH 6 0
BBX 5 6 0 -1
BITMAP
C8
B0
A0
D0
88
80
ENDCHAR
STARTCHAR uni0518
ENCODING 1304
SWIDTH 480 0
DWIDTH 6 0
BBX 5 7 0 0
BITMAP
78
A0
A0
70
A0
A0
B8
ENDCHAR
STARTCHAR uni0519
ENCODING 1305
SWIDTH 480 0
DWIDTH 6 0
BBX 5 5 0 0
BITMAP
70
A8
70
A0
98
ENDCHAR
STARTCHAR uni051A
ENCODING 1306
SWIDTH 480 0
DWIDTH 6 0
BBX 5 7 0 0
BITMAP
70
88
88
88
A8
90
68
ENDCHAR
STARTCHAR uni051B
ENCODING 1307
SWIDTH 480 0
DWIDTH 6 0
BBX 5 7 0 -2
BITMAP
78
88
88
88
78
08
08
ENDCHAR
STARTCHAR uni051C
ENCODING 1308
SWIDTH 480 0
DWIDTH 6 0
BBX 5 7 0 0
BITMAP
88
88
88
88
A8
A8
50
ENDCHAR
STARTCHAR uni051D
ENCODING 1309
SWIDTH 480 0
DWIDTH 6 0
BBX 5 5 0 0
BITMAP
88
88
A8
A8
50
ENDCHAR
STARTCHAR uni051E
ENCODING 1310
SWIDTH 480 0
DWIDTH 6 0
BBX 5 7 0 0
BITMAP
A8
90
A8
C0
A0
90
88
ENDCHAR
STARTCHAR uni051F
ENCODING 1311
SWIDTH 480 0
DWIDTH 6 0
BBX 5 5 0 0
BITMAP
A8
90
E8
90
88
ENDCHAR
STARTCHAR uni0520
ENCODING 1312
SWIDTH 480 0
DWIDTH 6 0
BBX 6 9 0 -2
BITMAP
D0
50
50
58
54
54
94
04
08
ENDCHAR
STARTCHAR uni0521
ENCODING 1313
SWIDTH 480 0
DWIDTH 6 0
BBX 6 6 0 -1
BITMAP
D0
50
58
54
94
04
ENDCHAR
STARTCHAR uni0522
ENCODING 1314
SWIDTH 480 0
DWIDTH 6 0
BBX 5 9 0 -2
BITMAP
A0
A0
A0
F0
A8
A8
A8
08
10
ENDCHAR
STARTCHAR uni0523
ENCODING 1315
SWIDTH 480 0
DWIDTH 6 0
BBX 5 7 0 -2
BITMAP
A0
A0
F0
A8
A8
08
10
ENDCHAR
STARTCHAR uni0531
ENCODING 1329
SWIDTH 480 0
DWIDTH 6 0
BBX 5 8 0 0
BITMAP
A0
A0
A0
A0
A0
A0
B0
48
ENDCHAR
STARTCHAR uni0532
ENCODING 1330
SWIDTH 480 0
DWIDTH 6 0
BBX 5 8 0 0
BITMAP
70
88
88
80
80
F0
88
80
ENDCHAR
STARTCHAR uni0533
ENCODING 1331
SWIDTH 480 0
DWIDTH 6 0
BBX 5 8 0 0
BITMAP
40
A0
A0
A0
70
28
20
20
ENDCHAR
STARTCHAR uni0534
ENCODING 1332
SWIDTH 480 0
DWIDTH 6 0
BBX 5 8 0 0
BITMAP
40
A0
A0
20
30
28
20
20
ENDCHAR
STARTCHAR uni0535
ENCODING 1333
SWIDTH 480 0
DWIDTH 6 0
BBX 5 8 0 0
BITMAP
80
80
F0
88
80
88
88
70
ENDCHAR
STARTCHAR uni0536
ENCODING 1334
SWIDTH 480 0
DWIDTH 6 0
BBX 5 8 0 0
BITMAP
60
90
90
70
10
A0
F0
88
ENDCHAR
STARTCHAR uni0537
ENCODING 1335
SWIDTH 480 0
DWIDTH 6 0
BBX 5 10 0 -2
BITMAP
80
80
F0
88
80
80
80
70
08
10
ENDCHAR
STARTCHAR uni0538
ENCODING 1336
SWIDTH 480 0
DWIDTH 6 0
BBX 5 9 0 -1
BITMAP
60
90
90
80
80
80
80
F0
08
ENDCHAR
STARTCHAR uni0539
ENCODING 1337
SWIDTH 480 0
DWIDTH 6 0
BBX 5 8 0 0
BITMAP
60
90
B8
D0
D0
A0
80
80
ENDCHAR
STARTCHAR uni053A
ENCODING 1338
SWIDTH 480 0
DWIDTH 6 0
BBX 5 8 0 0
BITMAP
10
10
10
78
90
90
90
60
ENDCHAR
STARTCHAR uni053B
ENCODING 1339
SWIDTH 480 0
DWIDTH 6 0
BBX 5 8 0 0
BITMAP
80
80
80
F0
88
88
80
80
ENDCHAR
STARTCHAR uni053C
ENCODING 1340
SWIDTH 480 0
DWIDTH 6 0
BBX 5 10 0 -2
BITMAP
80
80
80
80
80
80
80
70
08
10
ENDCHAR
STARTCHAR uni053D
ENCODING 1341
SWIDTH 480 0
DWIDTH 6 0
BBX 5 8 0 0
BITMAP
80
80
E8
A8
A8
90
80
80
ENDCHAR
STARTCHAR uni053E
ENCODING 1342
SWIDTH 480 0
DWIDTH 6 0
BBX 5 8 0 0
BITMAP
F8
70
88
88
88
88
88
70
ENDCHAR
STARTCHAR uni053F
ENCODING 1343
SWIDTH 480 0
DWIDTH 6 0
BBX 5 8 0 0
BITMAP
80
88
88
88
88
78
08
08
ENDCHAR
STARTCHAR uni0540
ENCODING 1344
SWIDTH 480 0
DWIDTH 6 0
BBX 5 9 0 -1
BITMAP
10
20
10
20
40
80
C0
30
08
ENDCHAR
STARTCHAR uni0541
ENCODING 1345
SWIDTH 480 0
DWIDTH 6 0
BBX 5 8 0 0
BITMAP
30
48
48
38
08
70
90
68
ENDCHAR
STARTCHAR uni0542
ENCODING 1346
SWIDTH 480 0
DWIDTH 6 0
BBX 5 9 0 -1
BITMAP
40
A0
A0
20
20
20
20
30
08
ENDCHAR
STARTCHAR uni0543
ENCODING 1347
SWIDTH 480 0
DWIDTH 6 0
BBX 5 8 0 0
BITMAP
10
50
20
50
50
88
88
F8
ENDCHAR
STARTCHAR uni0544
ENCODING 1348
SWIDTH 480 0
DWIDTH 6 0
BBX 5 8 0 0
BITMAP
B8
A8
A0
A0
A0
A0
A0
40
ENDCHAR
STARTCHAR uni0545
ENCODING 1349
SWIDTH 480 0
DWIDTH 6 0
BBX 5 8 0 0
BITMAP
70
88
A8
30
28
88
88
70
ENDCHAR
STARTCHAR uni0546
ENCODING 1350
SWIDTH 480 0
DWIDTH 6 0
BBX 5 8 0 0
BITMAP
40
80
C0
40
40
40
48
30
ENDCHAR
STARTCHAR uni0547
ENCODING 1351
SWIDTH 480 0
DWIDTH 6 0
BBX 5 8 0 0
BITMAP
08
F0
40
80
88
88
88
70
ENDCHAR
STARTCHAR uni0548
ENCODING 1352
SWIDTH 480 0
DWIDTH 6 0
BBX 5 8 0 0
BITMAP
70
88
88
88
88
88
88
88
ENDCHAR
STARTCHAR uni0549
ENCODING 1353
SWIDTH 480 0
DWIDTH 6 0
BBX 5 8 0 0
BITMAP
70
88
88
88
78
10
20
F8
ENDCHAR
STARTCHAR uni054A
ENCODING 1354
SWIDTH 480 0
DWIDTH 6 0
BBX 5 8 0 0
BITMAP
70
A8
A8
A8
28
28
08
08
ENDCHAR
STARTCHAR uni054B
ENCODING 1355
SWIDTH 480 0
DWIDTH 6 0
BBX 5 8 0 0
BITMAP
60
90
90
50
30
A0
F0
88
ENDCHAR
STARTCHAR uni054C
ENCODING 1356
SWIDTH 480 0
DWIDTH 6 0
BBX 5 8 0 0
BITMAP
40
A0
A0
B0
A8
A8
A0
A0
ENDCHAR
STARTCHAR uni054D
ENCODING 1357
SWIDTH 480 0
DWIDTH 6 0
BBX 5 8 0 0
BITMAP
88
88
88
88
88
88
88
70
ENDCHAR
STARTCHAR uni054E
ENCODING 1358
SWIDTH 480 0
DWIDTH 6 0
BBX 5 9 0 -1
BITMAP
20
A0
A0
A0
A0
60
20
30
08
ENDCHAR
STARTCHAR uni054F
ENCODING 1359
SWIDTH 480 0
DWIDTH 6 0
BBX 5 8 0 0
BITMAP
70
88
80
70
08
08
88
70
ENDCHAR
STARTCHAR uni0550
ENCODING 1360
SWIDTH 480 0
DWIDTH 6 0
BBX 5 8 0 0
BITMAP
70
88
88
80
80
80
80
80
ENDCHAR
STARTCHAR uni0551
ENCODING 1361
SWIDTH 480 0
DWIDTH 6 0
BBX 5 8 0 0
BITMAP
70
88
88
70
88
08
88
70
ENDCHAR
STARTCHAR uni0552
ENCODING 1362
SWIDTH 480 0
DWIDTH 6 0
BBX 5 8 0 0
BITMAP
80
80
80
E0
90
90
88
80
ENDCHAR
STARTCHAR uni0553
ENCODING 1363
SWIDTH 480 0
DWIDTH 6 0
BBX 5 7 0 1
BITMAP
20
70
A8
A8
A8
70
20
ENDCHAR
STARTCHAR uni0554
ENCODING 1364
SWIDTH 480 0
DWIDTH 6 0
BBX 5 8 0 0
BITMAP
10
28
28
30
A0
70
28
20
ENDCHAR
STARTCHAR uni0555
ENCODING 1365
SWIDTH 480 0
DWIDTH 6 0
BBX 5 8 0 0
BITMAP
70
88
88
88
88
88
88
70
ENDCHAR
STARTCHAR uni0556
ENCODING 1366
SWIDTH 480 0
DWIDTH 6 0
BBX 5 8 0 0
BITMAP
40
A0
A0
70
28
A8
A8
70
ENDCHAR
STARTCHAR uni0559
ENCODING 1369
SWIDTH 480 0
DWIDTH 6 0
BBX 2 4 1 6
BITMAP
40
80
80
40
ENDCHAR
STARTCHAR uni055A
ENCODING 1370
SWIDTH 480 0
DWIDTH 6 0
BBX 2 3 2 6
BITMAP
C0
40
80
ENDCHAR
STARTCHAR uni055B
ENCODING 1371
SWIDTH 480 0
DWIDTH 6 0
BBX 2 2 2 7
BITMAP
40
80
ENDCHAR
STARTCHAR uni055C
ENCODING 1372
SWIDTH 480 0
DWIDTH 6 0
BBX 5 3 0 7
BITMAP
08
70
80
ENDCHAR
STARTCHAR uni055D
ENCODING 1373
SWIDTH 480 0
DWIDTH 6 0
BBX 2 2 2 7
BITMAP
80
40
ENDCHAR
STARTCHAR uni055E
ENCODING 1374
SWIDTH 480 0
DWIDTH 6 0
BBX 5 5 0 4
BITMAP
70
88
A8
A8
10
ENDCHAR
STARTCHAR uni055F
ENCODING 1375
SWIDTH 480 0
DWIDTH 6 0
BBX 5 3 0 6
BITMAP
C0
88
70
ENDCHAR
STARTCHAR uni0561
ENCODING 1377
SWIDTH 480 0
DWIDTH 6 0
BBX 5 4 0 0
BITMAP
88
A8
A8
58
ENDCHAR
STARTCHAR uni0562
ENCODING 1378
SWIDTH 480 0
DWIDTH 6 0
BBX 5 7 0 -2
BITMAP
F0
88
88
80
F8
80
80
ENDCHAR
STARTCHAR uni0563
ENCODING 1379
SWIDTH 480 0
DWIDTH 6 0
BBX 5 7 0 -2
BITMAP
70
90
90
90
78
10
10
ENDCHAR
STARTCHAR uni0564
ENCODING 1380
SWIDTH 480 0
DWIDTH 6 0
BBX 5 7 0 -2
BITMAP
A0
D0
90
90
98
10
10
ENDCHAR
STARTCHAR uni0565
ENCODING 1381
SWIDTH 480 0
DWIDTH 6 0
BBX 5 8 0 0
BITMAP
80
80
80
F8
80
88
C8
B0
ENDCHAR
STARTCHAR uni0566
ENCODING 1382
SWIDTH 480 0
DWIDTH 6 0
BBX 5 7 0 -2
BITMAP
70
90
90
90
70
10
18
ENDCHAR
STARTCHAR uni0567
ENCODING 1383
SWIDTH 480 0
DWIDTH 6 0
BBX 5 9 0 -1
BITMAP
80
80
80
F8
80
80
80
70
08
ENDCHAR
STARTCHAR uni0568
ENCODING 1384
SWIDTH 480 0
DWIDTH 6 0
BBX 5 7 0 -2
BITMAP
B0
C8
88
88
88
80
F8
ENDCHAR
STARTCHAR uni0569
ENCODING 1385
SWIDTH 480 0
DWIDTH 6 0
BBX 5 7 0 -2
BITMAP
A0
D0
90
B8
D0
A0
80
ENDCHAR
STARTCHAR uni056A
ENCODING 1386
SWIDTH 480 0
DWIDTH 6 0
BBX 5 8 0 0
BITMAP
10
10
10
78
90
90
90
60
ENDCHAR
STARTCHAR uni056B
ENCODING 1387
SWIDTH 480 0
DWIDTH 6 0
BBX 4 10 0 -2
BITMAP
80
80
80
A0
D0
90
90
90
80
80
ENDCHAR
STARTCHAR uni056C
ENCODING 1388
SWIDTH 480 0
DWIDTH 6 0
BBX 4 7 0 -2
BITMAP
C0
40
40
40
40
40
30
ENDCHAR
STARTCHAR uni056D
ENCODING 1389
SWIDTH 480 0
DWIDTH 6 0
BBX 5 9 0 -2
BITMAP
80
80
E8
A8
A8
A8
90
80
80
ENDCHAR
STARTCHAR uni056E
ENCODING 1390
SWIDTH 480 0
DWIDTH 6 0
BBX 5 8 0 0
BITMAP
80
40
20
78
90
90
90
60
ENDCHAR
STARTCHAR uni056F
ENCODING 1391
SWIDTH 480 0
DWIDTH 6 0
BBX 5 10 0 -2
BITMAP
80
80
80
88
88
88
88
78
08
08
ENDCHAR
STARTCHAR uni0570
ENCODING 1392
SWIDTH 480 0
DWIDTH 6 0
BBX 5 8 0 0
BITMAP
80
80
80
B0
C8
88
88
88
ENDCHAR
STARTCHAR uni0571
ENCODING 1393
SWIDTH 480 0
DWIDTH 6 0
BBX 5 8 0 0
BITMAP
20
40
20
78
88
88
88
78
ENDCHAR
STARTCHAR uni0572
ENCODING 1394
SWIDTH 480 0
DWIDTH 6 0
BBX 5 7 0 -2
BITMAP
A0
D0
90
90
90
10
18
ENDCHAR
STARTCHAR uni0573
ENCODING 1395
SWIDTH 480 0
DWIDTH 6 0
BBX 5 8 0 0
BITMAP
30
48
40
F8
48
48
58
28
ENDCHAR
STARTCHAR uni0574
ENCODING 1396
SWIDTH 480 0
DWIDTH 6 0
BBX 5 8 0 0
BITMAP
08
10
10
90
90
90
B0
50
ENDCHAR
STARTCHAR uni0575
ENCODING 1397
SWIDTH 480 0
DWIDTH 6 0
BBX 5 7 0 -2
BITMAP
18
08
08
08
88
88
70
ENDCHAR
STARTCHAR uni0576
ENCODING 1398
SWIDTH 480 0
DWIDTH 6 0
BBX 5 8 0 0
BITMAP
70
88
80
98
88
88
98
68
ENDCHAR
STARTCHAR uni0577
ENCODING 1399
SWIDTH 480 0
DWIDTH 6 0
BBX 4 8 1 -2
BITMAP
60
90
10
10
20
40
80
70
ENDCHAR
STARTCHAR uni0578
ENCODING 1400
SWIDTH 480 0
DWIDTH 6 0
BBX 5 5 0 0
BITMAP
B0
C8
88
88
88
ENDCHAR
STARTCHAR uni0579
ENCODING 1401
SWIDTH 480 0
DWIDTH 6 0
BBX 5 8 0 0
BITMAP
20
40
20
20
40
40
80
F8
ENDCHAR
STARTCHAR uni057A
ENCODING 1402
SWIDTH 480 0
DWIDTH 6 0
BBX 5 7 0 -2
BITMAP
88
A8
A8
A8
58
08
08
ENDCHAR
STARTCHAR uni057B
ENCODING 1403
SWIDTH 480 0
DWIDTH 6 0
BBX 5 7 0 -2
BITMAP
70
88
88
50
20
40
38
ENDCHAR
STARTCHAR uni057C
ENCODING 1404
SWIDTH 480 0
DWIDTH 6 0
BBX 5 5 0 0
BITMAP
A0
D0
90
90
98
ENDCHAR
STARTCHAR uni057D
ENCODING 1405
SWIDTH 480 0
DWIDTH 6 0
BBX 5 5 0 0
BITMAP
88
88
88
98
68
ENDCHAR
STARTCHAR uni057E
ENCODING 1406
SWIDTH 480 0
DWIDTH 6 0
BBX 5 9 0 -2
BITMAP
10
10
90
90
90
90
70
10
18
ENDCHAR
STARTCHAR uni057F
ENCODING 1407
SWIDTH 480 0
DWIDTH 6 0
BBX 5 5 0 0
BITMAP
B0
A8
A8
A8
68
ENDCHAR
STARTCHAR uni0580
ENCODING 1408
SWIDTH 480 0
DWIDTH 6 0
BBX 5 7 0 -2
BITMAP
B0
C8
88
88
88
80
80
ENDCHAR
STARTCHAR uni0581
ENCODING 1409
SWIDTH 480 0
DWIDTH 6 0
BBX 5 7 0 -2
BITMAP
70
88
88
78
08
88
70
ENDCHAR
STARTCHAR uni0582
ENCODING 1410
SWIDTH 480 0
DWIDTH 6 0
BBX 4 5 1 0
BITMAP
80
80
80
80
70
ENDCHAR
STARTCHAR uni0583
ENCODING 1411
SWIDTH 480 0
DWIDTH 6 0
BBX 5 10 0 -2
BITMAP
20
20
20
B0
A8
A8
A8
68
20
20
ENDCHAR
STARTCHAR uni0584
ENCODING 1412
SWIDTH 480 0
DWIDTH 6 0
BBX 5 7 0 -2
BITMAP
30
48
48
70
40
F8
40
ENDCHAR
STARTCHAR uni0585
ENCODING 1413
SWIDTH 480 0
DWIDTH 6 0
BBX 5 5 0 0
BITMAP
70
88
88
88
70
ENDCHAR
STARTCHAR uni0586
ENCODING 1414
SWIDTH 480 0
DWIDTH 6 0
BBX 5 10 0 -2
BITMAP
60
A0
A0
70
28
28
A8
70
20
20
ENDCHAR
STARTCHAR uni0587
ENCODING 1415
SWIDTH 480 0
DWIDTH 6 0
BBX 5 7 0 0
BITMAP
80
80
90
90
90
90
68
ENDCHAR
STARTCHAR uni0589
ENCODING 1417
SWIDTH 480 0
DWIDTH 6 0
BBX 2 5 2 1
BITMAP
C0
C0
00
C0
C0
ENDCHAR
STARTCHAR uni058A
ENCODING 1418
SWIDTH 480 0
DWIDTH 6 0
BBX 4 2 1 3
BITMAP
80
70
ENDCHAR
STARTCHAR uni0591
ENCODING 1425
SWIDTH 480 0
DWIDTH 6 0
BBX 3 2 1 -2
BITMAP
40
A0
ENDCHAR
STARTCHAR uni0592
ENCODING 1426
SWIDTH 480 0
DWIDTH 6 0
BBX 5 2 0 7
BITMAP
20
88
ENDCHAR
STARTCHAR uni0593
ENCODING 1427
SWIDTH 480 0
DWIDTH 6 0
BBX 2 4 2 6
BITMAP
40
80
40
80
ENDCHAR
STARTCHAR uni0594
ENCODING 1428
SWIDTH 480 0
DWIDTH 6 0
BBX 1 3 2 6
BITMAP
80
00
80
ENDCHAR
STARTCHAR uni0595
ENCODING 1429
SWIDTH 480 0
DWIDTH 6 0
BBX 3 3 1 6
BITMAP
A0
80
A0
ENDCHAR
STARTCHAR uni0596
ENCODING 1430
SWIDTH 480 0
DWIDTH 6 0
BBX 2 2 2 -2
BITMAP
80
40
ENDCHAR
STARTCHAR uni0597
ENCODING 1431
SWIDTH 480 0
DWIDTH 6 0
BBX 3 3 1 6
BITMAP
40
E0
40
ENDCHAR
STARTCHAR uni0598
ENCODING 1432
SWIDTH 480 0
DWIDTH 6 0
BBX 5 3 0 6
BITMAP
48
A8
90
ENDCHAR
STARTCHAR uni0599
ENCODING 1433
SWIDTH 480 0
DWIDTH 6 0
BBX 2 3 0 6
BITMAP
80
40
40
ENDCHAR
STARTCHAR uni059A
ENCODING 1434
SWIDTH 480 0
DWIDTH 6 0
BBX 2 3 4 -2
BITMAP
40
80
40
ENDCHAR
STARTCHAR uni059B
ENCODING 1435
SWIDTH 480 0
DWIDTH 6 0
BBX 4 2 1 -2
BITMAP
90
20
ENDCHAR
STARTCHAR uni059C
ENCODING 1436
SWIDTH 480 0
DWIDTH 6 0
BBX 3 3 2 6
BITMAP
60
80
80
ENDCHAR
STARTCHAR uni059D
ENCODING 1437
SWIDTH 480 0
DWIDTH 6 0
BBX 2 3 4 6
BITMAP
40
80
80
ENDCHAR
STARTCHAR uni059E
ENCODING 1438
SWIDTH 480 0
DWIDTH 6 0
BBX 4 5 2 5
BITMAP
40
90
A0
A0
20
ENDCHAR
STARTCHAR uni059F
ENCODING 1439
SWIDTH 480 0
DWIDTH 6 0
BBX 5 4 0 5
BITMAP
50
A8
50
50
ENDCHAR
STARTCHAR uni05A0
ENCODING 1440
SWIDTH 480 0
DWIDTH 6 0
BBX 3 4 2 5
BITMAP
40
A0
40
40
ENDCHAR
STARTCHAR uni05A1
ENCODING 1441
SWIDTH 480 0
DWIDTH 6 0
BBX 4 3 0 6
BITMAP
50
D0
20
ENDCHAR
STARTCHAR uni05A2
ENCODING 1442
SWIDTH 480 0
DWIDTH 6 0
BBX 3 2 1 -2
BITMAP
A0
40
ENDCHAR
STARTCHAR uni05A3
ENCODING 1443
SWIDTH 480 0
DWIDTH 6 0
BBX 3 2 1 -2
BITMAP
20
E0
ENDCHAR
STARTCHAR uni05A4
ENCODING 1444
SWIDTH 480 0
DWIDTH 6 0
BBX 2 3 1 -2
BITMAP
40
80
40
ENDCHAR
STARTCHAR uni05A5
ENCODING 1445
SWIDTH 480 0
DWIDTH 6 0
BBX 2 2 2 -2
BITMAP
40
80
ENDCHAR
STARTCHAR uni05A6
ENCODING 1446
SWIDTH 480 0
DWIDTH 6 0
BBX 5 2 0 -2
BITMAP
48
90
ENDCHAR
STARTCHAR uni05A7
ENCODING 1447
SWIDTH 480 0
DWIDTH 6 0
BBX 2 4 2 -2
BITMAP
40
80
40
80
ENDCHAR
STARTCHAR uni05A8
ENCODING 1448
SWIDTH 480 0
DWIDTH 6 0
BBX 2 3 1 6
BITMAP
80
40
40
ENDCHAR
STARTCHAR uni05A9
ENCODING 1449
SWIDTH 480 0
DWIDTH 6 0
BBX 3 4 0 5
BITMAP
40
A0
40
40
ENDCHAR
STARTCHAR uni05AA
ENCODING 1450
SWIDTH 480 0
DWIDTH 6 0
BBX 3 2 1 -2
BITMAP
A0
40
ENDCHAR
STARTCHAR uni05AB
ENCODING 1451
SWIDTH 480 0
DWIDTH 6 0
BBX 2 3 1 6
BITMAP
40
80
40
ENDCHAR
STARTCHAR uni05AC
ENCODING 1452
SWIDTH 480 0
DWIDTH 6 0
BBX 3 3 1 6
BITMAP
20
20
E0
ENDCHAR
STARTCHAR uni05AD
ENCODING 1453
SWIDTH 480 0
DWIDTH 6 0
BBX 2 2 4 -2
BITMAP
80
40
ENDCHAR
STARTCHAR uni05AE
ENCODING 1454
SWIDTH 480 0
DWIDTH 6 0
BBX 4 4 0 6
BITMAP
10
50
A0
80
ENDCHAR
STARTCHAR uni05AF
ENCODING 1455
SWIDTH 480 0
DWIDTH 6 0
BBX 3 3 1 6
BITMAP
40
A0
40
ENDCHAR
STARTCHAR afii57799
ENCODING 1456
SWIDTH 480 0
DWIDTH 6 0
BBX 1 3 2 -2
BITMAP
80
00
80
ENDCHAR
STARTCHAR afii57801
ENCODING 1457
SWIDTH 480 0
DWIDTH 6 0
BBX 5 3 0 -2
BITMAP
A8
00
48
ENDCHAR
STARTCHAR afii57800
ENCODING 1458
SWIDTH 480 0
DWIDTH 6 0
BBX 5 3 0 -2
BITMAP
08
E0
08
ENDCHAR
STARTCHAR afii57802
ENCODING 1459
SWIDTH 480 0
DWIDTH 6 0
BBX 5 3 0 -2
BITMAP
08
E0
48
ENDCHAR
STARTCHAR afii57793
ENCODING 1460
SWIDTH 480 0
DWIDTH 6 0
BBX 1 1 2 -2
BITMAP
80
ENDCHAR
STARTCHAR afii57794
ENCODING 1461
SWIDTH 480 0
DWIDTH 6 0
BBX 3 1 1 -2
BITMAP
A0
ENDCHAR
STARTCHAR afii57795
ENCODING 1462
SWIDTH 480 0
DWIDTH 6 0
BBX 5 2 0 -2
BITMAP
88
20
ENDCHAR
STARTCHAR afii57798
ENCODING 1463
SWIDTH 480 0
DWIDTH 6 0
BBX 3 1 1 -2
BITMAP
E0
ENDCHAR
STARTCHAR afii57797
ENCODING 1464
SWIDTH 480 0
DWIDTH 6 0
BBX 3 2 1 -2
BITMAP
E0
40
ENDCHAR
STARTCHAR afii57806
ENCODING 1465
SWIDTH 480 0
DWIDTH 6 0
BBX 1 1 1 6
BITMAP
80
ENDCHAR
STARTCHAR uni05BA
ENCODING 1466
SWIDTH 480 0
DWIDTH 6 0
BBX 2 2 0 6
BITMAP
C0
C0
ENDCHAR
STARTCHAR afii57796
ENCODING 1467
SWIDTH 480 0
DWIDTH 6 0
BBX 5 3 0 -2
BITMAP
80
20
08
ENDCHAR
STARTCHAR afii57807
ENCODING 1468
SWIDTH 480 0
DWIDTH 6 0
BBX 1 1 2 3
BITMAP
80
ENDCHAR
STARTCHAR afii57839
ENCODING 1469
SWIDTH 480 0
DWIDTH 6 0
BBX 1 2 2 -2
BITMAP
80
80
ENDCHAR
STARTCHAR afii57645
ENCODING 1470
SWIDTH 480 0
DWIDTH 6 0
BBX 4 1 1 4
BITMAP
F0
ENDCHAR
STARTCHAR afii57841
ENCODING 1471
SWIDTH 480 0
DWIDTH 6 0
BBX 3 1 1 6
BITMAP
E0
ENDCHAR
STARTCHAR afii57842
ENCODING 1472
SWIDTH 480 0
DWIDTH 6 0
BBX 1 5 2 0
BITMAP
80
80
80
80
80
ENDCHAR
STARTCHAR afii57804
ENCODING 1473
SWIDTH 480 0
DWIDTH 6 0
BBX 1 1 4 6
BITMAP
80
ENDCHAR
STARTCHAR afii57803
ENCODING 1474
SWIDTH 480 0
DWIDTH 6 0
BBX 1 1 0 6
BITMAP
80
ENDCHAR
STARTCHAR afii57658
ENCODING 1475
SWIDTH 480 0
DWIDTH 6 0
BBX 1 6 2 0
BITMAP
80
80
00
00
80
80
ENDCHAR
STARTCHAR uni05C4
ENCODING 1476
SWIDTH 480 0
DWIDTH 6 0
BBX 1 1 2 6
BITMAP
80
ENDCHAR
STARTCHAR uni05C5
ENCODING 1477
SWIDTH 480 0
DWIDTH 6 0
BBX 2 2 1 -2
BITMAP
C0
C0
ENDCHAR
STARTCHAR uni05C6
ENCODING 1478
SWIDTH 480 0
DWIDTH 6 0
BBX 3 5 1 0
BITMAP
40
80
80
80
E0
ENDCHAR
STARTCHAR uni05C7
ENCODING 1479
SWIDTH 480 0
DWIDTH 6 0
BBX 3 3 1 -2
BITMAP
E0
40
40
ENDCHAR
STARTCHAR afii57664
ENCODING 1488
SWIDTH 480 0
DWIDTH 6 0
BBX 5 5 0 0
BITMAP
90
48
68
90
C8
ENDCHAR
STARTCHAR afii57665
ENCODING 1489
SWIDTH 480 0
DWIDTH 6 0
BBX 5 5 0 0
BITMAP
F0
10
10
10
F8
ENDCHAR
STARTCHAR afii57666
ENCODING 1490
SWIDTH 480 0
DWIDTH 6 0
BBX 4 5 1 0
BITMAP
80
40
20
50
90
ENDCHAR
STARTCHAR afii57667
ENCODING 1491
SWIDTH 480 0
DWIDTH 6 0
BBX 5 5 0 0
BITMAP
F8
10
10
10
10
ENDCHAR
STARTCHAR afii57668
ENCODING 1492
SWIDTH 480 0
DWIDTH 6 0
BBX 5 5 0 0
BITMAP
F8
08
08
88
88
ENDCHAR
STARTCHAR afii57669
ENCODING 1493
SWIDTH 480 0
DWIDTH 6 0
BBX 2 5 2 0
BITMAP
C0
40
40
40
40
ENDCHAR
STARTCHAR afii57670
ENCODING 1494
SWIDTH 480 0
DWIDTH 6 0
BBX 5 5 0 0
BITMAP
F8
20
10
10
10
ENDCHAR
STARTCHAR afii57671
ENCODING 1495
SWIDTH 480 0
DWIDTH 6 0
BBX 5 5 0 0
BITMAP
F8
48
48
48
48
ENDCHAR
STARTCHAR afii57672
ENCODING 1496
SWIDTH 480 0
DWIDTH 6 0
BBX 5 5 0 0
BITMAP
98
A8
88
88
F8
ENDCHAR
STARTCHAR afii57673
ENCODING 1497
SWIDTH 480 0
DWIDTH 6 0
BBX 2 3 2 2
BITMAP
C0
40
40
ENDCHAR
STARTCHAR afii57674
ENCODING 1498
SWIDTH 480 0
DWIDTH 6 0
BBX 5 7 0 -2
BITMAP
F8
08
08
08
08
08
08
ENDCHAR
STARTCHAR afii57675
ENCODING 1499
SWIDTH 480 0
DWIDTH 6 0
BBX 5 5 0 0
BITMAP
F8
08
08
08
F0
ENDCHAR
STARTCHAR afii57676
ENCODING 1500
SWIDTH 480 0
DWIDTH 6 0
BBX 5 8 0 0
BITMAP
80
80
80
F8
08
08
10
60
ENDCHAR
STARTCHAR afii57677
ENCODING 1501
SWIDTH 480 0
DWIDTH 6 0
BBX 5 5 0 0
BITMAP
F8
48
48
48
78
ENDCHAR
STARTCHAR afii57678
ENCODING 1502
SWIDTH 480 0
DWIDTH 6 0
BBX 5 5 0 0
BITMAP
90
A8
48
88
B8
ENDCHAR
STARTCHAR afii57679
ENCODING 1503
SWIDTH 480 0
DWIDTH 6 0
BBX 2 7 2 -2
BITMAP
C0
40
40
40
40
40
40
ENDCHAR
STARTCHAR afii57680
ENCODING 1504
SWIDTH 480 0
DWIDTH 6 0
BBX 4 5 1 0
BITMAP
30
10
10
10
F0
ENDCHAR
STARTCHAR afii57681
ENCODING 1505
SWIDTH 480 0
DWIDTH 6 0
BBX 5 5 0 0
BITMAP
F8
48
48
50
60
ENDCHAR
STARTCHAR afii57682
ENCODING 1506
SWIDTH 480 0
DWIDTH 6 0
BBX 5 5 0 0
BITMAP
D8
48
48
50
E0
ENDCHAR
STARTCHAR afii57683
ENCODING 1507
SWIDTH 480 0
DWIDTH 6 0
BBX 5 7 0 -2
BITMAP
F8
48
48
08
08
08
08
ENDCHAR
STARTCHAR afii57684
ENCODING 1508
SWIDTH 480 0
DWIDTH 6 0
BBX 5 5 0 0
BITMAP
F8
48
48
08
F0
ENDCHAR
STARTCHAR afii57685
ENCODING 1509
SWIDTH 480 0
DWIDTH 6 0
BBX 5 7 0 -2
BITMAP
90
48
48
50
60
40
40
ENDCHAR
STARTCHAR afii57686
ENCODING 1510
SWIDTH 480 0
DWIDTH 6 0
BBX 5 5 0 0
BITMAP
90
48
28
10
F8
ENDCHAR
STARTCHAR afii57687
ENCODING 1511
SWIDTH 480 0
DWIDTH 6 0
BBX 5 7 0 -2
BITMAP
F8
08
88
88
B0
80
80
ENDCHAR
STARTCHAR afii57688
ENCODING 1512
SWIDTH 480 0
DWIDTH 6 0
BBX 5 5 0 0
BITMAP
F0
08
08
08
08
ENDCHAR
STARTCHAR afii57689
ENCODING 1513
SWIDTH 480 0
DWIDTH 6 0
BBX 5 5 0 0
BITMAP
A8
A8
E8
88
F0
ENDCHAR
STARTCHAR afii57690
ENCODING 1514
SWIDTH 480 0
DWIDTH 6 0
BBX 5 5 0 0
BITMAP
F8
48
48
48
C8
ENDCHAR
STARTCHAR afii57716
ENCODING 1520
SWIDTH 480 0
DWIDTH 6 0
BBX 5 5 0 0
BITMAP
D8
48
48
48
48
ENDCHAR
STARTCHAR afii57717
ENCODING 1521
SWIDTH 480 0
DWIDTH 6 0
BBX 5 5 0 0
BITMAP
D8
48
48
08
08
ENDCHAR
STARTCHAR afii57718
ENCODING 1522
SWIDTH 480 0
DWIDTH 6 0
BBX 5 3 0 2
BITMAP
D8
48
48
ENDCHAR
STARTCHAR uni05F3
ENCODING 1523
SWIDTH 480 0
DWIDTH 6 0
BBX 2 2 2 3
BITMAP
40
80
ENDCHAR
STARTCHAR uni05F4
ENCODING 1524
SWIDTH 480 0
DWIDTH 6 0
BBX 5 2 0 3
BITMAP
48
90
ENDCHAR
STARTCHAR uni1680
ENCODING 5760
SWIDTH 480 0
DWIDTH 6 0
BBX 6 1 0 3
BITMAP
FC
ENDCHAR
STARTCHAR uni1681
ENCODING 5761
SWIDTH 480 0
DWIDTH 6 0
BBX 6 4 0 0
BITMAP
FC
08
08
08
ENDCHAR
STARTCHAR uni1682
ENCODING 5762
SWIDTH 480 0
DWIDTH 6 0
BBX 6 4 0 0
BITMAP
FC
28
28
28
ENDCHAR
STARTCHAR uni1683
ENCODING 5763
SWIDTH 480 0
DWIDTH 6 0
BBX 6 4 0 0
BITMAP
FC
38
38
38
ENDCHAR
STARTCHAR uni1684
ENCODING 5764
SWIDTH 480 0
DWIDTH 6 0
BBX 6 4 0 0
BITMAP
FC
78
78
78
ENDCHAR
STARTCHAR uni1685
ENCODING 5765
SWIDTH 480 0
DWIDTH 6 0
BBX 6 4 0 0
BITMAP
FC
F8
F8
F8
ENDCHAR
STARTCHAR uni1686
ENCODING 5766
SWIDTH 480 0
DWIDTH 6 0
BBX 6 4 0 3
BITMAP
08
08
08
FC
ENDCHAR
STARTCHAR uni1687
ENCODING 5767
SWIDTH 480 0
DWIDTH 6 0
BBX 6 4 0 3
BITMAP
28
28
28
FC
ENDCHAR
STARTCHAR uni1688
ENCODING 5768
SWIDTH 480 0
DWIDTH 6 0
BBX 6 4 0 3
BITMAP
38
38
38
FC
ENDCHAR
STARTCHAR uni1689
ENCODING 5769
SWIDTH 480 0
DWIDTH 6 0
BBX 6 4 0 3
BITMAP
78
78
78
FC
ENDCHAR
STARTCHAR uni168A
ENCODING 5770
SWIDTH 480 0
DWIDTH 6 0
BBX 6 4 0 3
BITMAP
F8
F8
F8
FC
ENDCHAR
STARTCHAR uni168B
ENCODING 5771
SWIDTH 480 0
DWIDTH 6 0
BBX 6 7 0 0
BITMAP
10
10
10
FC
20
20
20
ENDCHAR
STARTCHAR uni168C
ENCODING 5772
SWIDTH 480 0
DWIDTH 6 0
BBX 6 7 0 0
BITMAP
28
28
28
FC
50
50
50
ENDCHAR
STARTCHAR uni168D
ENCODING 5773
SWIDTH 480 0
DWIDTH 6 0
BBX 6 7 0 0
BITMAP
38
38
38
FC
70
70
70
ENDCHAR
STARTCHAR uni168E
ENCODING 5774
SWIDTH 480 0
DWIDTH 6 0
BBX 6 7 0 0
BITMAP
3C
3C
3C
FC
78
78
78
ENDCHAR
STARTCHAR uni168F
ENCODING 5775
SWIDTH 480 0
DWIDTH 6 0
BBX 6 7 0 0
BITMAP
7C
7C
7C
FC
F8
F8
F8
ENDCHAR
STARTCHAR uni1690
ENCODING 5776
SWIDTH 480 0
DWIDTH 6 0
BBX 6 3 0 2
BITMAP
10
FC
10
ENDCHAR
STARTCHAR uni1691
ENCODING 5777
SWIDTH 480 0
DWIDTH 6 0
BBX 6 3 0 2
BITMAP
28
FC
28
ENDCHAR
STARTCHAR uni1692
ENCODING 5778
SWIDTH 480 0
DWIDTH 6 0
BBX 6 3 0 2
BITMAP
38
FC
38
ENDCHAR
STARTCHAR uni1693
ENCODING 5779
SWIDTH 480 0
DWIDTH 6 0
BBX 6 3 0 2
BITMAP
78
FC
78
ENDCHAR
STARTCHAR uni1694
ENCODING 5780
SWIDTH 480 0
DWIDTH 6 0
BBX 6 3 0 2
BITMAP
F8
FC
F8
ENDCHAR
STARTCHAR uni1695
ENCODING 5781
SWIDTH 480 0
DWIDTH 6 0
BBX 6 7 0 0
BITMAP
28
28
10
FC
10
28
28
ENDCHAR
STARTCHAR uni1696
ENCODING 5782
SWIDTH 480 0
DWIDTH 6 0
BBX 6 7 0 0
BITMAP
30
48
84
FC
84
48
30
ENDCHAR
STARTCHAR uni1697
ENCODING 5783
SWIDTH 480 0
DWIDTH 6 0
BBX 6 5 0 -1
BITMAP
FC
40
58
48
78
ENDCHAR
STARTCHAR uni1698
ENCODING 5784
SWIDTH 480 0
DWIDTH 6 0
BBX 6 4 0 0
BITMAP
FC
D8
70
D8
ENDCHAR
STARTCHAR uni1699
ENCODING 5785
SWIDTH 480 0
DWIDTH 6 0
BBX 5 6 1 3
BITMAP
50
F8
50
F8
50
F8
ENDCHAR
STARTCHAR uni169A
ENCODING 5786
SWIDTH 480 0
DWIDTH 6 0
BBX 6 3 0 1
BITMAP
FC
00
78
ENDCHAR
STARTCHAR uni169B
ENCODING 5787
SWIDTH 480 0
DWIDTH 6 0
BBX 6 7 0 0
BITMAP
80
40
20
1C
20
40
80
ENDCHAR
STARTCHAR uni169C
ENCODING 5788
SWIDTH 480 0
DWIDTH 6 0
BBX 6 5 0 1
BITMAP
04
08
F0
08
04
ENDCHAR
STARTCHAR uni16A0
ENCODING 5792
SWIDTH 480 0
DWIDTH 6 0
BBX 4 9 1 0
BITMAP
90
A0
C0
90
A0
C0
80
80
80
ENDCHAR
STARTCHAR uni16A1
ENCODING 5793
SWIDTH 480 0
DWIDTH 6 0
BBX 4 10 1 0
BITMAP
20
80
90
A0
C0
90
A0
C0
80
80
ENDCHAR
STARTCHAR uni16A2
ENCODING 5794
SWIDTH 480 0
DWIDTH 6 0
BBX 5 9 0 0
BITMAP
80
C0
A0
90
88
88
88
88
88
ENDCHAR
STARTCHAR uni16A3
ENCODING 5795
SWIDTH 480 0
DWIDTH 6 0
BBX 5 9 0 0
BITMAP
80
C0
A0
90
A8
A8
A8
A8
A8
ENDCHAR
STARTCHAR uni16A4
ENCODING 5796
SWIDTH 480 0
DWIDTH 6 0
BBX 5 9 0 0
BITMAP
80
C0
A0
90
88
A8
88
88
88
ENDCHAR
STARTCHAR uni16A5
ENCODING 5797
SWIDTH 480 0
DWIDTH 6 0
BBX 5 9 0 0
BITMAP
80
C0
A0
90
C8
A8
A8
A8
A8
ENDCHAR
STARTCHAR uni16A6
ENCODING 5798
SWIDTH 480 0
DWIDTH 6 0
BBX 4 9 1 0
BITMAP
80
80
C0
A0
90
A0
C0
80
80
ENDCHAR
STARTCHAR uni16A7
ENCODING 5799
SWIDTH 480 0
DWIDTH 6 0
BBX 4 9 1 0
BITMAP
80
80
C0
A0
D0
A0
C0
80
80
ENDCHAR
STARTCHAR uni16A8
ENCODING 5800
SWIDTH 480 0
DWIDTH 6 0
BBX 4 9 1 0
BITMAP
80
C0
A0
90
C0
A0
90
80
80
ENDCHAR
STARTCHAR uni16A9
ENCODING 5801
SWIDTH 480 0
DWIDTH 6 0
BBX 5 9 0 0
BITMAP
C8
B0
80
C8
B0
80
80
80
80
ENDCHAR
STARTCHAR uni16AA
ENCODING 5802
SWIDTH 480 0
DWIDTH 6 0
BBX 5 9 0 0
BITMAP
88
D0
A0
80
C0
B0
80
80
80
ENDCHAR
STARTCHAR uni16AB
ENCODING 5803
SWIDTH 480 0
DWIDTH 6 0
BBX 4 9 1 0
BITMAP
80
C0
A0
90
C0
A0
90
80
80
ENDCHAR
STARTCHAR uni16AC
ENCODING 5804
SWIDTH 480 0
DWIDTH 6 0
BBX 5 9 0 0
BITMAP
20
A0
60
30
A8
60
30
28
20
ENDCHAR
STARTCHAR uni16AD
ENCODING 5805
SWIDTH 480 0
DWIDTH 6 0
BBX 3 9 1 0
BITMAP
80
80
80
C0
A0
80
C0
A0
80
ENDCHAR
STARTCHAR uni16AE
ENCODING 5806
SWIDTH 480 0
DWIDTH 6 0
BBX 3 9 0 0
BITMAP
20
20
20
60
A0
20
60
A0
20
ENDCHAR
STARTCHAR uni16AF
ENCODING 5807
SWIDTH 480 0
DWIDTH 6 0
BBX 5 9 0 0
BITMAP
20
28
30
60
A8
30
60
A0
20
ENDCHAR
STARTCHAR uni16B0
ENCODING 5808
SWIDTH 480 0
DWIDTH 6 0
BBX 5 9 0 0
BITMAP
20
28
30
60
A0
20
60
A0
20
ENDCHAR
STARTCHAR uni16B1
ENCODING 5809
SWIDTH 480 0
DWIDTH 6 0
BBX 5 9 0 0
BITMAP
C0
B0
88
B0
C0
A0
90
88
80
ENDCHAR
STARTCHAR uni16B2
ENCODING 5810
SWIDTH 480 0
DWIDTH 6 0
BBX 4 7 1 1
BITMAP
10
20
40
80
40
20
10
ENDCHAR
STARTCHAR uni16B3
ENCODING 5811
SWIDTH 480 0
DWIDTH 6 0
BBX 5 9 0 0
BITMAP
80
80
80
80
80
C0
A0
90
88
ENDCHAR
STARTCHAR uni16B4
ENCODING 5812
SWIDTH 480 0
DWIDTH 6 0
BBX 5 9 0 0
BITMAP
88
90
A0
C0
80
80
80
80
80
ENDCHAR
STARTCHAR uni16B5
ENCODING 5813
SWIDTH 480 0
DWIDTH 6 0
BBX 5 10 0 0
BITMAP
20
88
90
A0
C0
80
80
80
80
80
ENDCHAR
STARTCHAR uni16B6
ENCODING 5814
SWIDTH 480 0
DWIDTH 6 0
BBX 6 9 0 0
BITMAP
44
48
50
E0
40
40
40
40
40
ENDCHAR
STARTCHAR uni16B7
ENCODING 5815
SWIDTH 480 0
DWIDTH 6 0
BBX 5 9 0 0
BITMAP
88
88
50
50
20
50
50
88
88
ENDCHAR
STARTCHAR uni16B8
ENCODING 5816
SWIDTH 480 0
DWIDTH 6 0
BBX 5 9 0 0
BITMAP
88
88
50
50
A8
50
50
88
88
ENDCHAR
STARTCHAR uni16B9
ENCODING 5817
SWIDTH 480 0
DWIDTH 6 0
BBX 5 9 0 0
BITMAP
C0
B0
88
B0
C0
80
80
80
80
ENDCHAR
STARTCHAR uni16BA
ENCODING 5818
SWIDTH 480 0
DWIDTH 6 0
BBX 5 9 0 0
BITMAP
88
88
88
C8
A8
98
88
88
88
ENDCHAR
STARTCHAR uni16BB
ENCODING 5819
SWIDTH 480 0
DWIDTH 6 0
BBX 5 9 0 0
BITMAP
88
88
C8
A8
D8
A8
98
88
88
ENDCHAR
STARTCHAR uni16BC
ENCODING 5820
SWIDTH 480 0
DWIDTH 6 0
BBX 5 9 0 0
BITMAP
20
20
A8
70
20
70
A8
20
20
ENDCHAR
STARTCHAR uni16BD
ENCODING 5821
SWIDTH 480 0
DWIDTH 6 0
BBX 3 9 1 0
BITMAP
40
40
40
E0
E0
E0
40
40
40
ENDCHAR
STARTCHAR uni16BE
ENCODING 5822
SWIDTH 480 0
DWIDTH 6 0
BBX 5 9 0 0
BITMAP
20
20
A0
60
20
30
28
20
20
ENDCHAR
STARTCHAR uni16BF
ENCODING 5823
SWIDTH 480 0
DWIDTH 6 0
BBX 3 9 2 0
BITMAP
80
80
80
80
C0
A0
80
80
80
ENDCHAR
STARTCHAR uni16C0
ENCODING 5824
SWIDTH 480 0
DWIDTH 6 0
BBX 5 9 0 0
BITMAP
20
20
A0
70
70
70
28
20
20
ENDCHAR
STARTCHAR uni16C1
ENCODING 5825
SWIDTH 480 0
DWIDTH 6 0
BBX 1 9 2 0
BITMAP
80
80
80
80
80
80
80
80
80
ENDCHAR
STARTCHAR uni16C2
ENCODING 5826
SWIDTH 480 0
DWIDTH 6 0
BBX 3 9 1 0
BITMAP
40
40
40
E0
E0
E0
40
40
40
ENDCHAR
STARTCHAR uni16C3
ENCODING 5827
SWIDTH 480 0
DWIDTH 6 0
BBX 5 6 0 0
BITMAP
20
40
90
48
10
20
ENDCHAR
STARTCHAR uni16C4
ENCODING 5828
SWIDTH 480 0
DWIDTH 6 0
BBX 5 9 0 0
BITMAP
20
20
20
70
A8
70
20
20
20
ENDCHAR
STARTCHAR uni16C5
ENCODING 5829
SWIDTH 480 0
DWIDTH 6 0
BBX 5 9 0 0
BITMAP
20
20
28
30
20
60
A0
20
20
ENDCHAR
STARTCHAR uni16C6
ENCODING 5830
SWIDTH 480 0
DWIDTH 6 0
BBX 3 9 0 0
BITMAP
20
20
20
20
20
60
A0
20
20
ENDCHAR
STARTCHAR uni16C7
ENCODING 5831
SWIDTH 480 0
DWIDTH 6 0
BBX 5 9 0 0
BITMAP
20
30
28
20
20
20
A0
60
20
ENDCHAR
STARTCHAR uni16C8
ENCODING 5832
SWIDTH 480 0
DWIDTH 6 0
BBX 5 9 0 0
BITMAP
88
D0
A0
80
80
80
A0
D0
88
ENDCHAR
STARTCHAR uni16C9
ENCODING 5833
SWIDTH 480 0
DWIDTH 6 0
BBX 5 9 0 0
BITMAP
A8
70
20
20
20
20
20
20
20
ENDCHAR
STARTCHAR uni16CA
ENCODING 5834
SWIDTH 480 0
DWIDTH 6 0
BBX 3 9 1 0
BITMAP
20
40
80
40
20
40
80
40
20
ENDCHAR
STARTCHAR uni16CB
ENCODING 5835
SWIDTH 480 0
DWIDTH 6 0
BBX 5 9 0 0
BITMAP
80
80
88
98
A8
C8
88
08
08
ENDCHAR
STARTCHAR uni16CC
ENCODING 5836
SWIDTH 480 0
DWIDTH 6 0
BBX 1 5 2 4
BITMAP
80
80
80
80
80
ENDCHAR
STARTCHAR uni16CD
ENCODING 5837
SWIDTH 480 0
DWIDTH 6 0
BBX 3 7 1 2
BITMAP
40
40
40
40
E0
E0
E0
ENDCHAR
STARTCHAR uni16CE
ENCODING 5838
SWIDTH 480 0
DWIDTH 6 0
BBX 5 6 0 3
BITMAP
20
20
20
A8
70
20
ENDCHAR
STARTCHAR uni16CF
ENCODING 5839
SWIDTH 480 0
DWIDTH 6 0
BBX 5 9 0 0
BITMAP
20
70
A8
20
20
20
20
20
20
ENDCHAR
STARTCHAR uni16D0
ENCODING 5840
SWIDTH 480 0
DWIDTH 6 0
BBX 3 9 1 0
BITMAP
20
60
A0
20
20
20
20
20
20
ENDCHAR
STARTCHAR uni16D1
ENCODING 5841
SWIDTH 480 0
DWIDTH 6 0
BBX 4 9 1 0
BITMAP
20
60
A0
20
20
70
70
20
20
ENDCHAR
STARTCHAR uni16D2
ENCODING 5842
SWIDTH 480 0
DWIDTH 6 0
BBX 4 9 0 0
BITMAP
C0
A0
90
A0
C0
A0
90
A0
C0
ENDCHAR
STARTCHAR uni16D3
ENCODING 5843
SWIDTH 480 0
DWIDTH 6 0
BBX 3 9 2 0
BITMAP
80
80
A0
C0
80
A0
C0
80
80
ENDCHAR
STARTCHAR uni16D4
ENCODING 5844
SWIDTH 480 0
DWIDTH 6 0
BBX 5 9 0 0
BITMAP
F0
88
A8
88
F0
88
A8
88
F0
ENDCHAR
STARTCHAR uni16D5
ENCODING 5845
SWIDTH 480 0
DWIDTH 6 0
BBX 5 9 0 0
BITMAP
88
90
A0
C0
80
C0
A0
90
88
ENDCHAR
STARTCHAR uni16D6
ENCODING 5846
SWIDTH 480 0
DWIDTH 6 0
BBX 5 9 0 0
BITMAP
88
D8
A8
88
88
88
88
88
88
ENDCHAR
STARTCHAR uni16D7
ENCODING 5847
SWIDTH 480 0
DWIDTH 6 0
BBX 5 9 0 0
BITMAP
88
D8
A8
D8
88
88
88
88
88
ENDCHAR
STARTCHAR uni16D8
ENCODING 5848
SWIDTH 480 0
DWIDTH 6 0
BBX 5 9 0 0
BITMAP
A8
A8
70
20
20
20
20
20
20
ENDCHAR
STARTCHAR uni16D9
ENCODING 5849
SWIDTH 480 0
DWIDTH 6 0
BBX 3 9 1 0
BITMAP
E0
E0
E0
40
40
40
40
40
40
ENDCHAR
STARTCHAR uni16DA
ENCODING 5850
SWIDTH 480 0
DWIDTH 6 0
BBX 3 9 2 0
BITMAP
80
C0
A0
80
80
80
80
80
80
ENDCHAR
STARTCHAR uni16DB
ENCODING 5851
SWIDTH 480 0
DWIDTH 6 0
BBX 4 9 1 0
BITMAP
40
60
50
40
E0
E0
40
40
40
ENDCHAR
STARTCHAR uni16DC
ENCODING 5852
SWIDTH 480 0
DWIDTH 6 0
BBX 5 5 0 2
BITMAP
20
50
88
50
20
ENDCHAR
STARTCHAR uni16DD
ENCODING 5853
SWIDTH 480 0
DWIDTH 6 0
BBX 5 9 0 0
BITMAP
88
50
20
50
88
50
20
50
88
ENDCHAR
STARTCHAR uni16DE
ENCODING 5854
SWIDTH 480 0
DWIDTH 6 0
BBX 5 9 0 0
BITMAP
88
D8
D8
A8
A8
A8
D8
D8
88
ENDCHAR
STARTCHAR uni16DF
ENCODING 5855
SWIDTH 480 0
DWIDTH 6 0
BBX 5 9 0 0
BITMAP
20
50
88
88
50
20
50
88
88
ENDCHAR
STARTCHAR uni16E0
ENCODING 5856
SWIDTH 480 0
DWIDTH 6 0
BBX 5 9 0 0
BITMAP
F8
70
20
20
20
20
20
20
20
ENDCHAR
STARTCHAR uni16E1
ENCODING 5857
SWIDTH 480 0
DWIDTH 6 0
BBX 5 9 0 0
BITMAP
20
20
A8
70
20
70
A8
20
20
ENDCHAR
STARTCHAR uni16E2
ENCODING 5858
SWIDTH 480 0
DWIDTH 6 0
BBX 5 9 0 0
BITMAP
28
30
20
20
20
20
20
60
A0
ENDCHAR
STARTCHAR uni16E3
ENCODING 5859
SWIDTH 480 0
DWIDTH 6 0
BBX 5 9 0 0
BITMAP
20
20
20
20
20
20
20
70
A8
ENDCHAR
STARTCHAR uni16E4
ENCODING 5860
SWIDTH 480 0
DWIDTH 6 0
BBX 5 9 0 0
BITMAP
A8
A8
70
A8
A8
A8
70
A8
A8
ENDCHAR
STARTCHAR uni16E5
ENCODING 5861
SWIDTH 480 0
DWIDTH 6 0
BBX 5 9 0 0
BITMAP
88
D8
A8
D8
88
D8
A8
D8
88
ENDCHAR
STARTCHAR uni16E6
ENCODING 5862
SWIDTH 480 0
DWIDTH 6 0
BBX 5 9 0 0
BITMAP
20
20
20
20
20
20
70
A8
A8
ENDCHAR
STARTCHAR uni16E7
ENCODING 5863
SWIDTH 480 0
DWIDTH 6 0
BBX 1 5 2 0
BITMAP
80
80
80
80
80
ENDCHAR
STARTCHAR uni16E8
ENCODING 5864
SWIDTH 480 0
DWIDTH 6 0
BBX 5 9 0 0
BITMAP
20
70
A8
20
20
20
A8
70
20
ENDCHAR
STARTCHAR uni16E9
ENCODING 5865
SWIDTH 480 0
DWIDTH 6 0
BBX 5 9 0 0
BITMAP
18
68
88
68
18
08
08
08
08
ENDCHAR
STARTCHAR uni16EA
ENCODING 5866
SWIDTH 480 0
DWIDTH 6 0
BBX 5 9 0 0
BITMAP
40
E0
40
50
70
50
10
38
10
ENDCHAR
STARTCHAR uni16EB
ENCODING 5867
SWIDTH 480 0
DWIDTH 6 0
BBX 1 1 2 4
BITMAP
80
ENDCHAR
STARTCHAR uni16EC
ENCODING 5868
SWIDTH 480 0
DWIDTH 6 0
BBX 1 5 2 2
BITMAP
80
00
00
00
80
ENDCHAR
STARTCHAR uni16ED
ENCODING 5869
SWIDTH 480 0
DWIDTH 6 0
BBX 5 5 0 2
BITMAP
20
20
F8
20
20
ENDCHAR
STARTCHAR uni16EE
ENCODING 5870
SWIDTH 480 0
DWIDTH 6 0
BBX 5 9 0 0
BITMAP
20
30
28
20
60
A0
20
20
20
ENDCHAR
STARTCHAR uni16EF
ENCODING 5871
SWIDTH 480 0
DWIDTH 6 0
BBX 5 9 0 0
BITMAP
A8
A8
70
20
20
20
70
A8
A8
ENDCHAR
STARTCHAR uni16F0
ENCODING 5872
SWIDTH 480 0
DWIDTH 6 0
BBX 5 9 0 0
BITMAP
20
20
70
A8
A8
A8
70
20
20
ENDCHAR
STARTCHAR uni1E02
ENCODING 7682
SWIDTH 480 0
DWIDTH 6 0
BBX 5 9 0 0
BITMAP
20
00
F0
48
48
70
48
48
F0
ENDCHAR
STARTCHAR uni1E03
ENCODING 7683
SWIDTH 480 0
DWIDTH 6 0
BBX 5 9 0 0
BITMAP
20
00
80
80
F0
88
88
88
F0
ENDCHAR
STARTCHAR uni1E04
ENCODING 7684
SWIDTH 480 0
DWIDTH 6 0
BBX 5 9 0 -2
BITMAP
F0
48
48
70
48
48
F0
00
20
ENDCHAR
STARTCHAR uni1E05
ENCODING 7685
SWIDTH 480 0
DWIDTH 6 0
BBX 5 9 0 -2
BITMAP
80
80
F0
88
88
88
F0
00
20
ENDCHAR
STARTCHAR uni1E06
ENCODING 7686
SWIDTH 480 0
DWIDTH 6 0
BBX 5 9 0 -2
BITMAP
F0
48
48
70
48
48
F0
00
F8
ENDCHAR
STARTCHAR uni1E07
ENCODING 7687
SWIDTH 480 0
DWIDTH 6 0
BBX 5 9 0 -2
BITMAP
80
80
F0
88
88
88
F0
00
F8
ENDCHAR
STARTCHAR uni1E0A
ENCODING 7690
SWIDTH 480 0
DWIDTH 6 0
BBX 5 9 0 0
BITMAP
20
00
F0
48
48
48
48
48
F0
ENDCHAR
STARTCHAR uni1E0B
ENCODING 7691
SWIDTH 480 0
DWIDTH 6 0
BBX 5 9 0 0
BITMAP
20
00
08
08
78
88
88
88
78
ENDCHAR
STARTCHAR uni1E0C
ENCODING 7692
SWIDTH 480 0
DWIDTH 6 0
BBX 5 9 0 -2
BITMAP
F0
48
48
48
48
48
F0
00
20
ENDCHAR
STARTCHAR uni1E0D
ENCODING 7693
SWIDTH 480 0
DWIDTH 6 0
BBX 5 9 0 -2
BITMAP
08
08
78
88
88
88
78
00
20
ENDCHAR
STARTCHAR uni1E0E
ENCODING 7694
SWIDTH 480 0
DWIDTH 6 0
BBX 5 9 0 -2
BITMAP
F0
48
48
48
48
48
F0
00
F8
ENDCHAR
STARTCHAR uni1E0F
ENCODING 7695
SWIDTH 480 0
DWIDTH 6 0
BBX 5 9 0 -2
BITMAP
08
08
78
88
88
88
78
00
F8
ENDCHAR
STARTCHAR uni1E10
ENCODING 7696
SWIDTH 480 0
DWIDTH 6 0
BBX 5 9 0 -2
BITMAP
F0
48
48
48
48
48
F0
20
40
ENDCHAR
STARTCHAR uni1E11
ENCODING 7697
SWIDTH 480 0
DWIDTH 6 0
BBX 5 9 0 -2
BITMAP
08
08
78
88
88
88
78
20
40
ENDCHAR
STARTCHAR uni1E12
ENCODING 7698
SWIDTH 480 0
DWIDTH 6 0
BBX 5 10 0 -2
BITMAP
F0
48
48
48
48
48
F0
00
20
50
ENDCHAR
STARTCHAR uni1E13
ENCODING 7699
SWIDTH 480 0
DWIDTH 6 0
BBX 5 10 0 -2
BITMAP
08
08
78
88
88
88
78
00
20
50
ENDCHAR
STARTCHAR uni1E1E
ENCODING 7710
SWIDTH 480 0
DWIDTH 6 0
BBX 5 9 0 0
BITMAP
20
00
F8
80
80
F0
80
80
80
ENDCHAR
STARTCHAR uni1E1F
ENCODING 7711
SWIDTH 480 0
DWIDTH 6 0
BBX 5 9 0 0
BITMAP
20
00
30
48
40
E0
40
40
40
ENDCHAR
STARTCHAR uni1E30
ENCODING 7728
SWIDTH 480 0
DWIDTH 6 0
BBX 5 10 0 0
BITMAP
10
20
00
88
90
A0
C0
A0
90
88
ENDCHAR
STARTCHAR uni1E31
ENCODING 7729
SWIDTH 480 0
DWIDTH 6 0
BBX 5 9 0 0
BITMAP
10
20
80
80
88
90
E0
90
88
ENDCHAR
STARTCHAR uni1E32
ENCODING 7730
SWIDTH 480 0
DWIDTH 6 0
BBX 5 9 0 -2
BITMAP
88
90
A0
C0
A0
90
88
00
20
ENDCHAR
STARTCHAR uni1E33
ENCODING 7731
SWIDTH 480 0
DWIDTH 6 0
BBX 5 9 0 -2
BITMAP
80
80
88
90
E0
90
88
00
20
ENDCHAR
STARTCHAR uni1E34
ENCODING 7732
SWIDTH 480 0
DWIDTH 6 0
BBX 5 9 0 -2
BITMAP
88
90
A0
C0
A0
90
88
00
F8
ENDCHAR
STARTCHAR uni1E35
ENCODING 7733
SWIDTH 480 0
DWIDTH 6 0
BBX 5 9 0 -2
BITMAP
80
80
88
90
E0
90
88
00
F8
ENDCHAR
STARTCHAR uni1E3E
ENCODING 7742
SWIDTH 480 0
DWIDTH 6 0
BBX 5 10 0 0
BITMAP
10
20
00
88
D8
A8
88
88
88
88
ENDCHAR
STARTCHAR uni1E3F
ENCODING 7743
SWIDTH 480 0
DWIDTH 6 0
BBX 5 8 0 0
BITMAP
10
20
00
D0
A8
A8
A8
A8
ENDCHAR
STARTCHAR uni1E40
ENCODING 7744
SWIDTH 480 0
DWIDTH 6 0
BBX 5 9 0 0
BITMAP
20
00
88
D8
A8
88
88
88
88
ENDCHAR
STARTCHAR uni1E41
ENCODING 7745
SWIDTH 480 0
DWIDTH 6 0
BBX 5 7 0 0
BITMAP
20
00
D0
A8
A8
A8
A8
ENDCHAR
STARTCHAR uni1E42
ENCODING 7746
SWIDTH 480 0
DWIDTH 6 0
BBX 5 9 0 -2
BITMAP
88
D8
A8
88
88
88
88
00
20
ENDCHAR
STARTCHAR uni1E43
ENCODING 7747
SWIDTH 480 0
DWIDTH 6 0
BBX 5 7 0 -2
BITMAP
D0
A8
A8
A8
A8
00
20
ENDCHAR
STARTCHAR uni1E54
ENCODING 7764
SWIDTH 480 0
DWIDTH 6 0
BBX 5 10 0 0
BITMAP
10
20
00
F0
88
88
F0
80
80
80
ENDCHAR
STARTCHAR uni1E55
ENCODING 7765
SWIDTH 480 0
DWIDTH 6 0
BBX 5 10 0 -2
BITMAP
10
20
00
F0
88
88
88
F0
80
80
ENDCHAR
STARTCHAR uni1E56
ENCODING 7766
SWIDTH 480 0
DWIDTH 6 0
BBX 5 9 0 0
BITMAP
20
00
F0
88
88
F0
80
80
80
ENDCHAR
STARTCHAR uni1E57
ENCODING 7767
SWIDTH 480 0
DWIDTH 6 0
BBX 5 9 0 -2
BITMAP
20
00
F0
88
88
88
F0
80
80
ENDCHAR
STARTCHAR uni1E60
ENCODING 7776
SWIDTH 480 0
DWIDTH 6 0
BBX 5 9 0 0
BITMAP
20
00
70
88
80
70
08
88
70
ENDCHAR
STARTCHAR uni1E61
ENCODING 7777
SWIDTH 480 0
DWIDTH 6 0
BBX 5 7 0 0
BITMAP
20
00
78
80
70
08
F0
ENDCHAR
STARTCHAR uni1E62
ENCODING 7778
SWIDTH 480 0
DWIDTH 6 0
BBX 5 9 0 -2
BITMAP
70
88
80
70
08
88
70
00
20
ENDCHAR
STARTCHAR uni1E63
ENCODING 7779
SWIDTH 480 0
DWIDTH 6 0
BBX 5 7 0 -2
BITMAP
78
80
70
08
F0
00
20
ENDCHAR
STARTCHAR uni1E64
ENCODING 7780
SWIDTH 480 0
DWIDTH 6 0
BBX 5 10 0 0
BITMAP
48
10
00
70
88
80
70
08
88
70
ENDCHAR
STARTCHAR uni1E65
ENCODING 7781
SWIDTH 480 0
DWIDTH 6 0
BBX 5 8 0 0
BITMAP
48
10
00
78
80
70
08
F0
ENDCHAR
STARTCHAR uni1E66
ENCODING 7782
SWIDTH 480 0
DWIDTH 6 0
BBX 5 10 0 0
BITMAP
20
00
50
20
78
80
70
08
88
70
ENDCHAR
STARTCHAR uni1E67
ENCODING 7783
SWIDTH 480 0
DWIDTH 6 0
BBX 5 10 0 0
BITMAP
20
00
50
20
00
78
80
70
08
F0
ENDCHAR
STARTCHAR uni1E68
ENCODING 7784
SWIDTH 480 0
DWIDTH 6 0
BBX 5 11 0 -2
BITMAP
20
00
70
88
80
70
08
88
70
00
20
ENDCHAR
STARTCHAR uni1E69
ENCODING 7785
SWIDTH 480 0
DWIDTH 6 0
BBX 5 9 0 -2
BITMAP
20
00
78
80
70
08
F0
00
20
ENDCHAR
STARTCHAR uni1E6A
ENCODING 7786
SWIDTH 480 0
DWIDTH 6 0
BBX 5 9 0 0
BITMAP
20
00
F8
20
20
20
20
20
20
ENDCHAR
STARTCHAR uni1E6B
ENCODING 7787
SWIDTH 480 0
DWIDTH 6 0
BBX 5 9 0 0
BITMAP
20
00
20
20
F8
20
20
20
18
ENDCHAR
STARTCHAR uni1E6C
ENCODING 7788
SWIDTH 480 0
DWIDTH 6 0
BBX 5 9 0 -2
BITMAP
F8
20
20
20
20
20
20
00
20
ENDCHAR
STARTCHAR uni1E6D
ENCODING 7789
SWIDTH 480 0
DWIDTH 6 0
BBX 5 9 0 -2
BITMAP
20
20
F8
20
20
20
18
00
20
ENDCHAR
STARTCHAR uni1E6E
ENCODING 7790
SWIDTH 480 0
DWIDTH 6 0
BBX 5 9 0 -2
BITMAP
F8
20
20
20
20
20
20
00
F8
ENDCHAR
STARTCHAR uni1E6F
ENCODING 7791
SWIDTH 480 0
DWIDTH 6 0
BBX 5 9 0 -2
BITMAP
20
20
F8
20
20
20
18
00
F8
ENDCHAR
STARTCHAR uni1E70
ENCODING 7792
SWIDTH 480 0
DWIDTH 6 0
BBX 5 9 0 -2
BITMAP
F8
20
20
20
20
20
00
20
50
ENDCHAR
STARTCHAR uni1E71
ENCODING 7793
SWIDTH 480 0
DWIDTH 6 0
BBX 5 9 0 -2
BITMAP
20
20
F8
20
20
18
00
20
50
ENDCHAR
STARTCHAR Wgrave
ENCODING 7808
SWIDTH 480 0
DWIDTH 6 0
BBX 5 10 0 0
BITMAP
40
20
00
88
88
88
88
A8
A8
50
ENDCHAR
STARTCHAR wgrave
ENCODING 7809
SWIDTH 480 0
DWIDTH 6 0
BBX 5 8 0 0
BITMAP
40
20
00
88
88
A8
A8
50
ENDCHAR
STARTCHAR Wacute
ENCODING 7810
SWIDTH 480 0
DWIDTH 6 0
BBX 5 10 0 0
BITMAP
10
20
00
88
88
88
88
A8
A8
50
ENDCHAR
STARTCHAR wacute
ENCODING 7811
SWIDTH 480 0
DWIDTH 6 0
BBX 5 8 0 0
BITMAP
10
20
00
88
88
A8
A8
50
ENDCHAR
STARTCHAR Wdieresis
ENCODING 7812
SWIDTH 480 0
DWIDTH 6 0
BBX 5 9 0 0
BITMAP
50
00
88
88
88
88
A8
A8
50
ENDCHAR
STARTCHAR wdieresis
ENCODING 7813
SWIDTH 480 0
DWIDTH 6 0
BBX 5 7 0 0
BITMAP
50
00
88
88
A8
A8
50
ENDCHAR
STARTCHAR uni1E86
ENCODING 7814
SWIDTH 480 0
DWIDTH 6 0
BBX 5 9 0 0
BITMAP
20
00
88
88
88
88
A8
A8
50
ENDCHAR
STARTCHAR uni1E87
ENCODING 7815
SWIDTH 480 0
DWIDTH 6 0
BBX 5 7 0 0
BITMAP
20
00
88
88
A8
A8
50
ENDCHAR
STARTCHAR uni1E88
ENCODING 7816
SWIDTH 480 0
DWIDTH 6 0
BBX 5 9 0 -2
BITMAP
88
88
88
88
A8
A8
50
00
20
ENDCHAR
STARTCHAR uni1E89
ENCODING 7817
SWIDTH 480 0
DWIDTH 6 0
BBX 5 7 0 -2
BITMAP
88
88
A8
A8
50
00
20
ENDCHAR
STARTCHAR uni1E8A
ENCODING 7818
SWIDTH 480 0
DWIDTH 6 0
BBX 5 9 0 0
BITMAP
20
00
88
88
50
20
50
88
88
ENDCHAR
STARTCHAR uni1E8B
ENCODING 7819
SWIDTH 480 0
DWIDTH 6 0
BBX 5 7 0 0
BITMAP
20
00
88
50
20
50
88
ENDCHAR
STARTCHAR uni1E8C
ENCODING 7820
SWIDTH 480 0
DWIDTH 6 0
BBX 5 9 0 0
BITMAP
50
00
88
88
50
20
50
88
88
ENDCHAR
STARTCHAR uni1E8D
ENCODING 7821
SWIDTH 480 0
DWIDTH 6 0
BBX 5 7 0 0
BITMAP
50
00
88
50
20
50
88
ENDCHAR
STARTCHAR uni1E8E
ENCODING 7822
SWIDTH 480 0
DWIDTH 6 0
BBX 5 9 0 0
BITMAP
20
00
88
88
50
20
20
20
20
ENDCHAR
STARTCHAR uni1E8F
ENCODING 7823
SWIDTH 480 0
DWIDTH 6 0
BBX 5 9 0 -2
BITMAP
20
00
88
88
88
50
20
40
80
ENDCHAR
STARTCHAR Ygrave
ENCODING 7922
SWIDTH 480 0
DWIDTH 6 0
BBX 5 10 0 0
BITMAP
40
20
00
88
88
50
20
20
20
20
ENDCHAR
STARTCHAR ygrave
ENCODING 7923
SWIDTH 480 0
DWIDTH 6 0
BBX 5 10 0 -2
BITMAP
40
20
00
88
88
88
50
20
40
80
ENDCHAR
STARTCHAR uni1EF4
ENCODING 7924
SWIDTH 480 0
DWIDTH 6 0
BBX 5 9 0 -2
BITMAP
88
88
50
20
20
20
20
00
20
ENDCHAR
STARTCHAR uni1EF5
ENCODING 7925
SWIDTH 480 0
DWIDTH 6 0
BBX 5 7 0 -2
BITMAP
88
88
88
50
20
40
88
ENDCHAR
STARTCHAR uni1EF6
ENCODING 7926
SWIDTH 480 0
DWIDTH 6 0
BBX 5 10 0 0
BITMAP
20
50
10
20
88
88
50
20
20
20
ENDCHAR
STARTCHAR uni1EF7
ENCODING 7927
SWIDTH 480 0
DWIDTH 6 0
BBX 5 12 0 -2
BITMAP
20
50
10
20
20
88
88
88
50
20
40
80
ENDCHAR
STARTCHAR uni1EF8
ENCODING 7928
SWIDTH 480 0
DWIDTH 6 0
BBX 5 10 0 0
BITMAP
68
B0
00
88
88
50
20
20
20
20
ENDCHAR
STARTCHAR uni1EF9
ENCODING 7929
SWIDTH 480 0
DWIDTH 6 0
BBX 5 10 0 -2
BITMAP
68
B0
00
88
88
88
50
20
40
80
ENDCHAR
STARTCHAR uni1F00
ENCODING 7936
SWIDTH 480 0
DWIDTH 6 0
BBX 5 8 0 0
BITMAP
60
20
00
68
90
90
90
68
ENDCHAR
STARTCHAR uni1F01
ENCODING 7937
SWIDTH 480 0
DWIDTH 6 0
BBX 5 8 0 0
BITMAP
30
20
00
68
90
90
90
68
ENDCHAR
STARTCHAR uni1F02
ENCODING 7938
SWIDTH 480 0
DWIDTH 6 0
BBX 5 8 0 0
BITMAP
D0
48
00
68
90
90
90
68
ENDCHAR
STARTCHAR uni1F03
ENCODING 7939
SWIDTH 480 0
DWIDTH 6 0
BBX 5 8 0 0
BITMAP
D0
88
00
68
90
90
90
68
ENDCHAR
STARTCHAR uni1F04
ENCODING 7940
SWIDTH 480 0
DWIDTH 6 0
BBX 5 8 0 0
BITMAP
C8
50
00
68
90
90
90
68
ENDCHAR
STARTCHAR uni1F05
ENCODING 7941
SWIDTH 480 0
DWIDTH 6 0
BBX 5 8 0 0
BITMAP
C8
90
00
68
90
90
90
68
ENDCHAR
STARTCHAR uni1F06
ENCODING 7942
SWIDTH 480 0
DWIDTH 6 0
BBX 5 10 0 0
BITMAP
68
B0
00
30
10
00
68
90
90
68
ENDCHAR
STARTCHAR uni1F07
ENCODING 7943
SWIDTH 480 0
DWIDTH 6 0
BBX 5 10 0 0
BITMAP
68
B0
00
30
20
00
68
90
90
68
ENDCHAR
STARTCHAR uni1F08
ENCODING 7944
SWIDTH 480 0
DWIDTH 6 0
BBX 5 10 0 0
BITMAP
C0
40
00
70
88
88
F8
88
88
88
ENDCHAR
STARTCHAR uni1F09
ENCODING 7945
SWIDTH 480 0
DWIDTH 6 0
BBX 5 10 0 0
BITMAP
C0
80
00
70
88
88
F8
88
88
88
ENDCHAR
STARTCHAR uni1F0A
ENCODING 7946
SWIDTH 480 0
DWIDTH 6 0
BBX 5 10 0 0
BITMAP
D0
48
00
70
88
88
F8
88
88
88
ENDCHAR
STARTCHAR uni1F0B
ENCODING 7947
SWIDTH 480 0
DWIDTH 6 0
BBX 5 10 0 0
BITMAP
D0
88
00
70
88
88
F8
88
88
88
ENDCHAR
STARTCHAR uni1F0C
ENCODING 7948
SWIDTH 480 0
DWIDTH 6 0
BBX 5 10 0 0
BITMAP
C8
50
00
70
88
88
F8
88
88
88
ENDCHAR
STARTCHAR uni1F0D
ENCODING 7949
SWIDTH 480 0
DWIDTH 6 0
BBX 5 10 0 0
BITMAP
C8
90
00
70
88
88
F8
88
88
88
ENDCHAR
STARTCHAR uni1F0E
ENCODING 7950
SWIDTH 480 0
DWIDTH 6 0
BBX 5 10 0 0
BITMAP
68
B0
00
C0
80
30
48
78
48
48
ENDCHAR
STARTCHAR uni1F0F
ENCODING 7951
SWIDTH 480 0
DWIDTH 6 0
BBX 5 10 0 0
BITMAP
68
B0
00
C0
40
30
48
78
48
48
ENDCHAR
STARTCHAR uni1F10
ENCODING 7952
SWIDTH 480 0
DWIDTH 6 0
BBX 5 8 0 0
BITMAP
60
20
00
70
88
60
88
70
ENDCHAR
STARTCHAR uni1F11
ENCODING 7953
SWIDTH 480 0
DWIDTH 6 0
BBX 5 8 0 0
BITMAP
30
20
00
70
88
60
88
70
ENDCHAR
STARTCHAR uni1F12
ENCODING 7954
SWIDTH 480 0
DWIDTH 6 0
BBX 5 8 0 0
BITMAP
D0
48
00
70
88
60
88
70
ENDCHAR
STARTCHAR uni1F13
ENCODING 7955
SWIDTH 480 0
DWIDTH 6 0
BBX 5 8 0 0
BITMAP
D0
88
00
70
88
60
88
70
ENDCHAR
STARTCHAR uni1F14
ENCODING 7956
SWIDTH 480 0
DWIDTH 6 0
BBX 5 8 0 0
BITMAP
C8
50
00
70
88
60
88
70
ENDCHAR
STARTCHAR uni1F15
ENCODING 7957
SWIDTH 480 0
DWIDTH 6 0
BBX 5 8 0 0
BITMAP
C8
90
00
70
88
60
88
70
ENDCHAR
STARTCHAR uni1F18
ENCODING 7960
SWIDTH 480 0
DWIDTH 6 0
BBX 5 10 0 0
BITMAP
C0
40
00
F8
80
80
F0
80
80
F8
ENDCHAR
STARTCHAR uni1F19
ENCODING 7961
SWIDTH 480 0
DWIDTH 6 0
BBX 5 10 0 0
BITMAP
C0
80
00
F8
80
80
F0
80
80
F8
ENDCHAR
STARTCHAR uni1F1A
ENCODING 7962
SWIDTH 480 0
DWIDTH 6 0
BBX 5 10 0 0
BITMAP
D0
48
00
F8
80
80
F0
80
80
F8
ENDCHAR
STARTCHAR uni1F1B
ENCODING 7963
SWIDTH 480 0
DWIDTH 6 0
BBX 5 10 0 0
BITMAP
D0
88
00
F8
80
80
F0
80
80
F8
ENDCHAR
STARTCHAR uni1F1C
ENCODING 7964
SWIDTH 480 0
DWIDTH 6 0
BBX 5 10 0 0
BITMAP
C8
50
00
F8
80
80
F0
80
80
F8
ENDCHAR
STARTCHAR uni1F1D
ENCODING 7965
SWIDTH 480 0
DWIDTH 6 0
BBX 5 10 0 0
BITMAP
C8
90
00
F8
80
80
F0
80
80
F8
ENDCHAR
STARTCHAR uni1F20
ENCODING 7968
SWIDTH 480 0
DWIDTH 6 0
BBX 5 10 0 -2
BITMAP
60
20
00
B0
C8
88
88
88
08
08
ENDCHAR
STARTCHAR uni1F21
ENCODING 7969
SWIDTH 480 0
DWIDTH 6 0
BBX 5 10 0 -2
BITMAP
30
20
00
B0
C8
88
88
88
08
08
ENDCHAR
STARTCHAR uni1F22
ENCODING 7970
SWIDTH 480 0
DWIDTH 6 0
BBX 5 10 0 -2
BITMAP
D0
48
00
B0
C8
88
88
88
08
08
ENDCHAR
STARTCHAR uni1F23
ENCODING 7971
SWIDTH 480 0
DWIDTH 6 0
BBX 5 10 0 -2
BITMAP
D0
88
00
B0
C8
88
88
88
08
08
ENDCHAR
STARTCHAR uni1F24
ENCODING 7972
SWIDTH 480 0
DWIDTH 6 0
BBX 5 10 0 -2
BITMAP
C8
50
00
B0
C8
88
88
88
08
08
ENDCHAR
STARTCHAR uni1F25
ENCODING 7973
SWIDTH 480 0
DWIDTH 6 0
BBX 5 10 0 -2
BITMAP
C8
90
00
B0
C8
88
88
88
08
08
ENDCHAR
STARTCHAR uni1F26
ENCODING 7974
SWIDTH 480 0
DWIDTH 6 0
BBX 5 12 0 -2
BITMAP
68
B0
00
30
10
00
B0
C8
88
88
08
08
ENDCHAR
STARTCHAR uni1F27
ENCODING 7975
SWIDTH 480 0
DWIDTH 6 0
BBX 5 12 0 -2
BITMAP
68
B0
00
30
20
00
B0
C8
88
88
08
08
ENDCHAR
STARTCHAR uni1F28
ENCODING 7976
SWIDTH 480 0
DWIDTH 6 0
BBX 5 10 0 0
BITMAP
C0
40
00
88
88
88
F8
88
88
88
ENDCHAR
STARTCHAR uni1F29
ENCODING 7977
SWIDTH 480 0
DWIDTH 6 0
BBX 5 10 0 0
BITMAP
C0
80
00
88
88
88
F8
88
88
88
ENDCHAR
STARTCHAR uni1F2A
ENCODING 7978
SWIDTH 480 0
DWIDTH 6 0
BBX 5 10 0 0
BITMAP
D0
48
00
88
88
88
F8
88
88
88
ENDCHAR
STARTCHAR uni1F2B
ENCODING 7979
SWIDTH 480 0
DWIDTH 6 0
BBX 5 10 0 0
BITMAP
D0
88
00
88
88
88
F8
88
88
88
ENDCHAR
STARTCHAR uni1F2C
ENCODING 7980
SWIDTH 480 0
DWIDTH 6 0
BBX 5 10 0 0
BITMAP
C8
50
00
88
88
88
F8
88
88
88
ENDCHAR
STARTCHAR uni1F2D
ENCODING 7981
SWIDTH 480 0
DWIDTH 6 0
BBX 5 10 0 0
BITMAP
C8
90
00
88
88
88
F8
88
88
88
ENDCHAR
STARTCHAR uni1F2E
ENCODING 7982
SWIDTH 480 0
DWIDTH 6 0
BBX 5 10 0 0
BITMAP
68
B0
00
C0
80
28
28
38
28
28
ENDCHAR
STARTCHAR uni1F2F
ENCODING 7983
SWIDTH 480 0
DWIDTH 6 0
BBX 5 10 0 0
BITMAP
68
B0
00
C0
40
28
28
38
28
28
ENDCHAR
STARTCHAR uni1F30
ENCODING 7984
SWIDTH 480 0
DWIDTH 6 0
BBX 3 8 1 0
BITMAP
C0
40
00
80
80
80
A0
40
ENDCHAR
STARTCHAR uni1F31
ENCODING 7985
SWIDTH 480 0
DWIDTH 6 0
BBX 3 8 1 0
BITMAP
C0
80
00
80
80
80
A0
40
ENDCHAR
STARTCHAR uni1F32
ENCODING 7986
SWIDTH 480 0
DWIDTH 6 0
BBX 5 8 0 0
BITMAP
D0
48
00
40
40
40
50
20
ENDCHAR
STARTCHAR uni1F33
ENCODING 7987
SWIDTH 480 0
DWIDTH 6 0
BBX 5 8 0 0
BITMAP
D0
88
00
40
40
40
50
20
ENDCHAR
STARTCHAR uni1F34
ENCODING 7988
SWIDTH 480 0
DWIDTH 6 0
BBX 5 8 0 0
BITMAP
C8
50
00
40
40
40
50
20
ENDCHAR
STARTCHAR uni1F35
ENCODING 7989
SWIDTH 480 0
DWIDTH 6 0
BBX 5 8 0 0
BITMAP
C8
90
00
40
40
40
50
20
ENDCHAR
STARTCHAR uni1F36
ENCODING 7990
SWIDTH 480 0
DWIDTH 6 0
BBX 5 10 0 0
BITMAP
68
B0
00
30
10
40
40
40
50
20
ENDCHAR
STARTCHAR uni1F37
ENCODING 7991
SWIDTH 480 0
DWIDTH 6 0
BBX 5 10 0 0
BITMAP
68
B0
00
30
20
40
40
40
50
20
ENDCHAR
STARTCHAR uni1F38
ENCODING 7992
SWIDTH 480 0
DWIDTH 6 0
BBX 4 10 0 0
BITMAP
C0
40
00
70
20
20
20
20
20
70
ENDCHAR
STARTCHAR uni1F39
ENCODING 7993
SWIDTH 480 0
DWIDTH 6 0
BBX 4 10 0 0
BITMAP
C0
80
00
70
20
20
20
20
20
70
ENDCHAR
STARTCHAR uni1F3A
ENCODING 7994
SWIDTH 480 0
DWIDTH 6 0
BBX 5 10 0 0
BITMAP
D0
48
00
70
20
20
20
20
20
70
ENDCHAR
STARTCHAR uni1F3B
ENCODING 7995
SWIDTH 480 0
DWIDTH 6 0
BBX 5 10 0 0
BITMAP
D0
88
00
70
20
20
20
20
20
70
ENDCHAR
STARTCHAR uni1F3C
ENCODING 7996
SWIDTH 480 0
DWIDTH 6 0
BBX 5 10 0 0
BITMAP
C8
50
00
70
20
20
20
20
20
70
ENDCHAR
STARTCHAR uni1F3D
ENCODING 7997
SWIDTH 480 0
DWIDTH 6 0
BBX 5 10 0 0
BITMAP
C8
90
00
70
20
20
20
20
20
70
ENDCHAR
STARTCHAR uni1F3E
ENCODING 7998
SWIDTH 480 0
DWIDTH 6 0
BBX 6 10 0 0
BITMAP
68
B0
00
C0
9C
08
08
08
08
1C
ENDCHAR
STARTCHAR uni1F3F
ENCODING 7999
SWIDTH 480 0
DWIDTH 6 0
BBX 6 10 0 0
BITMAP
68
B0
00
C0
5C
08
08
08
08
1C
ENDCHAR
STARTCHAR uni1F40
ENCODING 8000
SWIDTH 480 0
DWIDTH 6 0
BBX 5 8 0 0
BITMAP
60
20
00
70
88
88
88
70
ENDCHAR
STARTCHAR uni1F41
ENCODING 8001
SWIDTH 480 0
DWIDTH 6 0
BBX 5 8 0 0
BITMAP
30
20
00
70
88
88
88
70
ENDCHAR
STARTCHAR uni1F42
ENCODING 8002
SWIDTH 480 0
DWIDTH 6 0
BBX 5 8 0 0
BITMAP
D0
48
00
70
88
88
88
70
ENDCHAR
STARTCHAR uni1F43
ENCODING 8003
SWIDTH 480 0
DWIDTH 6 0
BBX 5 8 0 0
BITMAP
D0
88
00
70
88
88
88
70
ENDCHAR
STARTCHAR uni1F44
ENCODING 8004
SWIDTH 480 0
DWIDTH 6 0
BBX 5 8 0 0
BITMAP
C8
50
00
70
88
88
88
70
ENDCHAR
STARTCHAR uni1F45
ENCODING 8005
SWIDTH 480 0
DWIDTH 6 0
BBX 5 8 0 0
BITMAP
C8
90
00
70
88
88
88
70
ENDCHAR
STARTCHAR uni1F48
ENCODING 8008
SWIDTH 480 0
DWIDTH 6 0
BBX 5 10 0 0
BITMAP
C0
40
00
70
88
88
88
88
88
70
ENDCHAR
STARTCHAR uni1F49
ENCODING 8009
SWIDTH 480 0
DWIDTH 6 0
BBX 5 10 0 0
BITMAP
C0
80
00
70
88
88
88
88
88
70
ENDCHAR
STARTCHAR uni1F4A
ENCODING 8010
SWIDTH 480 0
DWIDTH 6 0
BBX 5 10 0 0
BITMAP
D0
48
00
70
88
88
88
88
88
70
ENDCHAR
STARTCHAR uni1F4B
ENCODING 8011
SWIDTH 480 0
DWIDTH 6 0
BBX 5 10 0 0
BITMAP
D0
88
00
70
88
88
88
88
88
70
ENDCHAR
STARTCHAR uni1F4C
ENCODING 8012
SWIDTH 480 0
DWIDTH 6 0
BBX 5 10 0 0
BITMAP
C8
50
00
70
88
88
88
88
88
70
ENDCHAR
STARTCHAR uni1F4D
ENCODING 8013
SWIDTH 480 0
DWIDTH 6 0
BBX 5 10 0 0
BITMAP
C8
90
00
70
88
88
88
88
88
70
ENDCHAR
STARTCHAR uni1F50
ENCODING 8016
SWIDTH 480 0
DWIDTH 6 0
BBX 5 8 0 0
BITMAP
60
20
00
90
88
88
88
70
ENDCHAR
STARTCHAR uni1F51
ENCODING 8017
SWIDTH 480 0
DWIDTH 6 0
BBX 5 8 0 0
BITMAP
30
20
00
90
88
88
88
70
ENDCHAR
STARTCHAR uni1F52
ENCODING 8018
SWIDTH 480 0
DWIDTH 6 0
BBX 5 8 0 0
BITMAP
D0
48
00
90
88
88
88
70
ENDCHAR
STARTCHAR uni1F53
ENCODING 8019
SWIDTH 480 0
DWIDTH 6 0
BBX 5 8 0 0
BITMAP
D0
88
00
90
88
88
88
70
ENDCHAR
STARTCHAR uni1F54
ENCODING 8020
SWIDTH 480 0
DWIDTH 6 0
BBX 5 8 0 0
BITMAP
C8
50
00
90
88
88
88
70
ENDCHAR
STARTCHAR uni1F55
ENCODING 8021
SWIDTH 480 0
DWIDTH 6 0
BBX 5 8 0 0
BITMAP
C8
90
00
90
88
88
88
70
ENDCHAR
STARTCHAR uni1F56
ENCODING 8022
SWIDTH 480 0
DWIDTH 6 0
BBX 5 10 0 0
BITMAP
68
B0
00
30
10
00
90
88
88
70
ENDCHAR
STARTCHAR uni1F57
ENCODING 8023
SWIDTH 480 0
DWIDTH 6 0
BBX 5 10 0 0
BITMAP
68
B0
00
30
20
00
90
88
88
70
ENDCHAR
STARTCHAR uni1F59
ENCODING 8025
SWIDTH 480 0
DWIDTH 6 0
BBX 5 10 0 0
BITMAP
C0
80
00
88
88
50
20
20
20
20
ENDCHAR
STARTCHAR uni1F5B
ENCODING 8027
SWIDTH 480 0
DWIDTH 6 0
BBX 5 10 0 0
BITMAP
D0
88
00
88
88
50
20
20
20
20
ENDCHAR
STARTCHAR uni1F5D
ENCODING 8029
SWIDTH 480 0
DWIDTH 6 0
BBX 5 10 0 0
BITMAP
C8
90
00
88
88
50
20
20
20
20
ENDCHAR
STARTCHAR uni1F5F
ENCODING 8031
SWIDTH 480 0
DWIDTH 6 0
BBX 6 10 0 0
BITMAP
68
B0
00
C0
54
14
14
08
08
08
ENDCHAR
STARTCHAR uni1F60
ENCODING 8032
SWIDTH 480 0
DWIDTH 6 0
BBX 5 8 0 0
BITMAP
60
20
00
50
88
A8
A8
50
ENDCHAR
STARTCHAR uni1F61
ENCODING 8033
SWIDTH 480 0
DWIDTH 6 0
BBX 5 8 0 0
BITMAP
30
20
00
50
88
A8
A8
50
ENDCHAR
STARTCHAR uni1F62
ENCODING 8034
SWIDTH 480 0
DWIDTH 6 0
BBX 5 8 0 0
BITMAP
D0
48
00
50
88
A8
A8
50
ENDCHAR
STARTCHAR uni1F63
ENCODING 8035
SWIDTH 480 0
DWIDTH 6 0
BBX 5 8 0 0
BITMAP
D0
88
00
50
88
A8
A8
50
ENDCHAR
STARTCHAR uni1F64
ENCODING 8036
SWIDTH 480 0
DWIDTH 6 0
BBX 5 8 0 0
BITMAP
C8
50
00
50
88
A8
A8
50
ENDCHAR
STARTCHAR uni1F65
ENCODING 8037
SWIDTH 480 0
DWIDTH 6 0
BBX 5 8 0 0
BITMAP
C8
90
00
50
88
A8
A8
50
ENDCHAR
STARTCHAR uni1F66
ENCODING 8038
SWIDTH 480 0
DWIDTH 6 0
BBX 5 10 0 0
BITMAP
68
B0
00
30
10
00
50
88
A8
50
ENDCHAR
STARTCHAR uni1F67
ENCODING 8039
SWIDTH 480 0
DWIDTH 6 0
BBX 5 10 0 0
BITMAP
68
B0
00
30
20
00
50
88
A8
50
ENDCHAR
STARTCHAR uni1F68
ENCODING 8040
SWIDTH 480 0
DWIDTH 6 0
BBX 5 10 0 0
BITMAP
C0
40
00
70
88
88
88
88
50
D8
ENDCHAR
STARTCHAR uni1F69
ENCODING 8041
SWIDTH 480 0
DWIDTH 6 0
BBX 5 10 0 0
BITMAP
C0
80
00
70
88
88
88
88
50
D8
ENDCHAR
STARTCHAR uni1F6A
ENCODING 8042
SWIDTH 480 0
DWIDTH 6 0
BBX 5 10 0 0
BITMAP
D0
48
00
70
88
88
88
88
50
D8
ENDCHAR
STARTCHAR uni1F6B
ENCODING 8043
SWIDTH 480 0
DWIDTH 6 0
BBX 5 10 0 0
BITMAP
D0
88
00
70
88
88
88
88
50
D8
ENDCHAR
STARTCHAR uni1F6C
ENCODING 8044
SWIDTH 480 0
DWIDTH 6 0
BBX 5 10 0 0
BITMAP
C8
50
00
70
88
88
88
88
50
D8
ENDCHAR
STARTCHAR uni1F6D
ENCODING 8045
SWIDTH 480 0
DWIDTH 6 0
BBX 5 10 0 0
BITMAP
C8
90
00
70
88
88
88
88
50
D8
ENDCHAR
STARTCHAR uni1F6E
ENCODING 8046
SWIDTH 480 0
DWIDTH 6 0
BBX 6 11 0 -1
BITMAP
68
B0
00
C0
80
38
44
44
44
28
6C
ENDCHAR
STARTCHAR uni1F6F
ENCODING 8047
SWIDTH 480 0
DWIDTH 6 0
BBX 6 11 0 -1
BITMAP
68
B0
00
C0
40
38
44
44
44
28
6C
ENDCHAR
STARTCHAR uni1F70
ENCODING 8048
SWIDTH 480 0
DWIDTH 6 0
BBX 5 8 0 0
BITMAP
20
10
00
68
90
90
90
68
ENDCHAR
STARTCHAR uni1F71
ENCODING 8049
SWIDTH 480 0
DWIDTH 6 0
BBX 5 8 0 0
BITMAP
10
20
00
68
90
90
90
68
ENDCHAR
STARTCHAR uni1F72
ENCODING 8050
SWIDTH 480 0
DWIDTH 6 0
BBX 5 8 0 0
BITMAP
20
10
00
70
88
60
88
70
ENDCHAR
STARTCHAR uni1F73
ENCODING 8051
SWIDTH 480 0
DWIDTH 6 0
BBX 5 8 0 0
BITMAP
10
20
00
70
88
60
88
70
ENDCHAR
STARTCHAR uni1F74
ENCODING 8052
SWIDTH 480 0
DWIDTH 6 0
BBX 5 10 0 -2
BITMAP
20
10
00
B0
C8
88
88
88
08
08
ENDCHAR
STARTCHAR uni1F75
ENCODING 8053
SWIDTH 480 0
DWIDTH 6 0
BBX 5 10 0 -2
BITMAP
10
20
00
B0
C8
88
88
88
08
08
ENDCHAR
STARTCHAR uni1F76
ENCODING 8054
SWIDTH 480 0
DWIDTH 6 0
BBX 4 8 1 0
BITMAP
80
40
00
40
40
40
50
20
ENDCHAR
STARTCHAR uni1F77
ENCODING 8055
SWIDTH 480 0
DWIDTH 6 0
BBX 3 8 2 0
BITMAP
40
80
00
80
80
80
A0
40
ENDCHAR
STARTCHAR uni1F78
ENCODING 8056
SWIDTH 480 0
DWIDTH 6 0
BBX 5 8 0 0
BITMAP
20
10
00
70
88
88
88
70
ENDCHAR
STARTCHAR uni1F79
ENCODING 8057
SWIDTH 480 0
DWIDTH 6 0
BBX 5 8 0 0
BITMAP
10
20
00
70
88
88
88
70
ENDCHAR
STARTCHAR uni1F7A
ENCODING 8058
SWIDTH 480 0
DWIDTH 6 0
BBX 5 8 0 0
BITMAP
20
10
00
90
88
88
88
70
ENDCHAR
STARTCHAR uni1F7B
ENCODING 8059
SWIDTH 480 0
DWIDTH 6 0
BBX 5 8 0 0
BITMAP
10
20
00
90
88
88
88
70
ENDCHAR
STARTCHAR uni1F7C
ENCODING 8060
SWIDTH 480 0
DWIDTH 6 0
BBX 5 8 0 0
BITMAP
20
10
00
50
88
A8
A8
50
ENDCHAR
STARTCHAR uni1F7D
ENCODING 8061
SWIDTH 480 0
DWIDTH 6 0
BBX 5 8 0 0
BITMAP
10
20
00
50
88
A8
A8
50
ENDCHAR
STARTCHAR uni1F80
ENCODING 8064
SWIDTH 480 0
DWIDTH 6 0
BBX 5 11 0 -2
BITMAP
60
20
00
68
90
90
90
68
00
20
10
ENDCHAR
STARTCHAR uni1F81
ENCODING 8065
SWIDTH 480 0
DWIDTH 6 0
BBX 5 11 0 -2
BITMAP
30
20
00
68
90
90
90
68
00
20
10
ENDCHAR
STARTCHAR uni1F82
ENCODING 8066
SWIDTH 480 0
DWIDTH 6 0
BBX 5 11 0 -2
BITMAP
D0
48
00
68
90
90
90
68
00
20
10
ENDCHAR
STARTCHAR uni1F83
ENCODING 8067
SWIDTH 480 0
DWIDTH 6 0
BBX 5 11 0 -2
BITMAP
D0
88
00
68
90
90
90
68
00
20
10
ENDCHAR
STARTCHAR uni1F84
ENCODING 8068
SWIDTH 480 0
DWIDTH 6 0
BBX 5 11 0 -2
BITMAP
C8
50
00
68
90
90
90
68
00
20
10
ENDCHAR
STARTCHAR uni1F85
ENCODING 8069
SWIDTH 480 0
DWIDTH 6 0
BBX 5 11 0 -2
BITMAP
C8
90
00
68
90
90
90
68
00
20
10
ENDCHAR
STARTCHAR uni1F86
ENCODING 8070
SWIDTH 480 0
DWIDTH 6 0
BBX 5 12 0 -2
BITMAP
68
B0
10
20
00
68
90
90
68
00
20
10
ENDCHAR
STARTCHAR uni1F87
ENCODING 8071
SWIDTH 480 0
DWIDTH 6 0
BBX 5 12 0 -2
BITMAP
68
B0
20
10
00
68
90
90
68
00
20
10
ENDCHAR
STARTCHAR uni1F88
ENCODING 8072
SWIDTH 480 0
DWIDTH 6 0
BBX 5 12 0 -2
BITMAP
C0
40
00
70
88
88
F8
88
88
88
20
10
ENDCHAR
STARTCHAR uni1F89
ENCODING 8073
SWIDTH 480 0
DWIDTH 6 0
BBX 5 12 0 -2
BITMAP
C0
80
00
70
88
88
F8
88
88
88
20
10
ENDCHAR
STARTCHAR uni1F8A
ENCODING 8074
SWIDTH 480 0
DWIDTH 6 0
BBX 5 12 0 -2
BITMAP
D0
48
00
70
88
88
F8
88
88
88
20
10
ENDCHAR
STARTCHAR uni1F8B
ENCODING 8075
SWIDTH 480 0
DWIDTH 6 0
BBX 5 12 0 -2
BITMAP
D0
88
00
70
88
88
F8
88
88
88
20
10
ENDCHAR
STARTCHAR uni1F8C
ENCODING 8076
SWIDTH 480 0
DWIDTH 6 0
BBX 5 12 0 -2
BITMAP
C8
50
00
70
88
88
F8
88
88
88
20
10
ENDCHAR
STARTCHAR uni1F8D
ENCODING 8077
SWIDTH 480 0
DWIDTH 6 0
BBX 5 12 0 -2
BITMAP
C8
90
00
70
88
88
F8
88
88
88
20
10
ENDCHAR
STARTCHAR uni1F8E
ENCODING 8078
SWIDTH 480 0
DWIDTH 6 0
BBX 5 12 0 -2
BITMAP
68
B0
00
C0
40
30
48
78
48
48
20
10
ENDCHAR
STARTCHAR uni1F8F
ENCODING 8079
SWIDTH 480 0
DWIDTH 6 0
BBX 5 12 0 -2
BITMAP
68
B0
00
C0
80
30
48
78
48
48
20
10
ENDCHAR
STARTCHAR uni1F90
ENCODING 8080
SWIDTH 480 0
DWIDTH 6 0
BBX 5 11 0 -2
BITMAP
60
20
00
B0
C8
88
88
88
08
88
40
ENDCHAR
STARTCHAR uni1F91
ENCODING 8081
SWIDTH 480 0
DWIDTH 6 0
BBX 5 11 0 -2
BITMAP
30
20
00
B0
C8
88
88
88
08
88
40
ENDCHAR
STARTCHAR uni1F92
ENCODING 8082
SWIDTH 480 0
DWIDTH 6 0
BBX 5 11 0 -2
BITMAP
D0
48
00
B0
C8
88
88
88
08
88
40
ENDCHAR
STARTCHAR uni1F93
ENCODING 8083
SWIDTH 480 0
DWIDTH 6 0
BBX 5 11 0 -2
BITMAP
D0
88
00
B0
C8
88
88
88
08
88
40
ENDCHAR
STARTCHAR uni1F94
ENCODING 8084
SWIDTH 480 0
DWIDTH 6 0
BBX 5 11 0 -2
BITMAP
C8
50
00
B0
C8
88
88
88
08
88
40
ENDCHAR
STARTCHAR uni1F95
ENCODING 8085
SWIDTH 480 0
DWIDTH 6 0
BBX 5 11 0 -2
BITMAP
C8
90
00
B0
C8
88
88
88
08
88
40
ENDCHAR
STARTCHAR uni1F96
ENCODING 8086
SWIDTH 480 0
DWIDTH 6 0
BBX 5 12 0 -2
BITMAP
68
B0
10
20
00
B0
C8
88
88
08
88
40
ENDCHAR
STARTCHAR uni1F97
ENCODING 8087
SWIDTH 480 0
DWIDTH 6 0
BBX 5 12 0 -2
BITMAP
68
B0
20
10
00
B0
C8
88
88
08
88
40
ENDCHAR
STARTCHAR uni1F98
ENCODING 8088
SWIDTH 480 0
DWIDTH 6 0
BBX 5 12 0 -2
BITMAP
C0
40
00
88
88
88
F8
88
88
88
20
10
ENDCHAR
STARTCHAR uni1F99
ENCODING 8089
SWIDTH 480 0
DWIDTH 6 0
BBX 5 12 0 -2
BITMAP
C0
80
00
88
88
88
F8
88
88
88
20
10
ENDCHAR
STARTCHAR uni1F9A
ENCODING 8090
SWIDTH 480 0
DWIDTH 6 0
BBX 5 12 0 -2
BITMAP
D0
48
00
88
88
88
F8
88
88
88
20
10
ENDCHAR
STARTCHAR uni1F9B
ENCODING 8091
SWIDTH 480 0
DWIDTH 6 0
BBX 5 12 0 -2
BITMAP
D0
88
00
88
88
88
F8
88
88
88
20
10
ENDCHAR
STARTCHAR uni1F9C
ENCODING 8092
SWIDTH 480 0
DWIDTH 6 0
BBX 5 12 0 -2
BITMAP
C8
50
00
88
88
88
F8
88
88
88
20
10
ENDCHAR
STARTCHAR uni1F9D
ENCODING 8093
SWIDTH 480 0
DWIDTH 6 0
BBX 5 12 0 -2
BITMAP
C8
90
00
88
88
88
F8
88
88
88
20
10
ENDCHAR
STARTCHAR uni1F9E
ENCODING 8094
SWIDTH 480 0
DWIDTH 6 0
BBX 5 12 0 -2
BITMAP
68
B0
00
C0
40
28
28
38
28
28
20
10
ENDCHAR
STARTCHAR uni1F9F
ENCODING 8095
SWIDTH 480 0
DWIDTH 6 0
BBX 5 12 0 -2
BITMAP
68
B0
00
C0
80
28
28
38
28
28
20
10
ENDCHAR
STARTCHAR uni1FA0
ENCODING 8096
SWIDTH 480 0
DWIDTH 6 0
BBX 5 11 0 -2
BITMAP
60
20
00
50
88
A8
A8
50
00
20
10
ENDCHAR
STARTCHAR uni1FA1
ENCODING 8097
SWIDTH 480 0
DWIDTH 6 0
BBX 5 11 0 -2
BITMAP
30
20
00
50
88
A8
A8
50
00
20
10
ENDCHAR
STARTCHAR uni1FA2
ENCODING 8098
SWIDTH 480 0
DWIDTH 6 0
BBX 5 11 0 -2
BITMAP
D0
48
00
50
88
A8
A8
50
00
20
10
ENDCHAR
STARTCHAR uni1FA3
ENCODING 8099
SWIDTH 480 0
DWIDTH 6 0
BBX 5 11 0 -2
BITMAP
D0
88
00
50
88
A8
A8
50
00
20
10
ENDCHAR
STARTCHAR uni1FA4
ENCODING 8100
SWIDTH 480 0
DWIDTH 6 0
BBX 5 11 0 -2
BITMAP
C8
50
00
50
88
A8
A8
50
00
20
10
ENDCHAR
STARTCHAR uni1FA5
ENCODING 8101
SWIDTH 480 0
DWIDTH 6 0
BBX 5 11 0 -2
BITMAP
C8
90
00
50
88
A8
A8
50
00
20
10
ENDCHAR
STARTCHAR uni1FA6
ENCODING 8102
SWIDTH 480 0
DWIDTH 6 0
BBX 5 12 0 -2
BITMAP
68
B0
10
20
00
50
88
A8
50
00
20
10
ENDCHAR
STARTCHAR uni1FA7
ENCODING 8103
SWIDTH 480 0
DWIDTH 6 0
BBX 5 12 0 -2
BITMAP
68
B0
20
10
00
50
88
A8
50
00
20
10
ENDCHAR
STARTCHAR uni1FA8
ENCODING 8104
SWIDTH 480 0
DWIDTH 6 0
BBX 5 12 0 -2
BITMAP
C0
40
00
70
88
88
88
88
50
D8
20
10
ENDCHAR
STARTCHAR uni1FA9
ENCODING 8105
SWIDTH 480 0
DWIDTH 6 0
BBX 5 12 0 -2
BITMAP
C0
80
00
70
88
88
88
88
50
D8
20
10
ENDCHAR
STARTCHAR uni1FAA
ENCODING 8106
SWIDTH 480 0
DWIDTH 6 0
BBX 5 12 0 -2
BITMAP
D0
48
00
70
88
88
88
88
50
D8
20
10
ENDCHAR
STARTCHAR uni1FAB
ENCODING 8107
SWIDTH 480 0
DWIDTH 6 0
BBX 5 12 0 -2
BITMAP
D0
88
00
70
88
88
88
88
50
D8
20
10
ENDCHAR
STARTCHAR uni1FAC
ENCODING 8108
SWIDTH 480 0
DWIDTH 6 0
BBX 5 12 0 -2
BITMAP
C8
50
00
70
88
88
88
88
50
D8
20
10
ENDCHAR
STARTCHAR uni1FAD
ENCODING 8109
SWIDTH 480 0
DWIDTH 6 0
BBX 5 12 0 -2
BITMAP
C8
90
00
70
88
88
88
88
50
D8
20
10
ENDCHAR
STARTCHAR uni1FAE
ENCODING 8110
SWIDTH 480 0
DWIDTH 6 0
BBX 6 12 0 -2
BITMAP
68
B0
00
C0
40
38
44
44
28
6C
10
08
ENDCHAR
STARTCHAR uni1FAF
ENCODING 8111
SWIDTH 480 0
DWIDTH 6 0
BBX 6 12 0 -2
BITMAP
68
B0
00
C0
80
38
44
44
28
6C
10
08
ENDCHAR
STARTCHAR uni1FB0
ENCODING 8112
SWIDTH 480 0
DWIDTH 6 0
BBX 5 8 0 0
BITMAP
88
70
00
68
90
90
90
68
ENDCHAR
STARTCHAR uni1FB1
ENCODING 8113
SWIDTH 480 0
DWIDTH 6 0
BBX 5 7 0 0
BITMAP
F8
00
68
90
90
90
68
ENDCHAR
STARTCHAR uni1FB2
ENCODING 8114
SWIDTH 480 0
DWIDTH 6 0
BBX 5 11 0 -2
BITMAP
40
20
00
68
90
90
90
68
00
20
10
ENDCHAR
STARTCHAR uni1FB3
ENCODING 8115
SWIDTH 480 0
DWIDTH 6 0
BBX 5 8 0 -2
BITMAP
68
90
90
90
68
00
20
10
ENDCHAR
STARTCHAR uni1FB4
ENCODING 8116
SWIDTH 480 0
DWIDTH 6 0
BBX 5 11 0 -2
BITMAP
10
20
00
68
90
90
90
68
00
20
10
ENDCHAR
STARTCHAR uni1FB6
ENCODING 8118
SWIDTH 480 0
DWIDTH 6 0
BBX 5 8 0 0
BITMAP
68
B0
00
68
90
90
90
68
ENDCHAR
STARTCHAR uni1FB7
ENCODING 8119
SWIDTH 480 0
DWIDTH 6 0
BBX 5 11 0 -2
BITMAP
68
B0
00
68
90
90
90
68
00
20
10
ENDCHAR
STARTCHAR uni1FB8
ENCODING 8120
SWIDTH 480 0
DWIDTH 6 0
BBX 5 10 0 0
BITMAP
88
70
00
70
88
88
F8
88
88
88
ENDCHAR
STARTCHAR uni1FB9
ENCODING 8121
SWIDTH 480 0
DWIDTH 6 0
BBX 5 9 0 0
BITMAP
F8
00
70
88
88
F8
88
88
88
ENDCHAR
STARTCHAR uni1FBA
ENCODING 8122
SWIDTH 480 0
DWIDTH 6 0
BBX 5 10 0 0
BITMAP
80
40
00
70
88
88
F8
88
88
88
ENDCHAR
STARTCHAR uni1FBB
ENCODING 8123
SWIDTH 480 0
DWIDTH 6 0
BBX 5 10 0 0
BITMAP
40
80
00
70
88
88
F8
88
88
88
ENDCHAR
STARTCHAR uni1FBC
ENCODING 8124
SWIDTH 480 0
DWIDTH 6 0
BBX 5 9 0 -2
BITMAP
70
88
88
F8
88
88
88
20
10
ENDCHAR
STARTCHAR uni1FBD
ENCODING 8125
SWIDTH 480 0
DWIDTH 6 0
BBX 2 2 1 6
BITMAP
C0
40
ENDCHAR
STARTCHAR uni1FBE
ENCODING 8126
SWIDTH 480 0
DWIDTH 6 0
BBX 2 2 2 -2
BITMAP
80
40
ENDCHAR
STARTCHAR uni1FBF
ENCODING 8127
SWIDTH 480 0
DWIDTH 6 0
BBX 2 2 1 6
BITMAP
C0
40
ENDCHAR
STARTCHAR uni1FC0
ENCODING 8128
SWIDTH 480 0
DWIDTH 6 0
BBX 5 2 0 6
BITMAP
68
B0
ENDCHAR
STARTCHAR uni1FC1
ENCODING 8129
SWIDTH 480 0
DWIDTH 6 0
BBX 5 4 0 6
BITMAP
68
B0
00
50
ENDCHAR
STARTCHAR uni1FC2
ENCODING 8130
SWIDTH 480 0
DWIDTH 6 0
BBX 5 11 0 -2
BITMAP
40
20
00
B0
C8
88
88
88
08
88
40
ENDCHAR
STARTCHAR uni1FC3
ENCODING 8131
SWIDTH 480 0
DWIDTH 6 0
BBX 5 8 0 -2
BITMAP
B0
C8
88
88
88
08
88
40
ENDCHAR
STARTCHAR uni1FC4
ENCODING 8132
SWIDTH 480 0
DWIDTH 6 0
BBX 5 11 0 -2
BITMAP
10
20
00
B0
C8
88
88
88
08
88
40
ENDCHAR
STARTCHAR uni1FC6
ENCODING 8134
SWIDTH 480 0
DWIDTH 6 0
BBX 5 10 0 -2
BITMAP
68
B0
00
B0
C8
88
88
88
08
08
ENDCHAR
STARTCHAR uni1FC7
ENCODING 8135
SWIDTH 480 0
DWIDTH 6 0
BBX 5 11 0 -2
BITMAP
68
B0
00
B0
C8
88
88
88
08
88
40
ENDCHAR
STARTCHAR uni1FC8
ENCODING 8136
SWIDTH 480 0
DWIDTH 6 0
BBX 5 10 0 0
BITMAP
80
40
00
F8
80
80
F0
80
80
F8
ENDCHAR
STARTCHAR uni1FC9
ENCODING 8137
SWIDTH 480 0
DWIDTH 6 0
BBX 5 10 0 0
BITMAP
40
80
00
F8
80
80
F0
80
80
F8
ENDCHAR
STARTCHAR uni1FCA
ENCODING 8138
SWIDTH 480 0
DWIDTH 6 0
BBX 5 10 0 0
BITMAP
80
40
00
88
88
88
F8
88
88
88
ENDCHAR
STARTCHAR uni1FCB
ENCODING 8139
SWIDTH 480 0
DWIDTH 6 0
BBX 5 10 0 0
BITMAP
40
80
00
88
88
88
F8
88
88
88
ENDCHAR
STARTCHAR uni1FCC
ENCODING 8140
SWIDTH 480 0
DWIDTH 6 0
BBX 5 9 0 -2
BITMAP
88
88
88
F8
88
88
88
20
10
ENDCHAR
STARTCHAR uni1FCD
ENCODING 8141
SWIDTH 480 0
DWIDTH 6 0
BBX 5 2 0 6
BITMAP
D0
48
ENDCHAR
STARTCHAR uni1FCE
ENCODING 8142
SWIDTH 480 0
DWIDTH 6 0
BBX 5 2 0 6
BITMAP
C8
50
ENDCHAR
STARTCHAR uni1FCF
ENCODING 8143
SWIDTH 480 0
DWIDTH 6 0
BBX 5 5 0 5
BITMAP
68
B0
00
30
10
ENDCHAR
STARTCHAR uni1FD0
ENCODING 8144
SWIDTH 480 0
DWIDTH 6 0
BBX 5 8 0 0
BITMAP
88
70
00
20
20
20
28
10
ENDCHAR
STARTCHAR uni1FD1
ENCODING 8145
SWIDTH 480 0
DWIDTH 6 0
BBX 5 7 0 0
BITMAP
F8
00
40
40
40
50
20
ENDCHAR
STARTCHAR uni1FD2
ENCODING 8146
SWIDTH 480 0
DWIDTH 6 0
BBX 4 10 1 0
BITMAP
80
40
00
A0
00
40
40
40
50
20
ENDCHAR
STARTCHAR uni1FD3
ENCODING 8147
SWIDTH 480 0
DWIDTH 6 0
BBX 4 10 1 0
BITMAP
80
40
00
A0
00
40
40
40
50
20
ENDCHAR
STARTCHAR uni1FD6
ENCODING 8150
SWIDTH 480 0
DWIDTH 6 0
BBX 5 8 0 0
BITMAP
68
B0
00
20
20
20
28
10
ENDCHAR
STARTCHAR uni1FD7
ENCODING 8151
SWIDTH 480 0
DWIDTH 6 0
BBX 5 10 0 0
BITMAP
68
B0
00
50
00
20
20
20
28
10
ENDCHAR
STARTCHAR uni1FD8
ENCODING 8152
SWIDTH 480 0
DWIDTH 6 0
BBX 5 10 0 0
BITMAP
88
70
00
70
20
20
20
20
20
70
ENDCHAR
STARTCHAR uni1FD9
ENCODING 8153
SWIDTH 480 0
DWIDTH 6 0
BBX 5 9 0 0
BITMAP
F8
00
70
20
20
20
20
20
70
ENDCHAR
STARTCHAR uni1FDA
ENCODING 8154
SWIDTH 480 0
DWIDTH 6 0
BBX 4 10 0 0
BITMAP
80
40
00
70
20
20
20
20
20
70
ENDCHAR
STARTCHAR uni1FDB
ENCODING 8155
SWIDTH 480 0
DWIDTH 6 0
BBX 4 10 0 0
BITMAP
40
80
00
70
20
20
20
20
20
70
ENDCHAR
STARTCHAR uni1FDD
ENCODING 8157
SWIDTH 480 0
DWIDTH 6 0
BBX 5 2 0 6
BITMAP
D0
88
ENDCHAR
STARTCHAR uni1FDE
ENCODING 8158
SWIDTH 480 0
DWIDTH 6 0
BBX 5 2 0 6
BITMAP
C8
90
ENDCHAR
STARTCHAR uni1FDF
ENCODING 8159
SWIDTH 480 0
DWIDTH 6 0
BBX 5 5 0 5
BITMAP
68
B0
00
30
20
ENDCHAR
STARTCHAR uni1FE0
ENCODING 8160
SWIDTH 480 0
DWIDTH 6 0
BBX 5 8 0 0
BITMAP
88
70
00
90
88
88
88
70
ENDCHAR
STARTCHAR uni1FE1
ENCODING 8161
SWIDTH 480 0
DWIDTH 6 0
BBX 5 7 0 0
BITMAP
F8
00
90
88
88
88
70
ENDCHAR
STARTCHAR uni1FE2
ENCODING 8162
SWIDTH 480 0
DWIDTH 6 0
BBX 5 10 0 0
BITMAP
40
20
00
50
00
90
88
88
88
70
ENDCHAR
STARTCHAR uni1FE3
ENCODING 8163
SWIDTH 480 0
DWIDTH 6 0
BBX 5 10 0 0
BITMAP
40
20
00
50
00
90
88
88
88
70
ENDCHAR
STARTCHAR uni1FE4
ENCODING 8164
SWIDTH 480 0
DWIDTH 6 0
BBX 5 10 0 -2
BITMAP
60
20
00
70
88
88
C8
B0
80
80
ENDCHAR
STARTCHAR uni1FE5
ENCODING 8165
SWIDTH 480 0
DWIDTH 6 0
BBX 5 10 0 -2
BITMAP
30
20
00
70
88
88
C8
B0
80
80
ENDCHAR
STARTCHAR uni1FE6
ENCODING 8166
SWIDTH 480 0
DWIDTH 6 0
BBX 5 8 0 0
BITMAP
68
B0
00
90
88
88
88
70
ENDCHAR
STARTCHAR uni1FE7
ENCODING 8167
SWIDTH 480 0
DWIDTH 6 0
BBX 5 10 0 0
BITMAP
68
B0
00
50
00
90
88
88
88
70
ENDCHAR
STARTCHAR uni1FE8
ENCODING 8168
SWIDTH 480 0
DWIDTH 6 0
BBX 5 10 0 0
BITMAP
88
70
00
88
88
50
20
20
20
20
ENDCHAR
STARTCHAR uni1FE9
ENCODING 8169
SWIDTH 480 0
DWIDTH 6 0
BBX 5 9 0 0
BITMAP
F8
00
88
88
50
20
20
20
20
ENDCHAR
STARTCHAR uni1FEA
ENCODING 8170
SWIDTH 480 0
DWIDTH 6 0
BBX 5 10 0 0
BITMAP
80
40
00
88
88
50
20
20
20
20
ENDCHAR
STARTCHAR uni1FEB
ENCODING 8171
SWIDTH 480 0
DWIDTH 6 0
BBX 5 10 0 0
BITMAP
40
80
00
88
88
50
20
20
20
20
ENDCHAR
STARTCHAR uni1FEC
ENCODING 8172
SWIDTH 480 0
DWIDTH 6 0
BBX 5 10 0 0
BITMAP
C0
80
00
F0
88
88
F0
80
80
80
ENDCHAR
STARTCHAR uni1FED
ENCODING 8173
SWIDTH 480 0
DWIDTH 6 0
BBX 3 4 1 6
BITMAP
80
40
00
A0
ENDCHAR
STARTCHAR uni1FEE
ENCODING 8174
SWIDTH 480 0
DWIDTH 6 0
BBX 3 4 1 6
BITMAP
20
40
00
A0
ENDCHAR
STARTCHAR uni1FEF
ENCODING 8175
SWIDTH 480 0
DWIDTH 6 0
BBX 2 2 1 6
BITMAP
80
40
ENDCHAR
STARTCHAR uni1FF2
ENCODING 8178
SWIDTH 480 0
DWIDTH 6 0
BBX 5 11 0 -2
BITMAP
40
20
00
50
88
A8
A8
50
00
20
10
ENDCHAR
STARTCHAR uni1FF3
ENCODING 8179
SWIDTH 480 0
DWIDTH 6 0
BBX 5 8 0 -2
BITMAP
50
88
A8
A8
50
00
20
10
ENDCHAR
STARTCHAR uni1FF4
ENCODING 8180
SWIDTH 480 0
DWIDTH 6 0
BBX 5 11 0 -2
BITMAP
10
20
00
50
88
A8
A8
50
00
20
10
ENDCHAR
STARTCHAR uni1FF6
ENCODING 8182
SWIDTH 480 0
DWIDTH 6 0
BBX 5 8 0 0
BITMAP
68
B0
00
50
88
A8
A8
50
ENDCHAR
STARTCHAR uni1FF7
ENCODING 8183
SWIDTH 480 0
DWIDTH 6 0
BBX 5 11 0 -2
BITMAP
68
B0
00
50
88
A8
A8
50
00
20
10
ENDCHAR
STARTCHAR uni1FF8
ENCODING 8184
SWIDTH 480 0
DWIDTH 6 0
BBX 5 10 0 0
BITMAP
88
70
00
70
88
88
88
88
88
70
ENDCHAR
STARTCHAR uni1FF9
ENCODING 8185
SWIDTH 480 0
DWIDTH 6 0
BBX 5 9 0 0
BITMAP
F8
00
70
88
88
88
88
88
70
ENDCHAR
STARTCHAR uni1FFA
ENCODING 8186
SWIDTH 480 0
DWIDTH 6 0
BBX 5 10 0 0
BITMAP
80
40
00
70
88
88
88
88
50
D8
ENDCHAR
STARTCHAR uni1FFB
ENCODING 8187
SWIDTH 480 0
DWIDTH 6 0
BBX 5 10 0 0
BITMAP
40
80
00
70
88
88
88
88
50
D8
ENDCHAR
STARTCHAR uni1FFC
ENCODING 8188
SWIDTH 480 0
DWIDTH 6 0
BBX 5 9 0 -2
BITMAP
70
88
88
88
88
50
D8
20
10
ENDCHAR
STARTCHAR uni1FFD
ENCODING 8189
SWIDTH 480 0
DWIDTH 6 0
BBX 2 2 2 6
BITMAP
40
80
ENDCHAR
STARTCHAR uni1FFE
ENCODING 8190
SWIDTH 480 0
DWIDTH 6 0
BBX 2 2 2 6
BITMAP
C0
80
ENDCHAR
STARTCHAR uni2010
ENCODING 8208
SWIDTH 480 0
DWIDTH 6 0
BBX 3 1 1 3
BITMAP
E0
ENDCHAR
STARTCHAR uni2011
ENCODING 8209
SWIDTH 480 0
DWIDTH 6 0
BBX 3 1 1 3
BITMAP
E0
ENDCHAR
STARTCHAR figuredash
ENCODING 8210
SWIDTH 480 0
DWIDTH 6 0
BBX 5 1 0 3
BITMAP
F8
ENDCHAR
STARTCHAR endash
ENCODING 8211
SWIDTH 480 0
DWIDTH 6 0
BBX 5 1 0 3
BITMAP
F8
ENDCHAR
STARTCHAR emdash
ENCODING 8212
SWIDTH 480 0
DWIDTH 6 0
BBX 6 1 0 3
BITMAP
FC
ENDCHAR
STARTCHAR afii00208
ENCODING 8213
SWIDTH 480 0
DWIDTH 6 0
BBX 6 1 0 3
BITMAP
FC
ENDCHAR
STARTCHAR uni2016
ENCODING 8214
SWIDTH 480 0
DWIDTH 6 0
BBX 3 7 1 0
BITMAP
A0
A0
A0
A0
A0
A0
A0
ENDCHAR
STARTCHAR underscoredbl
ENCODING 8215
SWIDTH 480 0
DWIDTH 6 0
BBX 6 3 0 -2
BITMAP
FC
00
FC
ENDCHAR
STARTCHAR quoteleft
ENCODING 8216
SWIDTH 480 0
DWIDTH 6 0
BBX 2 3 2 4
BITMAP
40
80
C0
ENDCHAR
STARTCHAR quoteright
ENCODING 8217
SWIDTH 480 0
DWIDTH 6 0
BBX 2 3 2 4
BITMAP
C0
40
80
ENDCHAR
STARTCHAR quotesinglbase
ENCODING 8218
SWIDTH 480 0
DWIDTH 6 0
BBX 2 3 2 -1
BITMAP
C0
40
80
ENDCHAR
STARTCHAR quotereversed
ENCODING 8219
SWIDTH 480 0
DWIDTH 6 0
BBX 2 3 2 4
BITMAP
C0
80
40
ENDCHAR
STARTCHAR quotedblleft
ENCODING 8220
SWIDTH 480 0
DWIDTH 6 0
BBX 5 3 0 4
BITMAP
48
90
D8
ENDCHAR
STARTCHAR quotedblright
ENCODING 8221
SWIDTH 480 0
DWIDTH 6 0
BBX 5 3 0 4
BITMAP
D8
48
90
ENDCHAR
STARTCHAR quotedblbase
ENCODING 8222
SWIDTH 480 0
DWIDTH 6 0
BBX 5 3 0 -1
BITMAP
D8
48
90
ENDCHAR
STARTCHAR uni201F
ENCODING 8223
SWIDTH 480 0
DWIDTH 6 0
BBX 5 3 0 4
BITMAP
D8
90
48
ENDCHAR
STARTCHAR dagger
ENCODING 8224
SWIDTH 480 0
DWIDTH 6 0
BBX 5 7 0 0
BITMAP
20
20
F8
20
20
20
20
ENDCHAR
STARTCHAR daggerdbl
ENCODING 8225
SWIDTH 480 0
DWIDTH 6 0
BBX 5 7 0 0
BITMAP
20
F8
20
F8
20
20
20
ENDCHAR
STARTCHAR bullet
ENCODING 8226
SWIDTH 480 0
DWIDTH 6 0
BBX 4 4 1 2
BITMAP
60
F0
F0
60
ENDCHAR
STARTCHAR uni2023
ENCODING 8227
SWIDTH 480 0
DWIDTH 6 0
BBX 3 5 1 1
BITMAP
80
C0
E0
C0
80
ENDCHAR
STARTCHAR onedotenleader
ENCODING 8228
SWIDTH 480 0
DWIDTH 6 0
BBX 1 1 2 0
BITMAP
80
ENDCHAR
STARTCHAR twodotenleader
ENCODING 8229
SWIDTH 480 0
DWIDTH 6 0
BBX 3 1 1 0
BITMAP
A0
ENDCHAR
STARTCHAR ellipsis
ENCODING 8230
SWIDTH 480 0
DWIDTH 6 0
BBX 5 1 0 0
BITMAP
A8
ENDCHAR
STARTCHAR uni2027
ENCODING 8231
SWIDTH 480 0
DWIDTH 6 0
BBX 1 1 2 3
BITMAP
80
ENDCHAR
STARTCHAR perthousand
ENCODING 8240
SWIDTH 480 0
DWIDTH 6 0
BBX 6 7 0 0
BITMAP
48
A8
50
20
68
D4
A8
ENDCHAR
STARTCHAR uni2031
ENCODING 8241
SWIDTH 480 0
DWIDTH 6 0
BBX 6 7 0 0
BITMAP
48
A8
58
34
68
D4
A8
ENDCHAR
STARTCHAR minute
ENCODING 8242
SWIDTH 480 0
DWIDTH 6 0
BBX 2 3 1 4
BITMAP
40
40
80
ENDCHAR
STARTCHAR second
ENCODING 8243
SWIDTH 480 0
DWIDTH 6 0
BBX 5 3 0 4
BITMAP
48
48
90
ENDCHAR
STARTCHAR uni2034
ENCODING 8244
SWIDTH 480 0
DWIDTH 6 0
BBX 6 3 0 4
BITMAP
54
54
A8
ENDCHAR
STARTCHAR uni2035
ENCODING 8245
SWIDTH 480 0
DWIDTH 6 0
BBX 2 3 1 4
BITMAP
80
80
40
ENDCHAR
STARTCHAR uni2036
ENCODING 8246
SWIDTH 480 0
DWIDTH 6 0
BBX 5 3 0 4
BITMAP
90
90
48
ENDCHAR
STARTCHAR uni2037
ENCODING 8247
SWIDTH 480 0
DWIDTH 6 0
BBX 6 3 0 4
BITMAP
A8
A8
54
ENDCHAR
STARTCHAR uni2038
ENCODING 8248
SWIDTH 480 0
DWIDTH 6 0
BBX 3 4 1 -2
BITMAP
40
40
A0
A0
ENDCHAR
STARTCHAR guilsinglleft
ENCODING 8249
SWIDTH 480 0
DWIDTH 6 0
BBX 3 5 1 0
BITMAP
20
40
80
40
20
ENDCHAR
STARTCHAR guilsinglright
ENCODING 8250
SWIDTH 480 0
DWIDTH 6 0
BBX 3 5 1 0
BITMAP
80
40
20
40
80
ENDCHAR
STARTCHAR uni203B
ENCODING 8251
SWIDTH 480 0
DWIDTH 6 0
BBX 5 9 0 -1
BITMAP
20
88
50
20
A8
20
50
88
20
ENDCHAR
STARTCHAR exclamdbl
ENCODING 8252
SWIDTH 480 0
DWIDTH 6 0
BBX 3 7 1 0
BITMAP
A0
A0
A0
A0
A0
00
A0
ENDCHAR
STARTCHAR uni203D
ENCODING 8253
SWIDTH 480 0
DWIDTH 6 0
BBX 5 7 0 0
BITMAP
70
A8
28
30
20
00
20
ENDCHAR
STARTCHAR uni203E
ENCODING 8254
SWIDTH 480 0
DWIDTH 6 0
BBX 6 1 0 8
BITMAP
FC
ENDCHAR
STARTCHAR uni203F
ENCODING 8255
SWIDTH 480 0
DWIDTH 6 0
BBX 5 2 0 -2
BITMAP
88
70
ENDCHAR
STARTCHAR uni2040
ENCODING 8256
SWIDTH 480 0
DWIDTH 6 0
BBX 5 2 0 7
BITMAP
70
88
ENDCHAR
STARTCHAR uni2041
ENCODING 8257
SWIDTH 480 0
DWIDTH 6 0
BBX 4 7 1 -2
BITMAP
10
20
20
40
40
A0
A0
ENDCHAR
STARTCHAR uni2042
ENCODING 8258
SWIDTH 480 0
DWIDTH 6 0
BBX 5 6 0 0
BITMAP
20
70
20
50
F8
50
ENDCHAR
STARTCHAR uni2043
ENCODING 8259
SWIDTH 480 0
DWIDTH 6 0
BBX 3 2 1 2
BITMAP
E0
E0
ENDCHAR
STARTCHAR fraction
ENCODING 8260
SWIDTH 480 0
DWIDTH 6 0
BBX 4 7 1 0
BITMAP
10
20
20
40
40
80
80
ENDCHAR
STARTCHAR uni2045
ENCODING 8261
SWIDTH 480 0
DWIDTH 6 0
BBX 3 7 1 0
BITMAP
E0
80
80
E0
80
80
E0
ENDCHAR
STARTCHAR uni2046
ENCODING 8262
SWIDTH 480 0
DWIDTH 6 0
BBX 3 7 1 0
BITMAP
E0
20
20
E0
20
20
E0
ENDCHAR
STARTCHAR uni2047
ENCODING 8263
SWIDTH 480 0
DWIDTH 6 0
BBX 6 7 0 0
BITMAP
48
B4
24
48
48
00
48
ENDCHAR
STARTCHAR uni2048
ENCODING 8264
SWIDTH 480 0
DWIDTH 6 0
BBX 5 7 0 0
BITMAP
48
A8
28
48
48
00
48
ENDCHAR
STARTCHAR uni2049
ENCODING 8265
SWIDTH 480 0
DWIDTH 6 0
BBX 5 7 0 0
BITMAP
90
A8
88
90
90
00
90
ENDCHAR
STARTCHAR uni204A
ENCODING 8266
SWIDTH 480 0
DWIDTH 6 0
BBX 4 5 1 0
BITMAP
F0
10
10
10
10
ENDCHAR
STARTCHAR uni204B
ENCODING 8267
SWIDTH 480 0
DWIDTH 6 0
BBX 5 7 0 0
BITMAP
F0
B8
B8
B0
A0
A0
A0
ENDCHAR
STARTCHAR uni204C
ENCODING 8268
SWIDTH 480 0
DWIDTH 6 0
BBX 5 4 0 2
BITMAP
78
E8
E8
78
ENDCHAR
STARTCHAR uni204D
ENCODING 8269
SWIDTH 480 0
DWIDTH 6 0
BBX 5 4 0 2
BITMAP
F0
B8
B8
F0
ENDCHAR
STARTCHAR uni204E
ENCODING 8270
SWIDTH 480 0
DWIDTH 6 0
BBX 5 6 0 0
BITMAP
20
A8
70
70
A8
20
ENDCHAR
STARTCHAR uni204F
ENCODING 8271
SWIDTH 480 0
DWIDTH 6 0
BBX 3 7 1 -2
BITMAP
40
E0
40
00
C0
40
20
ENDCHAR
STARTCHAR uni2050
ENCODING 8272
SWIDTH 480 0
DWIDTH 6 0
BBX 5 10 0 -1
BITMAP
70
88
00
00
00
00
00
00
88
70
ENDCHAR
STARTCHAR uni2051
ENCODING 8273
SWIDTH 480 0
DWIDTH 6 0
BBX 5 10 0 0
BITMAP
A8
70
70
A8
20
A8
70
70
A8
20
ENDCHAR
STARTCHAR uni2052
ENCODING 8274
SWIDTH 480 0
DWIDTH 6 0
BBX 4 8 0 0
BITMAP
90
10
20
20
40
40
90
80
ENDCHAR
STARTCHAR uni2053
ENCODING 8275
SWIDTH 480 0
DWIDTH 6 0
BBX 5 2 0 3
BITMAP
68
B0
ENDCHAR
STARTCHAR uni2054
ENCODING 8276
SWIDTH 480 0
DWIDTH 6 0
BBX 5 2 0 -1
BITMAP
70
88
ENDCHAR
STARTCHAR uni2055
ENCODING 8277
SWIDTH 480 0
DWIDTH 6 0
BBX 5 5 0 2
BITMAP
A8
70
F8
70
A8
ENDCHAR
STARTCHAR uni2056
ENCODING 8278
SWIDTH 480 0
DWIDTH 6 0
BBX 4 5 0 2
BITMAP
10
00
80
00
10
ENDCHAR
STARTCHAR uni2057
ENCODING 8279
SWIDTH 480 0
DWIDTH 6 0
BBX 6 3 0 6
BITMAP
7C
7C
F8
ENDCHAR
STARTCHAR uni2058
ENCODING 8280
SWIDTH 480 0
DWIDTH 6 0
BBX 5 5 0 2
BITMAP
20
00
88
00
20
ENDCHAR
STARTCHAR uni2059
ENCODING 8281
SWIDTH 480 0
DWIDTH 6 0
BBX 5 5 0 2
BITMAP
88
00
20
00
88
ENDCHAR
STARTCHAR uni205A
ENCODING 8282
SWIDTH 480 0
DWIDTH 6 0
BBX 1 8 2 0
BITMAP
80
80
00
00
00
00
80
80
ENDCHAR
STARTCHAR uni205B
ENCODING 8283
SWIDTH 480 0
DWIDTH 6 0
BBX 5 8 0 0
BITMAP
20
20
00
88
88
00
20
20
ENDCHAR
STARTCHAR uni205C
ENCODING 8284
SWIDTH 480 0
DWIDTH 6 0
BBX 5 5 0 2
BITMAP
A8
20
F8
20
A8
ENDCHAR
STARTCHAR uni205D
ENCODING 8285
SWIDTH 480 0
DWIDTH 6 0
BBX 1 7 2 0
BITMAP
80
00
00
80
00
00
80
ENDCHAR
STARTCHAR uni205E
ENCODING 8286
SWIDTH 480 0
DWIDTH 6 0
BBX 1 7 2 0
BITMAP
80
00
80
00
80
00
80
ENDCHAR
STARTCHAR zerosuperior
ENCODING 8304
SWIDTH 480 0
DWIDTH 6 0
BBX 3 5 1 5
BITMAP
40
A0
A0
A0
40
ENDCHAR
ENDFONT
